%TF.GenerationSoftware,KiCad,Pcbnew,(6.0.7-1)-1*%
%TF.CreationDate,2023-01-16T13:52:54-08:00*%
%TF.ProjectId,updated_boost_USB_charger,75706461-7465-4645-9f62-6f6f73745f55,rev?*%
%TF.SameCoordinates,Original*%
%TF.FileFunction,Legend,Top*%
%TF.FilePolarity,Positive*%
%FSLAX46Y46*%
G04 Gerber Fmt 4.6, Leading zero omitted, Abs format (unit mm)*
G04 Created by KiCad (PCBNEW (6.0.7-1)-1) date 2023-01-16 13:52:54*
%MOMM*%
%LPD*%
G01*
G04 APERTURE LIST*
%ADD10C,0.100000*%
%ADD11C,0.150000*%
%ADD12C,0.083333*%
%ADD13C,0.300000*%
%ADD14C,0.056818*%
%ADD15C,0.075000*%
%ADD16C,0.093750*%
%ADD17C,0.225000*%
%ADD18C,0.125000*%
%ADD19C,0.120000*%
G04 APERTURE END LIST*
D10*
X105410000Y-107120000D02*
G75*
G03*
X105410000Y-107120000I-254000J0D01*
G01*
D11*
X121666000Y-98171000D02*
X121666000Y-92075000D01*
X116586000Y-98171000D02*
X121666000Y-98171000D01*
X121666000Y-90551000D02*
X116586000Y-90551000D01*
X116586000Y-92075000D02*
X116586000Y-98171000D01*
X116586000Y-92075000D02*
X116586000Y-90551000D01*
X121666000Y-92075000D02*
X121666000Y-90551000D01*
D12*
X121615766Y-111082561D02*
X122171322Y-110897376D01*
X121615766Y-110712190D01*
X122171322Y-110447640D02*
X122144867Y-110500550D01*
X122118412Y-110527005D01*
X122065502Y-110553460D01*
X121906772Y-110553460D01*
X121853862Y-110527005D01*
X121827407Y-110500550D01*
X121800952Y-110447640D01*
X121800952Y-110368275D01*
X121827407Y-110315365D01*
X121853862Y-110288910D01*
X121906772Y-110262455D01*
X122065502Y-110262455D01*
X122118412Y-110288910D01*
X122144867Y-110315365D01*
X122171322Y-110368275D01*
X122171322Y-110447640D01*
X121800952Y-109786264D02*
X122171322Y-109786264D01*
X121800952Y-110024359D02*
X122091957Y-110024359D01*
X122144867Y-109997904D01*
X122171322Y-109944994D01*
X122171322Y-109865629D01*
X122144867Y-109812719D01*
X122118412Y-109786264D01*
X121800952Y-109601078D02*
X121800952Y-109389438D01*
X121615766Y-109521713D02*
X122091957Y-109521713D01*
X122144867Y-109495258D01*
X122171322Y-109442348D01*
X122171322Y-109389438D01*
D13*
X128206571Y-92498642D02*
X129349428Y-92498642D01*
X128778000Y-93070071D02*
X128778000Y-91927214D01*
X128206571Y-94913642D02*
X129349428Y-94913642D01*
D10*
X123142681Y-91233587D02*
X122825220Y-91233587D01*
X122825220Y-90566920D01*
X123460141Y-91233587D02*
X123396649Y-91201841D01*
X123364903Y-91170095D01*
X123333157Y-91106603D01*
X123333157Y-90916126D01*
X123364903Y-90852634D01*
X123396649Y-90820888D01*
X123460141Y-90789142D01*
X123555379Y-90789142D01*
X123618872Y-90820888D01*
X123650618Y-90852634D01*
X123682364Y-90916126D01*
X123682364Y-91106603D01*
X123650618Y-91170095D01*
X123618872Y-91201841D01*
X123555379Y-91233587D01*
X123460141Y-91233587D01*
X123904586Y-90789142D02*
X124031570Y-91233587D01*
X124158554Y-90916126D01*
X124285539Y-91233587D01*
X124412523Y-90789142D01*
X125396650Y-90884380D02*
X125491888Y-90916126D01*
X125523634Y-90947873D01*
X125555380Y-91011365D01*
X125555380Y-91106603D01*
X125523634Y-91170095D01*
X125491888Y-91201841D01*
X125428396Y-91233587D01*
X125174428Y-91233587D01*
X125174428Y-90566920D01*
X125396650Y-90566920D01*
X125460142Y-90598666D01*
X125491888Y-90630412D01*
X125523634Y-90693904D01*
X125523634Y-90757396D01*
X125491888Y-90820888D01*
X125460142Y-90852634D01*
X125396650Y-90884380D01*
X125174428Y-90884380D01*
X126126809Y-91233587D02*
X126126809Y-90884380D01*
X126095063Y-90820888D01*
X126031571Y-90789142D01*
X125904587Y-90789142D01*
X125841095Y-90820888D01*
X126126809Y-91201841D02*
X126063317Y-91233587D01*
X125904587Y-91233587D01*
X125841095Y-91201841D01*
X125809349Y-91138349D01*
X125809349Y-91074857D01*
X125841095Y-91011365D01*
X125904587Y-90979619D01*
X126063317Y-90979619D01*
X126126809Y-90947873D01*
X126349032Y-90789142D02*
X126603000Y-90789142D01*
X126444270Y-90566920D02*
X126444270Y-91138349D01*
X126476016Y-91201841D01*
X126539508Y-91233587D01*
X126603000Y-91233587D01*
X126729984Y-90789142D02*
X126983953Y-90789142D01*
X126825222Y-90566920D02*
X126825222Y-91138349D01*
X126856968Y-91201841D01*
X126920460Y-91233587D01*
X126983953Y-91233587D01*
X127460143Y-91201841D02*
X127396651Y-91233587D01*
X127269667Y-91233587D01*
X127206175Y-91201841D01*
X127174429Y-91138349D01*
X127174429Y-90884380D01*
X127206175Y-90820888D01*
X127269667Y-90789142D01*
X127396651Y-90789142D01*
X127460143Y-90820888D01*
X127491889Y-90884380D01*
X127491889Y-90947873D01*
X127174429Y-91011365D01*
X127777604Y-91233587D02*
X127777604Y-90789142D01*
X127777604Y-90916126D02*
X127809350Y-90852634D01*
X127841096Y-90820888D01*
X127904588Y-90789142D01*
X127968080Y-90789142D01*
X128126810Y-90789142D02*
X128285541Y-91233587D01*
X128444271Y-90789142D02*
X128285541Y-91233587D01*
X128222048Y-91392317D01*
X128190302Y-91424063D01*
X128126810Y-91455809D01*
D13*
X135318571Y-92498642D02*
X136461428Y-92498642D01*
X135890000Y-93070071D02*
X135890000Y-91927214D01*
X135318571Y-94913642D02*
X136461428Y-94913642D01*
D12*
X88341766Y-108391783D02*
X88897322Y-108206598D01*
X88341766Y-108021412D01*
X88897322Y-107836227D02*
X88526952Y-107836227D01*
X88341766Y-107836227D02*
X88368222Y-107862682D01*
X88394677Y-107836227D01*
X88368222Y-107809772D01*
X88341766Y-107836227D01*
X88394677Y-107836227D01*
X88526952Y-107571677D02*
X88897322Y-107571677D01*
X88579862Y-107571677D02*
X88553407Y-107545222D01*
X88526952Y-107492311D01*
X88526952Y-107412946D01*
X88553407Y-107360036D01*
X88606317Y-107333581D01*
X88897322Y-107333581D01*
D13*
X93408571Y-108246642D02*
X94551428Y-108246642D01*
X93980000Y-108818071D02*
X93980000Y-107675214D01*
X93408571Y-110661642D02*
X94551428Y-110661642D01*
D11*
X105624666Y-98369380D02*
X105624666Y-97369380D01*
X106100857Y-97702714D02*
X106100857Y-98369380D01*
X106100857Y-97797952D02*
X106148476Y-97750333D01*
X106243714Y-97702714D01*
X106386571Y-97702714D01*
X106481809Y-97750333D01*
X106529428Y-97845571D01*
X106529428Y-98369380D01*
X107434190Y-98369380D02*
X107434190Y-97369380D01*
X107434190Y-98321761D02*
X107338952Y-98369380D01*
X107148476Y-98369380D01*
X107053238Y-98321761D01*
X107005619Y-98274142D01*
X106958000Y-98178904D01*
X106958000Y-97893190D01*
X107005619Y-97797952D01*
X107053238Y-97750333D01*
X107148476Y-97702714D01*
X107338952Y-97702714D01*
X107434190Y-97750333D01*
X108338952Y-97702714D02*
X108338952Y-98369380D01*
X107910380Y-97702714D02*
X107910380Y-98226523D01*
X107958000Y-98321761D01*
X108053238Y-98369380D01*
X108196095Y-98369380D01*
X108291333Y-98321761D01*
X108338952Y-98274142D01*
X109243714Y-98321761D02*
X109148476Y-98369380D01*
X108958000Y-98369380D01*
X108862761Y-98321761D01*
X108815142Y-98274142D01*
X108767523Y-98178904D01*
X108767523Y-97893190D01*
X108815142Y-97797952D01*
X108862761Y-97750333D01*
X108958000Y-97702714D01*
X109148476Y-97702714D01*
X109243714Y-97750333D01*
X109529428Y-97702714D02*
X109910380Y-97702714D01*
X109672285Y-97369380D02*
X109672285Y-98226523D01*
X109719904Y-98321761D01*
X109815142Y-98369380D01*
X109910380Y-98369380D01*
X110386571Y-98369380D02*
X110291333Y-98321761D01*
X110243714Y-98274142D01*
X110196095Y-98178904D01*
X110196095Y-97893190D01*
X110243714Y-97797952D01*
X110291333Y-97750333D01*
X110386571Y-97702714D01*
X110529428Y-97702714D01*
X110624666Y-97750333D01*
X110672285Y-97797952D01*
X110719904Y-97893190D01*
X110719904Y-98178904D01*
X110672285Y-98274142D01*
X110624666Y-98321761D01*
X110529428Y-98369380D01*
X110386571Y-98369380D01*
X111148476Y-98369380D02*
X111148476Y-97702714D01*
X111148476Y-97893190D02*
X111196095Y-97797952D01*
X111243714Y-97750333D01*
X111338952Y-97702714D01*
X111434190Y-97702714D01*
D12*
X88368222Y-111040280D02*
X88341766Y-111093190D01*
X88341766Y-111172556D01*
X88368222Y-111251921D01*
X88421132Y-111304831D01*
X88474042Y-111331286D01*
X88579862Y-111357741D01*
X88659227Y-111357741D01*
X88765047Y-111331286D01*
X88817957Y-111304831D01*
X88870867Y-111251921D01*
X88897322Y-111172556D01*
X88897322Y-111119645D01*
X88870867Y-111040280D01*
X88844412Y-111013825D01*
X88659227Y-111013825D01*
X88659227Y-111119645D01*
X88897322Y-110775730D02*
X88341766Y-110775730D01*
X88897322Y-110458269D01*
X88341766Y-110458269D01*
X88897322Y-110193719D02*
X88341766Y-110193719D01*
X88341766Y-110061444D01*
X88368222Y-109982078D01*
X88421132Y-109929168D01*
X88474042Y-109902713D01*
X88579862Y-109876258D01*
X88659227Y-109876258D01*
X88765047Y-109902713D01*
X88817957Y-109929168D01*
X88870867Y-109982078D01*
X88897322Y-110061444D01*
X88897322Y-110193719D01*
D14*
X116844253Y-91357356D02*
X116844253Y-90978568D01*
X116934440Y-90978568D01*
X116988553Y-90996606D01*
X117024628Y-91032681D01*
X117042666Y-91068756D01*
X117060703Y-91140906D01*
X117060703Y-91195018D01*
X117042666Y-91267168D01*
X117024628Y-91303243D01*
X116988553Y-91339318D01*
X116934440Y-91357356D01*
X116844253Y-91357356D01*
X117277153Y-91357356D02*
X117241078Y-91339318D01*
X117223041Y-91321281D01*
X117205003Y-91285206D01*
X117205003Y-91176981D01*
X117223041Y-91140906D01*
X117241078Y-91122868D01*
X117277153Y-91104831D01*
X117331266Y-91104831D01*
X117367341Y-91122868D01*
X117385378Y-91140906D01*
X117403416Y-91176981D01*
X117403416Y-91285206D01*
X117385378Y-91321281D01*
X117367341Y-91339318D01*
X117331266Y-91357356D01*
X117277153Y-91357356D01*
X117854354Y-91357356D02*
X117854354Y-90978568D01*
X118070804Y-91357356D01*
X118070804Y-90978568D01*
X118305292Y-91357356D02*
X118269217Y-91339318D01*
X118251180Y-91321281D01*
X118233142Y-91285206D01*
X118233142Y-91176981D01*
X118251180Y-91140906D01*
X118269217Y-91122868D01*
X118305292Y-91104831D01*
X118359405Y-91104831D01*
X118395480Y-91122868D01*
X118413517Y-91140906D01*
X118431555Y-91176981D01*
X118431555Y-91285206D01*
X118413517Y-91321281D01*
X118395480Y-91339318D01*
X118359405Y-91357356D01*
X118305292Y-91357356D01*
X118539780Y-91104831D02*
X118684080Y-91104831D01*
X118593893Y-90978568D02*
X118593893Y-91303243D01*
X118611930Y-91339318D01*
X118648005Y-91357356D01*
X118684080Y-91357356D01*
X119098943Y-91357356D02*
X119098943Y-90978568D01*
X119243243Y-90978568D01*
X119279318Y-90996606D01*
X119297356Y-91014643D01*
X119315394Y-91050718D01*
X119315394Y-91104831D01*
X119297356Y-91140906D01*
X119279318Y-91158943D01*
X119243243Y-91176981D01*
X119098943Y-91176981D01*
X119531844Y-91357356D02*
X119495769Y-91339318D01*
X119477731Y-91321281D01*
X119459694Y-91285206D01*
X119459694Y-91176981D01*
X119477731Y-91140906D01*
X119495769Y-91122868D01*
X119531844Y-91104831D01*
X119585956Y-91104831D01*
X119622031Y-91122868D01*
X119640069Y-91140906D01*
X119658106Y-91176981D01*
X119658106Y-91285206D01*
X119640069Y-91321281D01*
X119622031Y-91339318D01*
X119585956Y-91357356D01*
X119531844Y-91357356D01*
X119820444Y-91104831D02*
X119820444Y-91483619D01*
X119820444Y-91122868D02*
X119856519Y-91104831D01*
X119928669Y-91104831D01*
X119964744Y-91122868D01*
X119982782Y-91140906D01*
X120000819Y-91176981D01*
X120000819Y-91285206D01*
X119982782Y-91321281D01*
X119964744Y-91339318D01*
X119928669Y-91357356D01*
X119856519Y-91357356D01*
X119820444Y-91339318D01*
X120325495Y-91104831D02*
X120325495Y-91357356D01*
X120163157Y-91104831D02*
X120163157Y-91303243D01*
X120181195Y-91339318D01*
X120217270Y-91357356D01*
X120271382Y-91357356D01*
X120307457Y-91339318D01*
X120325495Y-91321281D01*
X120559983Y-91357356D02*
X120523908Y-91339318D01*
X120505870Y-91303243D01*
X120505870Y-90978568D01*
X120866621Y-91357356D02*
X120866621Y-91158943D01*
X120848583Y-91122868D01*
X120812508Y-91104831D01*
X120740358Y-91104831D01*
X120704283Y-91122868D01*
X120866621Y-91339318D02*
X120830546Y-91357356D01*
X120740358Y-91357356D01*
X120704283Y-91339318D01*
X120686245Y-91303243D01*
X120686245Y-91267168D01*
X120704283Y-91231093D01*
X120740358Y-91213056D01*
X120830546Y-91213056D01*
X120866621Y-91195018D01*
X120992883Y-91104831D02*
X121137183Y-91104831D01*
X121046996Y-90978568D02*
X121046996Y-91303243D01*
X121065033Y-91339318D01*
X121101108Y-91357356D01*
X121137183Y-91357356D01*
X121407746Y-91339318D02*
X121371671Y-91357356D01*
X121299521Y-91357356D01*
X121263446Y-91339318D01*
X121245409Y-91303243D01*
X121245409Y-91158943D01*
X121263446Y-91122868D01*
X121299521Y-91104831D01*
X121371671Y-91104831D01*
X121407746Y-91122868D01*
X121425784Y-91158943D01*
X121425784Y-91195018D01*
X121245409Y-91231093D01*
D15*
X98155142Y-100405380D02*
X98226571Y-100429190D01*
X98345619Y-100429190D01*
X98393238Y-100405380D01*
X98417047Y-100381571D01*
X98440857Y-100333952D01*
X98440857Y-100286333D01*
X98417047Y-100238714D01*
X98393238Y-100214904D01*
X98345619Y-100191095D01*
X98250380Y-100167285D01*
X98202761Y-100143476D01*
X98178952Y-100119666D01*
X98155142Y-100072047D01*
X98155142Y-100024428D01*
X98178952Y-99976809D01*
X98202761Y-99953000D01*
X98250380Y-99929190D01*
X98369428Y-99929190D01*
X98440857Y-99953000D01*
D16*
X120046285Y-121084571D02*
X120617714Y-121084571D01*
D11*
X91146571Y-115031571D02*
X91289428Y-115079190D01*
X91337047Y-115126809D01*
X91384666Y-115222047D01*
X91384666Y-115364904D01*
X91337047Y-115460142D01*
X91289428Y-115507761D01*
X91194190Y-115555380D01*
X90813238Y-115555380D01*
X90813238Y-114555380D01*
X91146571Y-114555380D01*
X91241809Y-114603000D01*
X91289428Y-114650619D01*
X91337047Y-114745857D01*
X91337047Y-114841095D01*
X91289428Y-114936333D01*
X91241809Y-114983952D01*
X91146571Y-115031571D01*
X90813238Y-115031571D01*
X92241809Y-115555380D02*
X92241809Y-115031571D01*
X92194190Y-114936333D01*
X92098952Y-114888714D01*
X91908476Y-114888714D01*
X91813238Y-114936333D01*
X92241809Y-115507761D02*
X92146571Y-115555380D01*
X91908476Y-115555380D01*
X91813238Y-115507761D01*
X91765619Y-115412523D01*
X91765619Y-115317285D01*
X91813238Y-115222047D01*
X91908476Y-115174428D01*
X92146571Y-115174428D01*
X92241809Y-115126809D01*
X92575142Y-114888714D02*
X92956095Y-114888714D01*
X92718000Y-114555380D02*
X92718000Y-115412523D01*
X92765619Y-115507761D01*
X92860857Y-115555380D01*
X92956095Y-115555380D01*
X93146571Y-114888714D02*
X93527523Y-114888714D01*
X93289428Y-114555380D02*
X93289428Y-115412523D01*
X93337047Y-115507761D01*
X93432285Y-115555380D01*
X93527523Y-115555380D01*
X94241809Y-115507761D02*
X94146571Y-115555380D01*
X93956095Y-115555380D01*
X93860857Y-115507761D01*
X93813238Y-115412523D01*
X93813238Y-115031571D01*
X93860857Y-114936333D01*
X93956095Y-114888714D01*
X94146571Y-114888714D01*
X94241809Y-114936333D01*
X94289428Y-115031571D01*
X94289428Y-115126809D01*
X93813238Y-115222047D01*
X94718000Y-115555380D02*
X94718000Y-114888714D01*
X94718000Y-115079190D02*
X94765619Y-114983952D01*
X94813238Y-114936333D01*
X94908476Y-114888714D01*
X95003714Y-114888714D01*
X95241809Y-114888714D02*
X95479904Y-115555380D01*
X95718000Y-114888714D02*
X95479904Y-115555380D01*
X95384666Y-115793476D01*
X95337047Y-115841095D01*
X95241809Y-115888714D01*
X91337047Y-117165380D02*
X91337047Y-116165380D01*
X91813238Y-116498714D02*
X91813238Y-117165380D01*
X91813238Y-116593952D02*
X91860857Y-116546333D01*
X91956095Y-116498714D01*
X92098952Y-116498714D01*
X92194190Y-116546333D01*
X92241809Y-116641571D01*
X92241809Y-117165380D01*
X92718000Y-116498714D02*
X92718000Y-117498714D01*
X92718000Y-116546333D02*
X92813238Y-116498714D01*
X93003714Y-116498714D01*
X93098952Y-116546333D01*
X93146571Y-116593952D01*
X93194190Y-116689190D01*
X93194190Y-116974904D01*
X93146571Y-117070142D01*
X93098952Y-117117761D01*
X93003714Y-117165380D01*
X92813238Y-117165380D01*
X92718000Y-117117761D01*
X94051333Y-116498714D02*
X94051333Y-117165380D01*
X93622761Y-116498714D02*
X93622761Y-117022523D01*
X93670380Y-117117761D01*
X93765619Y-117165380D01*
X93908476Y-117165380D01*
X94003714Y-117117761D01*
X94051333Y-117070142D01*
X94384666Y-116498714D02*
X94765619Y-116498714D01*
X94527523Y-116165380D02*
X94527523Y-117022523D01*
X94575142Y-117117761D01*
X94670380Y-117165380D01*
X94765619Y-117165380D01*
X95098952Y-117070142D02*
X95146571Y-117117761D01*
X95098952Y-117165380D01*
X95051333Y-117117761D01*
X95098952Y-117070142D01*
X95098952Y-117165380D01*
X95098952Y-116546333D02*
X95146571Y-116593952D01*
X95098952Y-116641571D01*
X95051333Y-116593952D01*
X95098952Y-116546333D01*
X95098952Y-116641571D01*
X90551333Y-118775380D02*
X89979904Y-118775380D01*
X90265619Y-118775380D02*
X90265619Y-117775380D01*
X90170380Y-117918238D01*
X90075142Y-118013476D01*
X89979904Y-118061095D01*
X90979904Y-118680142D02*
X91027523Y-118727761D01*
X90979904Y-118775380D01*
X90932285Y-118727761D01*
X90979904Y-118680142D01*
X90979904Y-118775380D01*
X91598952Y-118203952D02*
X91503714Y-118156333D01*
X91456095Y-118108714D01*
X91408476Y-118013476D01*
X91408476Y-117965857D01*
X91456095Y-117870619D01*
X91503714Y-117823000D01*
X91598952Y-117775380D01*
X91789428Y-117775380D01*
X91884666Y-117823000D01*
X91932285Y-117870619D01*
X91979904Y-117965857D01*
X91979904Y-118013476D01*
X91932285Y-118108714D01*
X91884666Y-118156333D01*
X91789428Y-118203952D01*
X91598952Y-118203952D01*
X91503714Y-118251571D01*
X91456095Y-118299190D01*
X91408476Y-118394428D01*
X91408476Y-118584904D01*
X91456095Y-118680142D01*
X91503714Y-118727761D01*
X91598952Y-118775380D01*
X91789428Y-118775380D01*
X91884666Y-118727761D01*
X91932285Y-118680142D01*
X91979904Y-118584904D01*
X91979904Y-118394428D01*
X91932285Y-118299190D01*
X91884666Y-118251571D01*
X91789428Y-118203952D01*
X92408476Y-118394428D02*
X93170380Y-118394428D01*
X94122761Y-117775380D02*
X93646571Y-117775380D01*
X93598952Y-118251571D01*
X93646571Y-118203952D01*
X93741809Y-118156333D01*
X93979904Y-118156333D01*
X94075142Y-118203952D01*
X94122761Y-118251571D01*
X94170380Y-118346809D01*
X94170380Y-118584904D01*
X94122761Y-118680142D01*
X94075142Y-118727761D01*
X93979904Y-118775380D01*
X93741809Y-118775380D01*
X93646571Y-118727761D01*
X93598952Y-118680142D01*
X94598952Y-118680142D02*
X94646571Y-118727761D01*
X94598952Y-118775380D01*
X94551333Y-118727761D01*
X94598952Y-118680142D01*
X94598952Y-118775380D01*
X95551333Y-117775380D02*
X95075142Y-117775380D01*
X95027523Y-118251571D01*
X95075142Y-118203952D01*
X95170380Y-118156333D01*
X95408476Y-118156333D01*
X95503714Y-118203952D01*
X95551333Y-118251571D01*
X95598952Y-118346809D01*
X95598952Y-118584904D01*
X95551333Y-118680142D01*
X95503714Y-118727761D01*
X95408476Y-118775380D01*
X95170380Y-118775380D01*
X95075142Y-118727761D01*
X95027523Y-118680142D01*
X95884666Y-117775380D02*
X96218000Y-118775380D01*
X96551333Y-117775380D01*
D12*
X122023222Y-103674280D02*
X121996766Y-103727190D01*
X121996766Y-103806556D01*
X122023222Y-103885921D01*
X122076132Y-103938831D01*
X122129042Y-103965286D01*
X122234862Y-103991741D01*
X122314227Y-103991741D01*
X122420047Y-103965286D01*
X122472957Y-103938831D01*
X122525867Y-103885921D01*
X122552322Y-103806556D01*
X122552322Y-103753645D01*
X122525867Y-103674280D01*
X122499412Y-103647825D01*
X122314227Y-103647825D01*
X122314227Y-103753645D01*
X122552322Y-103409730D02*
X121996766Y-103409730D01*
X122552322Y-103092269D01*
X121996766Y-103092269D01*
X122552322Y-102827719D02*
X121996766Y-102827719D01*
X121996766Y-102695444D01*
X122023222Y-102616078D01*
X122076132Y-102563168D01*
X122129042Y-102536713D01*
X122234862Y-102510258D01*
X122314227Y-102510258D01*
X122420047Y-102536713D01*
X122472957Y-102563168D01*
X122525867Y-102616078D01*
X122552322Y-102695444D01*
X122552322Y-102827719D01*
D17*
X89606952Y-91230380D02*
X89606952Y-92039904D01*
X89654571Y-92135142D01*
X89702190Y-92182761D01*
X89797428Y-92230380D01*
X89987904Y-92230380D01*
X90083142Y-92182761D01*
X90130761Y-92135142D01*
X90178380Y-92039904D01*
X90178380Y-91230380D01*
X90606952Y-92182761D02*
X90749809Y-92230380D01*
X90987904Y-92230380D01*
X91083142Y-92182761D01*
X91130761Y-92135142D01*
X91178380Y-92039904D01*
X91178380Y-91944666D01*
X91130761Y-91849428D01*
X91083142Y-91801809D01*
X90987904Y-91754190D01*
X90797428Y-91706571D01*
X90702190Y-91658952D01*
X90654571Y-91611333D01*
X90606952Y-91516095D01*
X90606952Y-91420857D01*
X90654571Y-91325619D01*
X90702190Y-91278000D01*
X90797428Y-91230380D01*
X91035523Y-91230380D01*
X91178380Y-91278000D01*
X91940285Y-91706571D02*
X92083142Y-91754190D01*
X92130761Y-91801809D01*
X92178380Y-91897047D01*
X92178380Y-92039904D01*
X92130761Y-92135142D01*
X92083142Y-92182761D01*
X91987904Y-92230380D01*
X91606952Y-92230380D01*
X91606952Y-91230380D01*
X91940285Y-91230380D01*
X92035523Y-91278000D01*
X92083142Y-91325619D01*
X92130761Y-91420857D01*
X92130761Y-91516095D01*
X92083142Y-91611333D01*
X92035523Y-91658952D01*
X91940285Y-91706571D01*
X91606952Y-91706571D01*
X93702190Y-91706571D02*
X93845047Y-91754190D01*
X93892666Y-91801809D01*
X93940285Y-91897047D01*
X93940285Y-92039904D01*
X93892666Y-92135142D01*
X93845047Y-92182761D01*
X93749809Y-92230380D01*
X93368857Y-92230380D01*
X93368857Y-91230380D01*
X93702190Y-91230380D01*
X93797428Y-91278000D01*
X93845047Y-91325619D01*
X93892666Y-91420857D01*
X93892666Y-91516095D01*
X93845047Y-91611333D01*
X93797428Y-91658952D01*
X93702190Y-91706571D01*
X93368857Y-91706571D01*
X94511714Y-92230380D02*
X94416476Y-92182761D01*
X94368857Y-92135142D01*
X94321238Y-92039904D01*
X94321238Y-91754190D01*
X94368857Y-91658952D01*
X94416476Y-91611333D01*
X94511714Y-91563714D01*
X94654571Y-91563714D01*
X94749809Y-91611333D01*
X94797428Y-91658952D01*
X94845047Y-91754190D01*
X94845047Y-92039904D01*
X94797428Y-92135142D01*
X94749809Y-92182761D01*
X94654571Y-92230380D01*
X94511714Y-92230380D01*
X95416476Y-92230380D02*
X95321238Y-92182761D01*
X95273619Y-92135142D01*
X95226000Y-92039904D01*
X95226000Y-91754190D01*
X95273619Y-91658952D01*
X95321238Y-91611333D01*
X95416476Y-91563714D01*
X95559333Y-91563714D01*
X95654571Y-91611333D01*
X95702190Y-91658952D01*
X95749809Y-91754190D01*
X95749809Y-92039904D01*
X95702190Y-92135142D01*
X95654571Y-92182761D01*
X95559333Y-92230380D01*
X95416476Y-92230380D01*
X96130761Y-92182761D02*
X96226000Y-92230380D01*
X96416476Y-92230380D01*
X96511714Y-92182761D01*
X96559333Y-92087523D01*
X96559333Y-92039904D01*
X96511714Y-91944666D01*
X96416476Y-91897047D01*
X96273619Y-91897047D01*
X96178380Y-91849428D01*
X96130761Y-91754190D01*
X96130761Y-91706571D01*
X96178380Y-91611333D01*
X96273619Y-91563714D01*
X96416476Y-91563714D01*
X96511714Y-91611333D01*
X96845047Y-91563714D02*
X97226000Y-91563714D01*
X96987904Y-91230380D02*
X96987904Y-92087523D01*
X97035523Y-92182761D01*
X97130761Y-92230380D01*
X97226000Y-92230380D01*
X97464095Y-91563714D02*
X97702190Y-92230380D01*
X97940285Y-91563714D02*
X97702190Y-92230380D01*
X97606952Y-92468476D01*
X97559333Y-92516095D01*
X97464095Y-92563714D01*
X92202190Y-92840380D02*
X92535523Y-93840380D01*
X92868857Y-92840380D01*
X93726000Y-93840380D02*
X93154571Y-93840380D01*
X93440285Y-93840380D02*
X93440285Y-92840380D01*
X93345047Y-92983238D01*
X93249809Y-93078476D01*
X93154571Y-93126095D01*
X94154571Y-93745142D02*
X94202190Y-93792761D01*
X94154571Y-93840380D01*
X94106952Y-93792761D01*
X94154571Y-93745142D01*
X94154571Y-93840380D01*
X95154571Y-93840380D02*
X94583142Y-93840380D01*
X94868857Y-93840380D02*
X94868857Y-92840380D01*
X94773619Y-92983238D01*
X94678380Y-93078476D01*
X94583142Y-93126095D01*
D15*
X96396952Y-99953000D02*
X96349333Y-99929190D01*
X96277904Y-99929190D01*
X96206476Y-99953000D01*
X96158857Y-100000619D01*
X96135047Y-100048238D01*
X96111238Y-100143476D01*
X96111238Y-100214904D01*
X96135047Y-100310142D01*
X96158857Y-100357761D01*
X96206476Y-100405380D01*
X96277904Y-100429190D01*
X96325523Y-100429190D01*
X96396952Y-100405380D01*
X96420761Y-100381571D01*
X96420761Y-100214904D01*
X96325523Y-100214904D01*
X97151047Y-100429190D02*
X97151047Y-99929190D01*
X97270095Y-99929190D01*
X97341523Y-99953000D01*
X97389142Y-100000619D01*
X97412952Y-100048238D01*
X97436761Y-100143476D01*
X97436761Y-100214904D01*
X97412952Y-100310142D01*
X97389142Y-100357761D01*
X97341523Y-100405380D01*
X97270095Y-100429190D01*
X97151047Y-100429190D01*
D12*
X130304913Y-90627766D02*
X130040363Y-90627766D01*
X130013908Y-90892317D01*
X130040363Y-90865862D01*
X130093273Y-90839407D01*
X130225548Y-90839407D01*
X130278458Y-90865862D01*
X130304913Y-90892317D01*
X130331368Y-90945227D01*
X130331368Y-91077502D01*
X130304913Y-91130412D01*
X130278458Y-91156867D01*
X130225548Y-91183322D01*
X130093273Y-91183322D01*
X130040363Y-91156867D01*
X130013908Y-91130412D01*
X130490098Y-90627766D02*
X130675284Y-91183322D01*
X130860469Y-90627766D01*
X131468935Y-91183322D02*
X131468935Y-90627766D01*
X131733486Y-90812952D02*
X131733486Y-91183322D01*
X131733486Y-90865862D02*
X131759941Y-90839407D01*
X131812851Y-90812952D01*
X131892216Y-90812952D01*
X131945126Y-90839407D01*
X131971581Y-90892317D01*
X131971581Y-91183322D01*
X132474227Y-91183322D02*
X132474227Y-90627766D01*
X132474227Y-91156867D02*
X132421317Y-91183322D01*
X132315497Y-91183322D01*
X132262587Y-91156867D01*
X132236132Y-91130412D01*
X132209677Y-91077502D01*
X132209677Y-90918772D01*
X132236132Y-90865862D01*
X132262587Y-90839407D01*
X132315497Y-90812952D01*
X132421317Y-90812952D01*
X132474227Y-90839407D01*
X132738778Y-91183322D02*
X132738778Y-90812952D01*
X132738778Y-90627766D02*
X132712322Y-90654222D01*
X132738778Y-90680677D01*
X132765233Y-90654222D01*
X132738778Y-90627766D01*
X132738778Y-90680677D01*
X133241423Y-91156867D02*
X133188513Y-91183322D01*
X133082693Y-91183322D01*
X133029783Y-91156867D01*
X133003328Y-91130412D01*
X132976873Y-91077502D01*
X132976873Y-90918772D01*
X133003328Y-90865862D01*
X133029783Y-90839407D01*
X133082693Y-90812952D01*
X133188513Y-90812952D01*
X133241423Y-90839407D01*
X133717614Y-91183322D02*
X133717614Y-90892317D01*
X133691159Y-90839407D01*
X133638249Y-90812952D01*
X133532429Y-90812952D01*
X133479519Y-90839407D01*
X133717614Y-91156867D02*
X133664704Y-91183322D01*
X133532429Y-91183322D01*
X133479519Y-91156867D01*
X133453064Y-91103957D01*
X133453064Y-91051047D01*
X133479519Y-90998137D01*
X133532429Y-90971682D01*
X133664704Y-90971682D01*
X133717614Y-90945227D01*
X133902800Y-90812952D02*
X134114440Y-90812952D01*
X133982165Y-90627766D02*
X133982165Y-91103957D01*
X134008620Y-91156867D01*
X134061530Y-91183322D01*
X134114440Y-91183322D01*
X134378990Y-91183322D02*
X134326080Y-91156867D01*
X134299625Y-91130412D01*
X134273170Y-91077502D01*
X134273170Y-90918772D01*
X134299625Y-90865862D01*
X134326080Y-90839407D01*
X134378990Y-90812952D01*
X134458356Y-90812952D01*
X134511266Y-90839407D01*
X134537721Y-90865862D01*
X134564176Y-90918772D01*
X134564176Y-91077502D01*
X134537721Y-91130412D01*
X134511266Y-91156867D01*
X134458356Y-91183322D01*
X134378990Y-91183322D01*
X134802271Y-91183322D02*
X134802271Y-90812952D01*
X134802271Y-90918772D02*
X134828726Y-90865862D01*
X134855181Y-90839407D01*
X134908091Y-90812952D01*
X134961002Y-90812952D01*
X121366963Y-108301710D02*
X121340508Y-108328165D01*
X121261143Y-108381075D01*
X121208233Y-108407530D01*
X121128867Y-108433985D01*
X120996592Y-108460440D01*
X120890772Y-108460440D01*
X120758497Y-108433985D01*
X120679132Y-108407530D01*
X120626222Y-108381075D01*
X120546856Y-108328165D01*
X120520401Y-108301710D01*
X120784952Y-108090069D02*
X121261143Y-108090069D01*
X121314053Y-108116524D01*
X121340508Y-108169434D01*
X121340508Y-108195890D01*
X120599766Y-108090069D02*
X120626222Y-108116524D01*
X120652677Y-108090069D01*
X120626222Y-108063614D01*
X120599766Y-108090069D01*
X120652677Y-108090069D01*
X120784952Y-107587423D02*
X121155322Y-107587423D01*
X120784952Y-107825519D02*
X121075957Y-107825519D01*
X121128867Y-107799064D01*
X121155322Y-107746154D01*
X121155322Y-107666789D01*
X121128867Y-107613878D01*
X121102412Y-107587423D01*
X121155322Y-107322873D02*
X120784952Y-107322873D01*
X120837862Y-107322873D02*
X120811407Y-107296418D01*
X120784952Y-107243508D01*
X120784952Y-107164143D01*
X120811407Y-107111233D01*
X120864317Y-107084778D01*
X121155322Y-107084778D01*
X120864317Y-107084778D02*
X120811407Y-107058322D01*
X120784952Y-107005412D01*
X120784952Y-106926047D01*
X120811407Y-106873137D01*
X120864317Y-106846682D01*
X121155322Y-106846682D01*
X120784952Y-106582132D02*
X121340508Y-106582132D01*
X120811407Y-106582132D02*
X120784952Y-106529222D01*
X120784952Y-106423401D01*
X120811407Y-106370491D01*
X120837862Y-106344036D01*
X120890772Y-106317581D01*
X121049502Y-106317581D01*
X121102412Y-106344036D01*
X121128867Y-106370491D01*
X121155322Y-106423401D01*
X121155322Y-106529222D01*
X121128867Y-106582132D01*
X121128867Y-105867845D02*
X121155322Y-105920755D01*
X121155322Y-106026576D01*
X121128867Y-106079486D01*
X121075957Y-106105941D01*
X120864317Y-106105941D01*
X120811407Y-106079486D01*
X120784952Y-106026576D01*
X120784952Y-105920755D01*
X120811407Y-105867845D01*
X120864317Y-105841390D01*
X120917227Y-105841390D01*
X120970137Y-106105941D01*
X121155322Y-105603295D02*
X120784952Y-105603295D01*
X120890772Y-105603295D02*
X120837862Y-105576840D01*
X120811407Y-105550385D01*
X120784952Y-105497475D01*
X120784952Y-105444565D01*
X121366963Y-105312289D02*
X121340508Y-105285834D01*
X121261143Y-105232924D01*
X121208233Y-105206469D01*
X121128867Y-105180014D01*
X120996592Y-105153559D01*
X120890772Y-105153559D01*
X120758497Y-105180014D01*
X120679132Y-105206469D01*
X120626222Y-105232924D01*
X120546856Y-105285834D01*
X120520401Y-105312289D01*
X99141963Y-110333710D02*
X99115508Y-110360165D01*
X99036143Y-110413075D01*
X98983233Y-110439530D01*
X98903867Y-110465985D01*
X98771592Y-110492440D01*
X98665772Y-110492440D01*
X98533497Y-110465985D01*
X98454132Y-110439530D01*
X98401222Y-110413075D01*
X98321856Y-110360165D01*
X98295401Y-110333710D01*
X98559952Y-110122069D02*
X99036143Y-110122069D01*
X99089053Y-110148524D01*
X99115508Y-110201434D01*
X99115508Y-110227890D01*
X98374766Y-110122069D02*
X98401222Y-110148524D01*
X98427677Y-110122069D01*
X98401222Y-110095614D01*
X98374766Y-110122069D01*
X98427677Y-110122069D01*
X98559952Y-109619423D02*
X98930322Y-109619423D01*
X98559952Y-109857519D02*
X98850957Y-109857519D01*
X98903867Y-109831064D01*
X98930322Y-109778154D01*
X98930322Y-109698789D01*
X98903867Y-109645878D01*
X98877412Y-109619423D01*
X98930322Y-109354873D02*
X98559952Y-109354873D01*
X98612862Y-109354873D02*
X98586407Y-109328418D01*
X98559952Y-109275508D01*
X98559952Y-109196143D01*
X98586407Y-109143233D01*
X98639317Y-109116778D01*
X98930322Y-109116778D01*
X98639317Y-109116778D02*
X98586407Y-109090322D01*
X98559952Y-109037412D01*
X98559952Y-108958047D01*
X98586407Y-108905137D01*
X98639317Y-108878682D01*
X98930322Y-108878682D01*
X98559952Y-108614132D02*
X99115508Y-108614132D01*
X98586407Y-108614132D02*
X98559952Y-108561222D01*
X98559952Y-108455401D01*
X98586407Y-108402491D01*
X98612862Y-108376036D01*
X98665772Y-108349581D01*
X98824502Y-108349581D01*
X98877412Y-108376036D01*
X98903867Y-108402491D01*
X98930322Y-108455401D01*
X98930322Y-108561222D01*
X98903867Y-108614132D01*
X98903867Y-107899845D02*
X98930322Y-107952755D01*
X98930322Y-108058576D01*
X98903867Y-108111486D01*
X98850957Y-108137941D01*
X98639317Y-108137941D01*
X98586407Y-108111486D01*
X98559952Y-108058576D01*
X98559952Y-107952755D01*
X98586407Y-107899845D01*
X98639317Y-107873390D01*
X98692227Y-107873390D01*
X98745137Y-108137941D01*
X98930322Y-107635295D02*
X98559952Y-107635295D01*
X98665772Y-107635295D02*
X98612862Y-107608840D01*
X98586407Y-107582385D01*
X98559952Y-107529475D01*
X98559952Y-107476565D01*
X99141963Y-107344289D02*
X99115508Y-107317834D01*
X99036143Y-107264924D01*
X98983233Y-107238469D01*
X98903867Y-107212014D01*
X98771592Y-107185559D01*
X98665772Y-107185559D01*
X98533497Y-107212014D01*
X98454132Y-107238469D01*
X98401222Y-107264924D01*
X98321856Y-107317834D01*
X98295401Y-107344289D01*
D18*
X100891068Y-110952097D02*
X100891068Y-110211356D01*
X101243802Y-110458269D02*
X101243802Y-110952097D01*
X101243802Y-110528816D02*
X101279075Y-110493543D01*
X101349622Y-110458269D01*
X101455442Y-110458269D01*
X101525989Y-110493543D01*
X101561262Y-110564089D01*
X101561262Y-110952097D01*
X101913996Y-110458269D02*
X101913996Y-111199010D01*
X101913996Y-110493543D02*
X101984543Y-110458269D01*
X102125636Y-110458269D01*
X102196183Y-110493543D01*
X102231456Y-110528816D01*
X102266730Y-110599363D01*
X102266730Y-110811003D01*
X102231456Y-110881550D01*
X102196183Y-110916823D01*
X102125636Y-110952097D01*
X101984543Y-110952097D01*
X101913996Y-110916823D01*
X102901651Y-110458269D02*
X102901651Y-110952097D01*
X102584190Y-110458269D02*
X102584190Y-110846276D01*
X102619464Y-110916823D01*
X102690010Y-110952097D01*
X102795830Y-110952097D01*
X102866377Y-110916823D01*
X102901651Y-110881550D01*
X103148564Y-110458269D02*
X103430751Y-110458269D01*
X103254384Y-110211356D02*
X103254384Y-110846276D01*
X103289658Y-110916823D01*
X103360205Y-110952097D01*
X103430751Y-110952097D01*
D12*
X120726766Y-110341820D02*
X120726766Y-110606370D01*
X120991317Y-110632825D01*
X120964862Y-110606370D01*
X120938407Y-110553460D01*
X120938407Y-110421185D01*
X120964862Y-110368275D01*
X120991317Y-110341820D01*
X121044227Y-110315365D01*
X121176502Y-110315365D01*
X121229412Y-110341820D01*
X121255867Y-110368275D01*
X121282322Y-110421185D01*
X121282322Y-110553460D01*
X121255867Y-110606370D01*
X121229412Y-110632825D01*
X120726766Y-110156634D02*
X121282322Y-109971449D01*
X120726766Y-109786264D01*
D13*
X123944836Y-119879968D02*
X123944836Y-118213300D01*
X124738487Y-119006952D02*
X125294043Y-119006952D01*
X125532139Y-119879968D02*
X124738487Y-119879968D01*
X124738487Y-118213300D01*
X125532139Y-118213300D01*
X126246425Y-119006952D02*
X126801981Y-119006952D01*
X127040076Y-119879968D02*
X126246425Y-119879968D01*
X126246425Y-118213300D01*
X127040076Y-118213300D01*
X127754363Y-119006952D02*
X128309919Y-119006952D01*
X128548014Y-119879968D02*
X127754363Y-119879968D01*
X127754363Y-118213300D01*
X128548014Y-118213300D01*
X130532143Y-119879968D02*
X130532143Y-118213300D01*
X130532143Y-119006952D02*
X131484524Y-119006952D01*
X131484524Y-119879968D02*
X131484524Y-118213300D01*
X132595636Y-118213300D02*
X132913097Y-118213300D01*
X133071827Y-118292666D01*
X133230558Y-118451396D01*
X133309923Y-118768856D01*
X133309923Y-119324412D01*
X133230558Y-119641873D01*
X133071827Y-119800603D01*
X132913097Y-119879968D01*
X132595636Y-119879968D01*
X132436906Y-119800603D01*
X132278176Y-119641873D01*
X132198811Y-119324412D01*
X132198811Y-118768856D01*
X132278176Y-118451396D01*
X132436906Y-118292666D01*
X132595636Y-118213300D01*
X134024209Y-119879968D02*
X134024209Y-118213300D01*
X134659130Y-118213300D01*
X134817860Y-118292666D01*
X134897226Y-118372031D01*
X134976591Y-118530761D01*
X134976591Y-118768856D01*
X134897226Y-118927587D01*
X134817860Y-119006952D01*
X134659130Y-119086317D01*
X134024209Y-119086317D01*
X135690877Y-119006952D02*
X136246433Y-119006952D01*
X136484528Y-119879968D02*
X135690877Y-119879968D01*
X135690877Y-118213300D01*
X136484528Y-118213300D01*
D11*
X128500476Y-105581380D02*
X128500476Y-106390904D01*
X128548095Y-106486142D01*
X128595714Y-106533761D01*
X128690952Y-106581380D01*
X128881428Y-106581380D01*
X128976666Y-106533761D01*
X129024285Y-106486142D01*
X129071904Y-106390904D01*
X129071904Y-105581380D01*
X129500476Y-106533761D02*
X129643333Y-106581380D01*
X129881428Y-106581380D01*
X129976666Y-106533761D01*
X130024285Y-106486142D01*
X130071904Y-106390904D01*
X130071904Y-106295666D01*
X130024285Y-106200428D01*
X129976666Y-106152809D01*
X129881428Y-106105190D01*
X129690952Y-106057571D01*
X129595714Y-106009952D01*
X129548095Y-105962333D01*
X129500476Y-105867095D01*
X129500476Y-105771857D01*
X129548095Y-105676619D01*
X129595714Y-105629000D01*
X129690952Y-105581380D01*
X129929047Y-105581380D01*
X130071904Y-105629000D01*
X130833809Y-106057571D02*
X130976666Y-106105190D01*
X131024285Y-106152809D01*
X131071904Y-106248047D01*
X131071904Y-106390904D01*
X131024285Y-106486142D01*
X130976666Y-106533761D01*
X130881428Y-106581380D01*
X130500476Y-106581380D01*
X130500476Y-105581380D01*
X130833809Y-105581380D01*
X130929047Y-105629000D01*
X130976666Y-105676619D01*
X131024285Y-105771857D01*
X131024285Y-105867095D01*
X130976666Y-105962333D01*
X130929047Y-106009952D01*
X130833809Y-106057571D01*
X130500476Y-106057571D01*
X131500476Y-106200428D02*
X132262380Y-106200428D01*
X132690952Y-106295666D02*
X133167142Y-106295666D01*
X132595714Y-106581380D02*
X132929047Y-105581380D01*
X133262380Y-106581380D01*
X128786190Y-107191380D02*
X128976666Y-107191380D01*
X129071904Y-107239000D01*
X129167142Y-107334238D01*
X129214761Y-107524714D01*
X129214761Y-107858047D01*
X129167142Y-108048523D01*
X129071904Y-108143761D01*
X128976666Y-108191380D01*
X128786190Y-108191380D01*
X128690952Y-108143761D01*
X128595714Y-108048523D01*
X128548095Y-107858047D01*
X128548095Y-107524714D01*
X128595714Y-107334238D01*
X128690952Y-107239000D01*
X128786190Y-107191380D01*
X130071904Y-107524714D02*
X130071904Y-108191380D01*
X129643333Y-107524714D02*
X129643333Y-108048523D01*
X129690952Y-108143761D01*
X129786190Y-108191380D01*
X129929047Y-108191380D01*
X130024285Y-108143761D01*
X130071904Y-108096142D01*
X130405238Y-107524714D02*
X130786190Y-107524714D01*
X130548095Y-107191380D02*
X130548095Y-108048523D01*
X130595714Y-108143761D01*
X130690952Y-108191380D01*
X130786190Y-108191380D01*
X131119523Y-107524714D02*
X131119523Y-108524714D01*
X131119523Y-107572333D02*
X131214761Y-107524714D01*
X131405238Y-107524714D01*
X131500476Y-107572333D01*
X131548095Y-107619952D01*
X131595714Y-107715190D01*
X131595714Y-108000904D01*
X131548095Y-108096142D01*
X131500476Y-108143761D01*
X131405238Y-108191380D01*
X131214761Y-108191380D01*
X131119523Y-108143761D01*
X132452857Y-107524714D02*
X132452857Y-108191380D01*
X132024285Y-107524714D02*
X132024285Y-108048523D01*
X132071904Y-108143761D01*
X132167142Y-108191380D01*
X132310000Y-108191380D01*
X132405238Y-108143761D01*
X132452857Y-108096142D01*
X132786190Y-107524714D02*
X133167142Y-107524714D01*
X132929047Y-107191380D02*
X132929047Y-108048523D01*
X132976666Y-108143761D01*
X133071904Y-108191380D01*
X133167142Y-108191380D01*
%TO.C,U1*%
X108926380Y-106679904D02*
X109735904Y-106679904D01*
X109831142Y-106632285D01*
X109878761Y-106584666D01*
X109926380Y-106489428D01*
X109926380Y-106298952D01*
X109878761Y-106203714D01*
X109831142Y-106156095D01*
X109735904Y-106108476D01*
X108926380Y-106108476D01*
X109926380Y-105108476D02*
X109926380Y-105679904D01*
X109926380Y-105394190D02*
X108926380Y-105394190D01*
X109069238Y-105489428D01*
X109164476Y-105584666D01*
X109212095Y-105679904D01*
%TO.C,R1*%
X97734380Y-112180666D02*
X97258190Y-112514000D01*
X97734380Y-112752095D02*
X96734380Y-112752095D01*
X96734380Y-112371142D01*
X96782000Y-112275904D01*
X96829619Y-112228285D01*
X96924857Y-112180666D01*
X97067714Y-112180666D01*
X97162952Y-112228285D01*
X97210571Y-112275904D01*
X97258190Y-112371142D01*
X97258190Y-112752095D01*
X97734380Y-111228285D02*
X97734380Y-111799714D01*
X97734380Y-111514000D02*
X96734380Y-111514000D01*
X96877238Y-111609238D01*
X96972476Y-111704476D01*
X97020095Y-111799714D01*
%TO.C,C1*%
X105259142Y-120668166D02*
X105306761Y-120715785D01*
X105354380Y-120858642D01*
X105354380Y-120953880D01*
X105306761Y-121096738D01*
X105211523Y-121191976D01*
X105116285Y-121239595D01*
X104925809Y-121287214D01*
X104782952Y-121287214D01*
X104592476Y-121239595D01*
X104497238Y-121191976D01*
X104402000Y-121096738D01*
X104354380Y-120953880D01*
X104354380Y-120858642D01*
X104402000Y-120715785D01*
X104449619Y-120668166D01*
X105354380Y-119715785D02*
X105354380Y-120287214D01*
X105354380Y-120001500D02*
X104354380Y-120001500D01*
X104497238Y-120096738D01*
X104592476Y-120191976D01*
X104640095Y-120287214D01*
%TO.C,Q1*%
X97829619Y-96234238D02*
X97782000Y-96329476D01*
X97686761Y-96424714D01*
X97543904Y-96567571D01*
X97496285Y-96662809D01*
X97496285Y-96758047D01*
X97734380Y-96710428D02*
X97686761Y-96805666D01*
X97591523Y-96900904D01*
X97401047Y-96948523D01*
X97067714Y-96948523D01*
X96877238Y-96900904D01*
X96782000Y-96805666D01*
X96734380Y-96710428D01*
X96734380Y-96519952D01*
X96782000Y-96424714D01*
X96877238Y-96329476D01*
X97067714Y-96281857D01*
X97401047Y-96281857D01*
X97591523Y-96329476D01*
X97686761Y-96424714D01*
X97734380Y-96519952D01*
X97734380Y-96710428D01*
X97734380Y-95329476D02*
X97734380Y-95900904D01*
X97734380Y-95615190D02*
X96734380Y-95615190D01*
X96877238Y-95710428D01*
X96972476Y-95805666D01*
X97020095Y-95900904D01*
%TO.C,C4*%
X114403142Y-117875666D02*
X114450761Y-117923285D01*
X114498380Y-118066142D01*
X114498380Y-118161380D01*
X114450761Y-118304238D01*
X114355523Y-118399476D01*
X114260285Y-118447095D01*
X114069809Y-118494714D01*
X113926952Y-118494714D01*
X113736476Y-118447095D01*
X113641238Y-118399476D01*
X113546000Y-118304238D01*
X113498380Y-118161380D01*
X113498380Y-118066142D01*
X113546000Y-117923285D01*
X113593619Y-117875666D01*
X113831714Y-117018523D02*
X114498380Y-117018523D01*
X113450761Y-117256619D02*
X114165047Y-117494714D01*
X114165047Y-116875666D01*
%TO.C,R7*%
X131770380Y-96917166D02*
X131294190Y-97250500D01*
X131770380Y-97488595D02*
X130770380Y-97488595D01*
X130770380Y-97107642D01*
X130818000Y-97012404D01*
X130865619Y-96964785D01*
X130960857Y-96917166D01*
X131103714Y-96917166D01*
X131198952Y-96964785D01*
X131246571Y-97012404D01*
X131294190Y-97107642D01*
X131294190Y-97488595D01*
X130770380Y-96583833D02*
X130770380Y-95917166D01*
X131770380Y-96345738D01*
%TO.C,R6*%
X118562380Y-101385666D02*
X118086190Y-101719000D01*
X118562380Y-101957095D02*
X117562380Y-101957095D01*
X117562380Y-101576142D01*
X117610000Y-101480904D01*
X117657619Y-101433285D01*
X117752857Y-101385666D01*
X117895714Y-101385666D01*
X117990952Y-101433285D01*
X118038571Y-101480904D01*
X118086190Y-101576142D01*
X118086190Y-101957095D01*
X117562380Y-100528523D02*
X117562380Y-100719000D01*
X117610000Y-100814238D01*
X117657619Y-100861857D01*
X117800476Y-100957095D01*
X117990952Y-101004714D01*
X118371904Y-101004714D01*
X118467142Y-100957095D01*
X118514761Y-100909476D01*
X118562380Y-100814238D01*
X118562380Y-100623761D01*
X118514761Y-100528523D01*
X118467142Y-100480904D01*
X118371904Y-100433285D01*
X118133809Y-100433285D01*
X118038571Y-100480904D01*
X117990952Y-100528523D01*
X117943333Y-100623761D01*
X117943333Y-100814238D01*
X117990952Y-100909476D01*
X118038571Y-100957095D01*
X118133809Y-101004714D01*
%TO.C,R8*%
X124150380Y-96813666D02*
X123674190Y-97147000D01*
X124150380Y-97385095D02*
X123150380Y-97385095D01*
X123150380Y-97004142D01*
X123198000Y-96908904D01*
X123245619Y-96861285D01*
X123340857Y-96813666D01*
X123483714Y-96813666D01*
X123578952Y-96861285D01*
X123626571Y-96908904D01*
X123674190Y-97004142D01*
X123674190Y-97385095D01*
X123578952Y-96242238D02*
X123531333Y-96337476D01*
X123483714Y-96385095D01*
X123388476Y-96432714D01*
X123340857Y-96432714D01*
X123245619Y-96385095D01*
X123198000Y-96337476D01*
X123150380Y-96242238D01*
X123150380Y-96051761D01*
X123198000Y-95956523D01*
X123245619Y-95908904D01*
X123340857Y-95861285D01*
X123388476Y-95861285D01*
X123483714Y-95908904D01*
X123531333Y-95956523D01*
X123578952Y-96051761D01*
X123578952Y-96242238D01*
X123626571Y-96337476D01*
X123674190Y-96385095D01*
X123769428Y-96432714D01*
X123959904Y-96432714D01*
X124055142Y-96385095D01*
X124102761Y-96337476D01*
X124150380Y-96242238D01*
X124150380Y-96051761D01*
X124102761Y-95956523D01*
X124055142Y-95908904D01*
X123959904Y-95861285D01*
X123769428Y-95861285D01*
X123674190Y-95908904D01*
X123626571Y-95956523D01*
X123578952Y-96051761D01*
%TO.C,R3*%
X99766380Y-120689666D02*
X99290190Y-121023000D01*
X99766380Y-121261095D02*
X98766380Y-121261095D01*
X98766380Y-120880142D01*
X98814000Y-120784904D01*
X98861619Y-120737285D01*
X98956857Y-120689666D01*
X99099714Y-120689666D01*
X99194952Y-120737285D01*
X99242571Y-120784904D01*
X99290190Y-120880142D01*
X99290190Y-121261095D01*
X98766380Y-120356333D02*
X98766380Y-119737285D01*
X99147333Y-120070619D01*
X99147333Y-119927761D01*
X99194952Y-119832523D01*
X99242571Y-119784904D01*
X99337809Y-119737285D01*
X99575904Y-119737285D01*
X99671142Y-119784904D01*
X99718761Y-119832523D01*
X99766380Y-119927761D01*
X99766380Y-120213476D01*
X99718761Y-120308714D01*
X99671142Y-120356333D01*
%TO.C,R2*%
X102687380Y-120689666D02*
X102211190Y-121023000D01*
X102687380Y-121261095D02*
X101687380Y-121261095D01*
X101687380Y-120880142D01*
X101735000Y-120784904D01*
X101782619Y-120737285D01*
X101877857Y-120689666D01*
X102020714Y-120689666D01*
X102115952Y-120737285D01*
X102163571Y-120784904D01*
X102211190Y-120880142D01*
X102211190Y-121261095D01*
X101782619Y-120308714D02*
X101735000Y-120261095D01*
X101687380Y-120165857D01*
X101687380Y-119927761D01*
X101735000Y-119832523D01*
X101782619Y-119784904D01*
X101877857Y-119737285D01*
X101973095Y-119737285D01*
X102115952Y-119784904D01*
X102687380Y-120356333D01*
X102687380Y-119737285D01*
%TO.C,R5*%
X118308380Y-96813666D02*
X117832190Y-97147000D01*
X118308380Y-97385095D02*
X117308380Y-97385095D01*
X117308380Y-97004142D01*
X117356000Y-96908904D01*
X117403619Y-96861285D01*
X117498857Y-96813666D01*
X117641714Y-96813666D01*
X117736952Y-96861285D01*
X117784571Y-96908904D01*
X117832190Y-97004142D01*
X117832190Y-97385095D01*
X117308380Y-95908904D02*
X117308380Y-96385095D01*
X117784571Y-96432714D01*
X117736952Y-96385095D01*
X117689333Y-96289857D01*
X117689333Y-96051761D01*
X117736952Y-95956523D01*
X117784571Y-95908904D01*
X117879809Y-95861285D01*
X118117904Y-95861285D01*
X118213142Y-95908904D01*
X118260761Y-95956523D01*
X118308380Y-96051761D01*
X118308380Y-96289857D01*
X118260761Y-96385095D01*
X118213142Y-96432714D01*
D16*
%TO.C,Test Point*%
X99786571Y-111544738D02*
X100143714Y-111544738D01*
X99965142Y-112169738D02*
X99965142Y-111544738D01*
X100590142Y-112139976D02*
X100530619Y-112169738D01*
X100411571Y-112169738D01*
X100352047Y-112139976D01*
X100322285Y-112080452D01*
X100322285Y-111842357D01*
X100352047Y-111782833D01*
X100411571Y-111753071D01*
X100530619Y-111753071D01*
X100590142Y-111782833D01*
X100619904Y-111842357D01*
X100619904Y-111901880D01*
X100322285Y-111961404D01*
X100858000Y-112139976D02*
X100917523Y-112169738D01*
X101036571Y-112169738D01*
X101096095Y-112139976D01*
X101125857Y-112080452D01*
X101125857Y-112050690D01*
X101096095Y-111991166D01*
X101036571Y-111961404D01*
X100947285Y-111961404D01*
X100887761Y-111931642D01*
X100858000Y-111872119D01*
X100858000Y-111842357D01*
X100887761Y-111782833D01*
X100947285Y-111753071D01*
X101036571Y-111753071D01*
X101096095Y-111782833D01*
X101304428Y-111753071D02*
X101542523Y-111753071D01*
X101393714Y-111544738D02*
X101393714Y-112080452D01*
X101423476Y-112139976D01*
X101483000Y-112169738D01*
X101542523Y-112169738D01*
X102227047Y-112169738D02*
X102227047Y-111544738D01*
X102465142Y-111544738D01*
X102524666Y-111574500D01*
X102554428Y-111604261D01*
X102584190Y-111663785D01*
X102584190Y-111753071D01*
X102554428Y-111812595D01*
X102524666Y-111842357D01*
X102465142Y-111872119D01*
X102227047Y-111872119D01*
X102941333Y-112169738D02*
X102881809Y-112139976D01*
X102852047Y-112110214D01*
X102822285Y-112050690D01*
X102822285Y-111872119D01*
X102852047Y-111812595D01*
X102881809Y-111782833D01*
X102941333Y-111753071D01*
X103030619Y-111753071D01*
X103090142Y-111782833D01*
X103119904Y-111812595D01*
X103149666Y-111872119D01*
X103149666Y-112050690D01*
X103119904Y-112110214D01*
X103090142Y-112139976D01*
X103030619Y-112169738D01*
X102941333Y-112169738D01*
X103417523Y-112169738D02*
X103417523Y-111753071D01*
X103417523Y-111544738D02*
X103387761Y-111574500D01*
X103417523Y-111604261D01*
X103447285Y-111574500D01*
X103417523Y-111544738D01*
X103417523Y-111604261D01*
X103715142Y-111753071D02*
X103715142Y-112169738D01*
X103715142Y-111812595D02*
X103744904Y-111782833D01*
X103804428Y-111753071D01*
X103893714Y-111753071D01*
X103953238Y-111782833D01*
X103983000Y-111842357D01*
X103983000Y-112169738D01*
X104191333Y-111753071D02*
X104429428Y-111753071D01*
X104280619Y-111544738D02*
X104280619Y-112080452D01*
X104310380Y-112139976D01*
X104369904Y-112169738D01*
X104429428Y-112169738D01*
D11*
%TO.C,C2*%
X108307142Y-120668166D02*
X108354761Y-120715785D01*
X108402380Y-120858642D01*
X108402380Y-120953880D01*
X108354761Y-121096738D01*
X108259523Y-121191976D01*
X108164285Y-121239595D01*
X107973809Y-121287214D01*
X107830952Y-121287214D01*
X107640476Y-121239595D01*
X107545238Y-121191976D01*
X107450000Y-121096738D01*
X107402380Y-120953880D01*
X107402380Y-120858642D01*
X107450000Y-120715785D01*
X107497619Y-120668166D01*
X107497619Y-120287214D02*
X107450000Y-120239595D01*
X107402380Y-120144357D01*
X107402380Y-119906261D01*
X107450000Y-119811023D01*
X107497619Y-119763404D01*
X107592857Y-119715785D01*
X107688095Y-119715785D01*
X107830952Y-119763404D01*
X108402380Y-120334833D01*
X108402380Y-119715785D01*
%TO.C,R4*%
X120848380Y-96813666D02*
X120372190Y-97147000D01*
X120848380Y-97385095D02*
X119848380Y-97385095D01*
X119848380Y-97004142D01*
X119896000Y-96908904D01*
X119943619Y-96861285D01*
X120038857Y-96813666D01*
X120181714Y-96813666D01*
X120276952Y-96861285D01*
X120324571Y-96908904D01*
X120372190Y-97004142D01*
X120372190Y-97385095D01*
X120181714Y-95956523D02*
X120848380Y-95956523D01*
X119800761Y-96194619D02*
X120515047Y-96432714D01*
X120515047Y-95813666D01*
%TO.C,R9*%
X118562380Y-106973666D02*
X118086190Y-107307000D01*
X118562380Y-107545095D02*
X117562380Y-107545095D01*
X117562380Y-107164142D01*
X117610000Y-107068904D01*
X117657619Y-107021285D01*
X117752857Y-106973666D01*
X117895714Y-106973666D01*
X117990952Y-107021285D01*
X118038571Y-107068904D01*
X118086190Y-107164142D01*
X118086190Y-107545095D01*
X118562380Y-106497476D02*
X118562380Y-106307000D01*
X118514761Y-106211761D01*
X118467142Y-106164142D01*
X118324285Y-106068904D01*
X118133809Y-106021285D01*
X117752857Y-106021285D01*
X117657619Y-106068904D01*
X117610000Y-106116523D01*
X117562380Y-106211761D01*
X117562380Y-106402238D01*
X117610000Y-106497476D01*
X117657619Y-106545095D01*
X117752857Y-106592714D01*
X117990952Y-106592714D01*
X118086190Y-106545095D01*
X118133809Y-106497476D01*
X118181428Y-106402238D01*
X118181428Y-106211761D01*
X118133809Y-106116523D01*
X118086190Y-106068904D01*
X117990952Y-106021285D01*
%TO.C,D2*%
X127198380Y-97385095D02*
X126198380Y-97385095D01*
X126198380Y-97147000D01*
X126246000Y-97004142D01*
X126341238Y-96908904D01*
X126436476Y-96861285D01*
X126626952Y-96813666D01*
X126769809Y-96813666D01*
X126960285Y-96861285D01*
X127055523Y-96908904D01*
X127150761Y-97004142D01*
X127198380Y-97147000D01*
X127198380Y-97385095D01*
X126293619Y-96432714D02*
X126246000Y-96385095D01*
X126198380Y-96289857D01*
X126198380Y-96051761D01*
X126246000Y-95956523D01*
X126293619Y-95908904D01*
X126388857Y-95861285D01*
X126484095Y-95861285D01*
X126626952Y-95908904D01*
X127198380Y-96480333D01*
X127198380Y-95861285D01*
%TO.C,C3*%
X111355142Y-120668166D02*
X111402761Y-120715785D01*
X111450380Y-120858642D01*
X111450380Y-120953880D01*
X111402761Y-121096738D01*
X111307523Y-121191976D01*
X111212285Y-121239595D01*
X111021809Y-121287214D01*
X110878952Y-121287214D01*
X110688476Y-121239595D01*
X110593238Y-121191976D01*
X110498000Y-121096738D01*
X110450380Y-120953880D01*
X110450380Y-120858642D01*
X110498000Y-120715785D01*
X110545619Y-120668166D01*
X110450380Y-120334833D02*
X110450380Y-119715785D01*
X110831333Y-120049119D01*
X110831333Y-119906261D01*
X110878952Y-119811023D01*
X110926571Y-119763404D01*
X111021809Y-119715785D01*
X111259904Y-119715785D01*
X111355142Y-119763404D01*
X111402761Y-119811023D01*
X111450380Y-119906261D01*
X111450380Y-120191976D01*
X111402761Y-120287214D01*
X111355142Y-120334833D01*
%TO.C,L1*%
X101290380Y-93257666D02*
X101290380Y-93733857D01*
X100290380Y-93733857D01*
X101290380Y-92400523D02*
X101290380Y-92971952D01*
X101290380Y-92686238D02*
X100290380Y-92686238D01*
X100433238Y-92781476D01*
X100528476Y-92876714D01*
X100576095Y-92971952D01*
%TO.C,D1*%
X134310380Y-97385095D02*
X133310380Y-97385095D01*
X133310380Y-97147000D01*
X133358000Y-97004142D01*
X133453238Y-96908904D01*
X133548476Y-96861285D01*
X133738952Y-96813666D01*
X133881809Y-96813666D01*
X134072285Y-96861285D01*
X134167523Y-96908904D01*
X134262761Y-97004142D01*
X134310380Y-97147000D01*
X134310380Y-97385095D01*
X134310380Y-95861285D02*
X134310380Y-96432714D01*
X134310380Y-96147000D02*
X133310380Y-96147000D01*
X133453238Y-96242238D01*
X133548476Y-96337476D01*
X133596095Y-96432714D01*
%TO.C,F1*%
X91114571Y-96279333D02*
X91114571Y-96612666D01*
X91638380Y-96612666D02*
X90638380Y-96612666D01*
X90638380Y-96136476D01*
X91638380Y-95231714D02*
X91638380Y-95803142D01*
X91638380Y-95517428D02*
X90638380Y-95517428D01*
X90781238Y-95612666D01*
X90876476Y-95707904D01*
X90924095Y-95803142D01*
%TO.C,J1*%
X121458380Y-107013333D02*
X122172666Y-107013333D01*
X122315523Y-107060952D01*
X122410761Y-107156190D01*
X122458380Y-107299047D01*
X122458380Y-107394285D01*
X122458380Y-106013333D02*
X122458380Y-106584761D01*
X122458380Y-106299047D02*
X121458380Y-106299047D01*
X121601238Y-106394285D01*
X121696476Y-106489523D01*
X121744095Y-106584761D01*
D19*
%TO.C,U1*%
X109474000Y-107120000D02*
X105824000Y-107120000D01*
X109474000Y-107120000D02*
X111674000Y-107120000D01*
X109474000Y-112590000D02*
X111674000Y-112590000D01*
X109474000Y-112590000D02*
X107274000Y-112590000D01*
%TO.C,R1*%
X97804500Y-108584276D02*
X97804500Y-109093724D01*
X96759500Y-108584276D02*
X96759500Y-109093724D01*
%TO.C,BT1*%
X89602000Y-111942000D02*
X92262000Y-111942000D01*
X89602000Y-109342000D02*
X92262000Y-109342000D01*
X89602000Y-106742000D02*
X90932000Y-106742000D01*
X92262000Y-109342000D02*
X92262000Y-111942000D01*
X89602000Y-108072000D02*
X89602000Y-106742000D01*
X89602000Y-109342000D02*
X89602000Y-111942000D01*
%TO.C,C1*%
X105637000Y-117206752D02*
X105637000Y-116684248D01*
X104167000Y-117206752D02*
X104167000Y-116684248D01*
%TO.C,Q1*%
X98932000Y-101053000D02*
X98932000Y-99253000D01*
X95632000Y-99253000D02*
X96682000Y-99253000D01*
X98932000Y-99253000D02*
X97882000Y-99253000D01*
X95632000Y-101653000D02*
X95632000Y-99253000D01*
%TO.C,C4*%
X120199000Y-120550000D02*
X117037000Y-120550000D01*
X117578000Y-118750000D02*
X115557000Y-118750000D01*
X121848000Y-117749000D02*
X115388000Y-117749000D01*
X119880000Y-120710000D02*
X117356000Y-120710000D01*
X121282000Y-119550000D02*
X119658000Y-119550000D01*
X120923000Y-119990000D02*
X119658000Y-119990000D01*
X117578000Y-118590000D02*
X115508000Y-118590000D01*
X121840000Y-117949000D02*
X119658000Y-117949000D01*
X121819000Y-118149000D02*
X119658000Y-118149000D01*
X117578000Y-119190000D02*
X115742000Y-119190000D01*
X121829000Y-118069000D02*
X119658000Y-118069000D01*
X119558000Y-120830000D02*
X117678000Y-120830000D01*
X117578000Y-119510000D02*
X115928000Y-119510000D01*
X117578000Y-119590000D02*
X115982000Y-119590000D01*
X117578000Y-118109000D02*
X115412000Y-118109000D01*
X121034000Y-119870000D02*
X119658000Y-119870000D01*
X117578000Y-119550000D02*
X115954000Y-119550000D01*
X121588000Y-118990000D02*
X119658000Y-118990000D01*
X120127000Y-120590000D02*
X117109000Y-120590000D01*
X117578000Y-119270000D02*
X115784000Y-119270000D01*
X117578000Y-118870000D02*
X115600000Y-118870000D01*
X121704000Y-118670000D02*
X119658000Y-118670000D01*
X117578000Y-119230000D02*
X115762000Y-119230000D01*
X117578000Y-118950000D02*
X115632000Y-118950000D01*
X117578000Y-119830000D02*
X116168000Y-119830000D01*
X120050000Y-120630000D02*
X117186000Y-120630000D01*
X121134000Y-119750000D02*
X119658000Y-119750000D01*
X117578000Y-118670000D02*
X115532000Y-118670000D01*
X121777000Y-118389000D02*
X119658000Y-118389000D01*
X121759000Y-118470000D02*
X119658000Y-118470000D01*
X121068000Y-119830000D02*
X119658000Y-119830000D01*
X121842000Y-117909000D02*
X115394000Y-117909000D01*
X117578000Y-119150000D02*
X115722000Y-119150000D01*
X121102000Y-119790000D02*
X119658000Y-119790000D01*
X119020000Y-120950000D02*
X118216000Y-120950000D01*
X117578000Y-119110000D02*
X115702000Y-119110000D01*
X117578000Y-118830000D02*
X115585000Y-118830000D01*
X121807000Y-118229000D02*
X119658000Y-118229000D01*
X121620000Y-118910000D02*
X119658000Y-118910000D01*
X120562000Y-120310000D02*
X116674000Y-120310000D01*
X117578000Y-118069000D02*
X115407000Y-118069000D01*
X117578000Y-118149000D02*
X115417000Y-118149000D01*
X121739000Y-118550000D02*
X119658000Y-118550000D01*
X121813000Y-118189000D02*
X119658000Y-118189000D01*
X117578000Y-119030000D02*
X115666000Y-119030000D01*
X120613000Y-120270000D02*
X116623000Y-120270000D01*
X121514000Y-119150000D02*
X119658000Y-119150000D01*
X117578000Y-117949000D02*
X115396000Y-117949000D01*
X121793000Y-118309000D02*
X119658000Y-118309000D01*
X117578000Y-119470000D02*
X115902000Y-119470000D01*
X120394000Y-120430000D02*
X116842000Y-120430000D01*
X121166000Y-119710000D02*
X119658000Y-119710000D01*
X121474000Y-119230000D02*
X119658000Y-119230000D01*
X120710000Y-120190000D02*
X116526000Y-120190000D01*
X121570000Y-119030000D02*
X119658000Y-119030000D01*
X119251000Y-120910000D02*
X117985000Y-120910000D01*
X121749000Y-118510000D02*
X119658000Y-118510000D01*
X120332000Y-120470000D02*
X116904000Y-120470000D01*
X119677000Y-120790000D02*
X117559000Y-120790000D01*
X121728000Y-118590000D02*
X119658000Y-118590000D01*
X117578000Y-119950000D02*
X116275000Y-119950000D01*
X117578000Y-118470000D02*
X115477000Y-118470000D01*
X121848000Y-117789000D02*
X115388000Y-117789000D01*
X117578000Y-119390000D02*
X115852000Y-119390000D01*
X120452000Y-120390000D02*
X116784000Y-120390000D01*
X121848000Y-117709000D02*
X115388000Y-117709000D01*
X117578000Y-119990000D02*
X116313000Y-119990000D01*
X121716000Y-118630000D02*
X119658000Y-118630000D01*
X121636000Y-118870000D02*
X119658000Y-118870000D01*
X120772000Y-114523759D02*
X120142000Y-114523759D01*
X121785000Y-118349000D02*
X119658000Y-118349000D01*
X121452000Y-119270000D02*
X119658000Y-119270000D01*
X120268000Y-120510000D02*
X116968000Y-120510000D01*
X121552000Y-119070000D02*
X119658000Y-119070000D01*
X117578000Y-119750000D02*
X116102000Y-119750000D01*
X117578000Y-118910000D02*
X115616000Y-118910000D01*
X117578000Y-118349000D02*
X115451000Y-118349000D01*
X119420000Y-120870000D02*
X117816000Y-120870000D01*
X121408000Y-119350000D02*
X119658000Y-119350000D01*
X121679000Y-118750000D02*
X119658000Y-118750000D01*
X121833000Y-118029000D02*
X119658000Y-118029000D01*
X117578000Y-118550000D02*
X115497000Y-118550000D01*
X121430000Y-119310000D02*
X119658000Y-119310000D01*
X121800000Y-118269000D02*
X119658000Y-118269000D01*
X117578000Y-119710000D02*
X116070000Y-119710000D01*
X120800000Y-120110000D02*
X116436000Y-120110000D01*
X117578000Y-117989000D02*
X115400000Y-117989000D01*
X117578000Y-119350000D02*
X115828000Y-119350000D01*
X117578000Y-118630000D02*
X115520000Y-118630000D01*
X121768000Y-118430000D02*
X119658000Y-118430000D01*
X117578000Y-118229000D02*
X115429000Y-118229000D01*
X121604000Y-118950000D02*
X119658000Y-118950000D01*
X117578000Y-119870000D02*
X116202000Y-119870000D01*
X117578000Y-119790000D02*
X116134000Y-119790000D01*
X117578000Y-118510000D02*
X115487000Y-118510000D01*
X117578000Y-118189000D02*
X115423000Y-118189000D01*
X117578000Y-118269000D02*
X115436000Y-118269000D01*
X117578000Y-118029000D02*
X115403000Y-118029000D01*
X121225000Y-119630000D02*
X119658000Y-119630000D01*
X117578000Y-119910000D02*
X116238000Y-119910000D01*
X117578000Y-119630000D02*
X116011000Y-119630000D01*
X117578000Y-119670000D02*
X116040000Y-119670000D01*
X117578000Y-119070000D02*
X115684000Y-119070000D01*
X117578000Y-118710000D02*
X115544000Y-118710000D01*
X120842000Y-120070000D02*
X116394000Y-120070000D01*
X121196000Y-119670000D02*
X119658000Y-119670000D01*
X117578000Y-118430000D02*
X115468000Y-118430000D01*
X121836000Y-117989000D02*
X119658000Y-117989000D01*
X121494000Y-119190000D02*
X119658000Y-119190000D01*
X121692000Y-118710000D02*
X119658000Y-118710000D01*
X120883000Y-120030000D02*
X116353000Y-120030000D01*
X117578000Y-118309000D02*
X115443000Y-118309000D01*
X117578000Y-119430000D02*
X115876000Y-119430000D01*
X121665000Y-118790000D02*
X119658000Y-118790000D01*
X121334000Y-119470000D02*
X119658000Y-119470000D01*
X121360000Y-119430000D02*
X119658000Y-119430000D01*
X120457000Y-114208759D02*
X120457000Y-114838759D01*
X117578000Y-118990000D02*
X115648000Y-118990000D01*
X117578000Y-119310000D02*
X115806000Y-119310000D01*
X121651000Y-118830000D02*
X119658000Y-118830000D01*
X119783000Y-120750000D02*
X117453000Y-120750000D01*
X121846000Y-117829000D02*
X115390000Y-117829000D01*
X121384000Y-119390000D02*
X119658000Y-119390000D01*
X120998000Y-119910000D02*
X119658000Y-119910000D01*
X120662000Y-120230000D02*
X116574000Y-120230000D01*
X119968000Y-120670000D02*
X117268000Y-120670000D01*
X121254000Y-119590000D02*
X119658000Y-119590000D01*
X120755000Y-120150000D02*
X116481000Y-120150000D01*
X117578000Y-118790000D02*
X115571000Y-118790000D01*
X121824000Y-118109000D02*
X119658000Y-118109000D01*
X121534000Y-119110000D02*
X119658000Y-119110000D01*
X120508000Y-120350000D02*
X116728000Y-120350000D01*
X117578000Y-118389000D02*
X115459000Y-118389000D01*
X121845000Y-117869000D02*
X115391000Y-117869000D01*
X120961000Y-119950000D02*
X119658000Y-119950000D01*
X121308000Y-119510000D02*
X119658000Y-119510000D01*
X121888000Y-117709000D02*
G75*
G03*
X121888000Y-117709000I-3270000J0D01*
G01*
%TO.C,R7*%
X130795500Y-93853724D02*
X130795500Y-93344276D01*
X131840500Y-93853724D02*
X131840500Y-93344276D01*
%TO.C,R6*%
X120156500Y-100964276D02*
X120156500Y-101473724D01*
X119111500Y-100964276D02*
X119111500Y-101473724D01*
%TO.C,R8*%
X124220500Y-93750224D02*
X124220500Y-93240776D01*
X123175500Y-93750224D02*
X123175500Y-93240776D01*
%TO.C,R3*%
X99836500Y-116458276D02*
X99836500Y-116967724D01*
X98791500Y-116458276D02*
X98791500Y-116967724D01*
%TO.C,R2*%
X101585500Y-117068224D02*
X101585500Y-116558776D01*
X102630500Y-117068224D02*
X102630500Y-116558776D01*
%TO.C,R5*%
X118378500Y-93750224D02*
X118378500Y-93240776D01*
X117333500Y-93750224D02*
X117333500Y-93240776D01*
%TO.C,Test Point*%
X103562000Y-108331000D02*
G75*
G03*
X103562000Y-108331000I-1200000J0D01*
G01*
%TO.C,C2*%
X108460000Y-117091767D02*
X108460000Y-116799233D01*
X107440000Y-117091767D02*
X107440000Y-116799233D01*
%TO.C,R4*%
X119873500Y-93344276D02*
X119873500Y-93853724D01*
X120918500Y-93344276D02*
X120918500Y-93853724D01*
%TO.C,R9*%
X120156500Y-107061724D02*
X120156500Y-106552276D01*
X119111500Y-107061724D02*
X119111500Y-106552276D01*
%TO.C,D2*%
X127706000Y-95459000D02*
X127706000Y-92599000D01*
X125786000Y-95459000D02*
X127706000Y-95459000D01*
X125786000Y-92599000D02*
X125786000Y-95459000D01*
%TO.C,C3*%
X110263000Y-116705748D02*
X110263000Y-117228252D01*
X111733000Y-116705748D02*
X111733000Y-117228252D01*
%TO.C,L1*%
X114208000Y-104571000D02*
X102708000Y-104571000D01*
X114908000Y-92471000D02*
X114908000Y-95371000D01*
X102008000Y-100971000D02*
X102008000Y-103871000D01*
X102708000Y-91771000D02*
X114208000Y-91771000D01*
X102008000Y-92421000D02*
X102008000Y-95371000D01*
X114908000Y-100971000D02*
X114908000Y-103871000D01*
X102708000Y-91771000D02*
G75*
G03*
X102008000Y-92471000I-1J-699999D01*
G01*
X102008000Y-103871000D02*
G75*
G03*
X102708000Y-104571000I699999J-1D01*
G01*
X114208000Y-104571000D02*
G75*
G03*
X114908000Y-103871000I0J700000D01*
G01*
X114908000Y-92471000D02*
G75*
G03*
X114208000Y-91771000I-700000J0D01*
G01*
%TO.C,D1*%
X134818000Y-95459000D02*
X134818000Y-92599000D01*
X132898000Y-95459000D02*
X134818000Y-95459000D01*
X132898000Y-92599000D02*
X132898000Y-95459000D01*
%TO.C,F1*%
X89476000Y-98750748D02*
X89476000Y-101523252D01*
X92896000Y-98750748D02*
X92896000Y-101523252D01*
%TO.C,J1*%
X137776000Y-99370000D02*
X137776000Y-100020000D01*
X138296000Y-99370000D02*
X137776000Y-99370000D01*
X129666000Y-100020000D02*
X137776000Y-100020000D01*
X137776000Y-113990000D02*
X138296000Y-113990000D01*
X122816000Y-100020000D02*
X126146000Y-100020000D01*
X122816000Y-113340000D02*
X122816000Y-100020000D01*
X137776000Y-113340000D02*
X129666000Y-113340000D01*
X122596000Y-111080000D02*
X122596000Y-109280000D01*
X137776000Y-113340000D02*
X137776000Y-113990000D01*
X138296000Y-113990000D02*
X138296000Y-99370000D01*
X122816000Y-113340000D02*
X126146000Y-113340000D01*
%TD*%
M02*
