M48
; DRILL file {KiCad (6.0.7-1)-1} date Monday, January 16, 2023 at 01:40:29 PM
; FORMAT={-:-/ absolute / metric / decimal}
; #@! TF.CreationDate,2023-01-16T13:40:29-08:00
; #@! TF.GenerationSoftware,Kicad,Pcbnew,(6.0.7-1)-1
; #@! TF.FileFunction,Plated,1,2,PTH
FMAT,2
METRIC
; #@! TA.AperFunction,Plated,PTH,ComponentDrill
T1C0.300
; #@! TA.AperFunction,Plated,PTH,ViaDrill
T2C0.400
; #@! TA.AperFunction,Plated,PTH,ComponentDrill
T3C0.800
; #@! TA.AperFunction,Plated,PTH,ComponentDrill
T4C0.950
; #@! TA.AperFunction,Plated,PTH,ComponentDrill
T5C1.000
; #@! TA.AperFunction,Plated,PTH,ComponentDrill
T6C2.300
%
G90
G05
T1
X108.274Y-108.655
X108.274Y-111.055
X110.674Y-108.655
X110.674Y-111.055
T2
X89.281Y-115.443
X96.774Y-120.523
X104.14Y-110.109
X106.299Y-120.523
X108.204Y-113.665
X113.284Y-120.523
X115.316Y-111.633
X115.327Y-107.563
X116.326Y-107.563
X117.348Y-98.933
X125.222Y-94.107
X125.222Y-115.951
X129.794Y-94.107
X136.398Y-98.171
X136.398Y-106.807
X136.398Y-115.951
T3
X118.618Y-116.459
X118.618Y-118.959
T4
X125.196Y-103.18
X125.196Y-105.68
X125.196Y-107.68
X125.196Y-110.18
T5
X90.932Y-108.072
X90.932Y-110.612
X102.362Y-108.331
T6
X127.906Y-100.11
X127.906Y-113.25
T0
M30
