%TF.GenerationSoftware,KiCad,Pcbnew,(6.0.7-1)-1*%
%TF.CreationDate,2023-01-16T13:52:54-08:00*%
%TF.ProjectId,updated_boost_USB_charger,75706461-7465-4645-9f62-6f6f73745f55,rev?*%
%TF.SameCoordinates,Original*%
%TF.FileFunction,Legend,Bot*%
%TF.FilePolarity,Positive*%
%FSLAX46Y46*%
G04 Gerber Fmt 4.6, Leading zero omitted, Abs format (unit mm)*
G04 Created by KiCad (PCBNEW (6.0.7-1)-1) date 2023-01-16 13:52:54*
%MOMM*%
%LPD*%
G01*
G04 APERTURE LIST*
G04 APERTURE END LIST*
%TO.C,LOGO1*%
G36*
X95489276Y-97038107D02*
G01*
X95488141Y-97061107D01*
X95485363Y-97080305D01*
X95480562Y-97098769D01*
X95468149Y-97130491D01*
X95446475Y-97167471D01*
X95418947Y-97200220D01*
X95386478Y-97227850D01*
X95349980Y-97249474D01*
X95310369Y-97264203D01*
X95306522Y-97265150D01*
X95284596Y-97268504D01*
X95258391Y-97270090D01*
X95230882Y-97269906D01*
X95205046Y-97267952D01*
X95183858Y-97264226D01*
X95178306Y-97262717D01*
X95139101Y-97247448D01*
X95103195Y-97225414D01*
X95071432Y-97197473D01*
X95044656Y-97164484D01*
X95023713Y-97127306D01*
X95009446Y-97086799D01*
X95007485Y-97077719D01*
X95004331Y-97051281D01*
X95003754Y-97028000D01*
X95030327Y-97028000D01*
X95030765Y-97042950D01*
X95036949Y-97083711D01*
X95050492Y-97121140D01*
X95071461Y-97155390D01*
X95099923Y-97186614D01*
X95103828Y-97190157D01*
X95131646Y-97211543D01*
X95161329Y-97227097D01*
X95195752Y-97238374D01*
X95201027Y-97239671D01*
X95236932Y-97245317D01*
X95270973Y-97244438D01*
X95305031Y-97236826D01*
X95340988Y-97222271D01*
X95352951Y-97216030D01*
X95385972Y-97193126D01*
X95413786Y-97164970D01*
X95435919Y-97132548D01*
X95451893Y-97096844D01*
X95461234Y-97058843D01*
X95463465Y-97019531D01*
X95458111Y-96979890D01*
X95452428Y-96960144D01*
X95435825Y-96923299D01*
X95412878Y-96890339D01*
X95384433Y-96862033D01*
X95351334Y-96839151D01*
X95314428Y-96822463D01*
X95274559Y-96812739D01*
X95258542Y-96810697D01*
X95242766Y-96809948D01*
X95227408Y-96811248D01*
X95208381Y-96814717D01*
X95169773Y-96825864D01*
X95132998Y-96843980D01*
X95100631Y-96868675D01*
X95088856Y-96880266D01*
X95063054Y-96912644D01*
X95044785Y-96947862D01*
X95033920Y-96986216D01*
X95030327Y-97028000D01*
X95003754Y-97028000D01*
X95003606Y-97022047D01*
X95005311Y-96993519D01*
X95009446Y-96969202D01*
X95010967Y-96963516D01*
X95026193Y-96923412D01*
X95047982Y-96886755D01*
X95075487Y-96854403D01*
X95107864Y-96827216D01*
X95144270Y-96806054D01*
X95183858Y-96791774D01*
X95203036Y-96788207D01*
X95230002Y-96785933D01*
X95258720Y-96785739D01*
X95286002Y-96787628D01*
X95308659Y-96791605D01*
X95341282Y-96802781D01*
X95378777Y-96822927D01*
X95412324Y-96849285D01*
X95441053Y-96881015D01*
X95464089Y-96917278D01*
X95480562Y-96957231D01*
X95482602Y-96964184D01*
X95486609Y-96982562D01*
X95488733Y-97002811D01*
X95489147Y-97019531D01*
X95489357Y-97028000D01*
X95489276Y-97038107D01*
G37*
G36*
X95439644Y-95934128D02*
G01*
X95452214Y-95934674D01*
X95460588Y-95936868D01*
X95467685Y-95941858D01*
X95476419Y-95950789D01*
X95482036Y-95957485D01*
X95490938Y-95971006D01*
X95496326Y-95983140D01*
X95497151Y-95988145D01*
X95498208Y-96002091D01*
X95499086Y-96023703D01*
X95499779Y-96052730D01*
X95500284Y-96088922D01*
X95500593Y-96132031D01*
X95500701Y-96181805D01*
X95500724Y-96364794D01*
X95367274Y-96364794D01*
X95367297Y-96181805D01*
X95367349Y-96146957D01*
X95367596Y-96101728D01*
X95368040Y-96063336D01*
X95368674Y-96032032D01*
X95369495Y-96008065D01*
X95370496Y-95991685D01*
X95371672Y-95983140D01*
X95374123Y-95976726D01*
X95381793Y-95963315D01*
X95391579Y-95950789D01*
X95394862Y-95947293D01*
X95402724Y-95939808D01*
X95409923Y-95935880D01*
X95419376Y-95934365D01*
X95433999Y-95934114D01*
X95439644Y-95934128D01*
G37*
G36*
X97709792Y-97333708D02*
G01*
X97676259Y-97367541D01*
X97639337Y-97404733D01*
X97598858Y-97445452D01*
X97554655Y-97489867D01*
X97506564Y-97538146D01*
X97454416Y-97590457D01*
X97398045Y-97646969D01*
X97337286Y-97707852D01*
X97271971Y-97773272D01*
X97201935Y-97843399D01*
X97127010Y-97918400D01*
X97047031Y-97998446D01*
X96961831Y-98083704D01*
X96871243Y-98174342D01*
X96775101Y-98270529D01*
X95640240Y-99405894D01*
X95639112Y-99353295D01*
X95637983Y-99300696D01*
X95577559Y-99300696D01*
X95577559Y-97819517D01*
X95845916Y-97819517D01*
X95846368Y-97828303D01*
X95847555Y-97843280D01*
X95849377Y-97863312D01*
X95851733Y-97887265D01*
X95854525Y-97914003D01*
X95856257Y-97930256D01*
X95858963Y-97956097D01*
X95861279Y-97978788D01*
X95863085Y-97997106D01*
X95864259Y-98009828D01*
X95864677Y-98015733D01*
X95864552Y-98018152D01*
X95864750Y-98020069D01*
X95866228Y-98021249D01*
X95869945Y-98021620D01*
X95876860Y-98021108D01*
X95887931Y-98019639D01*
X95904117Y-98017141D01*
X95926376Y-98013539D01*
X95955668Y-98008761D01*
X96012179Y-97999272D01*
X96141359Y-97975257D01*
X96264538Y-97949012D01*
X96381540Y-97920602D01*
X96492187Y-97890092D01*
X96596303Y-97857547D01*
X96693712Y-97823032D01*
X96784236Y-97786612D01*
X96867699Y-97748352D01*
X96943925Y-97708317D01*
X97012736Y-97666571D01*
X97073955Y-97623180D01*
X97127407Y-97578208D01*
X97143715Y-97562355D01*
X97175126Y-97526965D01*
X97202784Y-97489152D01*
X97225788Y-97450357D01*
X97243233Y-97412022D01*
X97254218Y-97375592D01*
X97258725Y-97345578D01*
X97258838Y-97300582D01*
X97251333Y-97255483D01*
X97236389Y-97211205D01*
X97214185Y-97168672D01*
X97204833Y-97154452D01*
X97171545Y-97112745D01*
X97130566Y-97072511D01*
X97082105Y-97033828D01*
X97026371Y-96996773D01*
X96963574Y-96961423D01*
X96893922Y-96927856D01*
X96817627Y-96896149D01*
X96734896Y-96866378D01*
X96645939Y-96838621D01*
X96550966Y-96812956D01*
X96450187Y-96789458D01*
X96343810Y-96768207D01*
X96232045Y-96749278D01*
X96115102Y-96732748D01*
X95993189Y-96718696D01*
X95972284Y-96716598D01*
X95949536Y-96714507D01*
X95934583Y-96713417D01*
X95927471Y-96713328D01*
X95928247Y-96714239D01*
X95936956Y-96716150D01*
X95953646Y-96719061D01*
X95992494Y-96725612D01*
X96106419Y-96746610D01*
X96215720Y-96769464D01*
X96320180Y-96794075D01*
X96419583Y-96820343D01*
X96513713Y-96848170D01*
X96602353Y-96877457D01*
X96685288Y-96908106D01*
X96762301Y-96940016D01*
X96833176Y-96973090D01*
X96897697Y-97007228D01*
X96955648Y-97042332D01*
X97006813Y-97078303D01*
X97050975Y-97115042D01*
X97087918Y-97152450D01*
X97117427Y-97190428D01*
X97139285Y-97228877D01*
X97153275Y-97267699D01*
X97156289Y-97282377D01*
X97157612Y-97316871D01*
X97151021Y-97351513D01*
X97136631Y-97386140D01*
X97114556Y-97420588D01*
X97084912Y-97454694D01*
X97047814Y-97488296D01*
X97003376Y-97521230D01*
X96951715Y-97553332D01*
X96913502Y-97574093D01*
X96843683Y-97607257D01*
X96766585Y-97638511D01*
X96682595Y-97667759D01*
X96592097Y-97694904D01*
X96495478Y-97719850D01*
X96393123Y-97742500D01*
X96285417Y-97762758D01*
X96172745Y-97780526D01*
X96055495Y-97795710D01*
X95934050Y-97808211D01*
X95924445Y-97809087D01*
X95899825Y-97811422D01*
X95878480Y-97813577D01*
X95861605Y-97815422D01*
X95850398Y-97816830D01*
X95846052Y-97817672D01*
X95845916Y-97819517D01*
X95577559Y-97819517D01*
X95577559Y-96711093D01*
X95897746Y-96711093D01*
X95901074Y-96712573D01*
X95903215Y-96712281D01*
X95903770Y-96709877D01*
X95903178Y-96709393D01*
X95898378Y-96709877D01*
X95897746Y-96711093D01*
X95577559Y-96711093D01*
X95577559Y-96502288D01*
X95638218Y-96502288D01*
X95638218Y-96457805D01*
X95577559Y-96457805D01*
X95577559Y-95839081D01*
X95638218Y-95839081D01*
X95638218Y-95794598D01*
X95574763Y-95794598D01*
X95550886Y-95676604D01*
X95548059Y-95662729D01*
X95540119Y-95625018D01*
X95533373Y-95595055D01*
X95527836Y-95572899D01*
X95523524Y-95558611D01*
X95520451Y-95552253D01*
X95518175Y-95549142D01*
X95513804Y-95538772D01*
X95510627Y-95525676D01*
X95507363Y-95505456D01*
X95503584Y-95528709D01*
X95501924Y-95537260D01*
X95498384Y-95548102D01*
X95494534Y-95551962D01*
X95492795Y-95552312D01*
X95490793Y-95554315D01*
X95488735Y-95559031D01*
X95486332Y-95567509D01*
X95483297Y-95580794D01*
X95479341Y-95599935D01*
X95474177Y-95625977D01*
X95472474Y-95634133D01*
X95469123Y-95647543D01*
X95466183Y-95656133D01*
X95464142Y-95658328D01*
X95463756Y-95657431D01*
X95461415Y-95650007D01*
X95457201Y-95635611D01*
X95451278Y-95614836D01*
X95443812Y-95588270D01*
X95434965Y-95556503D01*
X95424903Y-95520127D01*
X95413788Y-95479731D01*
X95401785Y-95435906D01*
X95389058Y-95389242D01*
X95375771Y-95340328D01*
X95290439Y-95025575D01*
X95290439Y-94971600D01*
X95290438Y-94967052D01*
X95290358Y-94946612D01*
X95289993Y-94932712D01*
X95289129Y-94924043D01*
X95287554Y-94919296D01*
X95285052Y-94917162D01*
X95281411Y-94916333D01*
X95280367Y-94916157D01*
X95277742Y-94915131D01*
X95275525Y-94912606D01*
X95273519Y-94907649D01*
X95271528Y-94899326D01*
X95269354Y-94886706D01*
X95266801Y-94868854D01*
X95263673Y-94844839D01*
X95259771Y-94813727D01*
X95256934Y-94791160D01*
X95253587Y-94765146D01*
X95250597Y-94742566D01*
X95248121Y-94724569D01*
X95246313Y-94712304D01*
X95245329Y-94706918D01*
X95245174Y-94706975D01*
X95244083Y-94711973D01*
X95242215Y-94723362D01*
X95239736Y-94739892D01*
X95236816Y-94760317D01*
X95233620Y-94783386D01*
X95230315Y-94807851D01*
X95227070Y-94832463D01*
X95224052Y-94855974D01*
X95221427Y-94877135D01*
X95219363Y-94894697D01*
X95218027Y-94907412D01*
X95217587Y-94914030D01*
X95216245Y-94915747D01*
X95209866Y-94917063D01*
X95206864Y-94917545D01*
X95204615Y-94919877D01*
X95203079Y-94925309D01*
X95202050Y-94935086D01*
X95201322Y-94950457D01*
X95200690Y-94972667D01*
X95199297Y-95028271D01*
X95112781Y-95344859D01*
X95106350Y-95368354D01*
X95093201Y-95416159D01*
X95080695Y-95461310D01*
X95068997Y-95503234D01*
X95058270Y-95541359D01*
X95048676Y-95575113D01*
X95040379Y-95603922D01*
X95033542Y-95627214D01*
X95028329Y-95644417D01*
X95024903Y-95654958D01*
X95023426Y-95658265D01*
X95023394Y-95658226D01*
X95021546Y-95653025D01*
X95018666Y-95641571D01*
X95015141Y-95625526D01*
X95011359Y-95606555D01*
X95008984Y-95594660D01*
X95004014Y-95573591D01*
X94999342Y-95558863D01*
X94995215Y-95551331D01*
X94993592Y-95549396D01*
X94988625Y-95539565D01*
X94985056Y-95527068D01*
X94981814Y-95509500D01*
X94977844Y-95530731D01*
X94976425Y-95537290D01*
X94972588Y-95548106D01*
X94968377Y-95551962D01*
X94966146Y-95552067D01*
X94962880Y-95553181D01*
X94962320Y-95556336D01*
X94960383Y-95566367D01*
X94957294Y-95582080D01*
X94953296Y-95602265D01*
X94948631Y-95625713D01*
X94943540Y-95651213D01*
X94938268Y-95677554D01*
X94933055Y-95703527D01*
X94928144Y-95727920D01*
X94923777Y-95749525D01*
X94920198Y-95767130D01*
X94917647Y-95779524D01*
X94916368Y-95785499D01*
X94916115Y-95786503D01*
X94914062Y-95790897D01*
X94909619Y-95793332D01*
X94900886Y-95794376D01*
X94885968Y-95794598D01*
X94857737Y-95794598D01*
X94857737Y-95839081D01*
X94914352Y-95839081D01*
X94914352Y-96457805D01*
X94857737Y-96457805D01*
X94857737Y-96502288D01*
X94914352Y-96502288D01*
X94914352Y-99300696D01*
X94853928Y-99300696D01*
X94852800Y-99353302D01*
X94851671Y-99405908D01*
X93718818Y-98272558D01*
X93673093Y-98226813D01*
X93579985Y-98133663D01*
X93492347Y-98045981D01*
X93410011Y-97963599D01*
X93332810Y-97886344D01*
X93260575Y-97814048D01*
X93193138Y-97746538D01*
X93130330Y-97683644D01*
X93071985Y-97625196D01*
X93017934Y-97571023D01*
X92968008Y-97520955D01*
X92922039Y-97474821D01*
X92879860Y-97432450D01*
X92841302Y-97393671D01*
X92806197Y-97358315D01*
X92787060Y-97339007D01*
X93233856Y-97339007D01*
X93241334Y-97384396D01*
X93256819Y-97430129D01*
X93268449Y-97454539D01*
X93295818Y-97498581D01*
X93330896Y-97541804D01*
X93373457Y-97584104D01*
X93423274Y-97625376D01*
X93480119Y-97665517D01*
X93543765Y-97704422D01*
X93613986Y-97741986D01*
X93690554Y-97778106D01*
X93773242Y-97812678D01*
X93861823Y-97845596D01*
X93956069Y-97876758D01*
X94055755Y-97906059D01*
X94160653Y-97933394D01*
X94270535Y-97958660D01*
X94385174Y-97981752D01*
X94504344Y-98002566D01*
X94526013Y-98006074D01*
X94552587Y-98010380D01*
X94576054Y-98014187D01*
X94595196Y-98017297D01*
X94608794Y-98019512D01*
X94615627Y-98020634D01*
X94615766Y-98020657D01*
X94622831Y-98020918D01*
X94626412Y-98017196D01*
X94628506Y-98007447D01*
X94629397Y-98001097D01*
X94631388Y-97985012D01*
X94633654Y-97964845D01*
X94636067Y-97941943D01*
X94638500Y-97917654D01*
X94640826Y-97893323D01*
X94642916Y-97870299D01*
X94644646Y-97849928D01*
X94645885Y-97833556D01*
X94646509Y-97822532D01*
X94646389Y-97818201D01*
X94645625Y-97817921D01*
X94638508Y-97816726D01*
X94624977Y-97815014D01*
X94606233Y-97812923D01*
X94583480Y-97810587D01*
X94557920Y-97808145D01*
X94535401Y-97806020D01*
X94402662Y-97791440D01*
X94276141Y-97773941D01*
X94156021Y-97753567D01*
X94042483Y-97730361D01*
X93935707Y-97704367D01*
X93835874Y-97675628D01*
X93743167Y-97644188D01*
X93657766Y-97610089D01*
X93579852Y-97573376D01*
X93561901Y-97563958D01*
X93506334Y-97531610D01*
X93458390Y-97498368D01*
X93418160Y-97464316D01*
X93385734Y-97429534D01*
X93361201Y-97394107D01*
X93344652Y-97358115D01*
X93339108Y-97334317D01*
X93337286Y-97304465D01*
X93339915Y-97273862D01*
X93346931Y-97245616D01*
X93351476Y-97233929D01*
X93370695Y-97197855D01*
X93397629Y-97161663D01*
X93432002Y-97125532D01*
X93473540Y-97089639D01*
X93521968Y-97054164D01*
X93577009Y-97019285D01*
X93638388Y-96985180D01*
X93705831Y-96952028D01*
X93779061Y-96920007D01*
X93857804Y-96889296D01*
X93941784Y-96860073D01*
X93944190Y-96859284D01*
X93968530Y-96851378D01*
X93990931Y-96844244D01*
X94009959Y-96838326D01*
X94024182Y-96834073D01*
X94032165Y-96831930D01*
X94033041Y-96831743D01*
X94041498Y-96830412D01*
X94044077Y-96832289D01*
X94042613Y-96838536D01*
X94042528Y-96838797D01*
X94039709Y-96847639D01*
X94035429Y-96861235D01*
X94030580Y-96876754D01*
X94021643Y-96905464D01*
X94123252Y-96872437D01*
X94135879Y-96868332D01*
X94209190Y-96844492D01*
X94275203Y-96823007D01*
X94334262Y-96803761D01*
X94386708Y-96786641D01*
X94432885Y-96771533D01*
X94473136Y-96758323D01*
X94507802Y-96746897D01*
X94537227Y-96737141D01*
X94561754Y-96728941D01*
X94581725Y-96722183D01*
X94597484Y-96716753D01*
X94609372Y-96712537D01*
X94617733Y-96709422D01*
X94622910Y-96707292D01*
X94625245Y-96706034D01*
X94625080Y-96705534D01*
X94619387Y-96704975D01*
X94606319Y-96703825D01*
X94586944Y-96702181D01*
X94562108Y-96700110D01*
X94532655Y-96697681D01*
X94499430Y-96694961D01*
X94463280Y-96692018D01*
X94425048Y-96688920D01*
X94385580Y-96685735D01*
X94345721Y-96682531D01*
X94306317Y-96679376D01*
X94268212Y-96676338D01*
X94232252Y-96673484D01*
X94199282Y-96670883D01*
X94170147Y-96668603D01*
X94145692Y-96666711D01*
X94126762Y-96665275D01*
X94114203Y-96664364D01*
X94108860Y-96664046D01*
X94107421Y-96664092D01*
X94103778Y-96665083D01*
X94100474Y-96668222D01*
X94096973Y-96674629D01*
X94092743Y-96685423D01*
X94087250Y-96701724D01*
X94079960Y-96724649D01*
X94074154Y-96742886D01*
X94068019Y-96761124D01*
X94063228Y-96773546D01*
X94059279Y-96781269D01*
X94055669Y-96785411D01*
X94051895Y-96787090D01*
X94048995Y-96787738D01*
X94038548Y-96790202D01*
X94022198Y-96794131D01*
X94001167Y-96799228D01*
X93976682Y-96805197D01*
X93949967Y-96811741D01*
X93913257Y-96821023D01*
X93819299Y-96847394D01*
X93731081Y-96876064D01*
X93649156Y-96906832D01*
X93574076Y-96939494D01*
X93506393Y-96973850D01*
X93452826Y-97005583D01*
X93399084Y-97043032D01*
X93352719Y-97081977D01*
X93313810Y-97122274D01*
X93282436Y-97163779D01*
X93258674Y-97206350D01*
X93242605Y-97249840D01*
X93234306Y-97294107D01*
X93233856Y-97339007D01*
X92787060Y-97339007D01*
X92774377Y-97326210D01*
X92745674Y-97297185D01*
X92719920Y-97271071D01*
X92696946Y-97247697D01*
X92676585Y-97226891D01*
X92658668Y-97208484D01*
X92643027Y-97192305D01*
X92629495Y-97178182D01*
X92617902Y-97165947D01*
X92608081Y-97155427D01*
X92599864Y-97146452D01*
X92593083Y-97138852D01*
X92587569Y-97132456D01*
X92583154Y-97127094D01*
X92579671Y-97122594D01*
X92576951Y-97118787D01*
X92574826Y-97115501D01*
X92573127Y-97112566D01*
X92571688Y-97109812D01*
X92570339Y-97107067D01*
X92564890Y-97095710D01*
X92559990Y-97084270D01*
X92556985Y-97074125D01*
X92555413Y-97062928D01*
X92554810Y-97048335D01*
X92554712Y-97028000D01*
X92554762Y-97011561D01*
X92555215Y-96995905D01*
X92556534Y-96984160D01*
X92559184Y-96973981D01*
X92563628Y-96963020D01*
X92570329Y-96948934D01*
X92585946Y-96916792D01*
X93860346Y-95642121D01*
X95134747Y-94367450D01*
X95166855Y-94352301D01*
X95167656Y-94351924D01*
X95185294Y-94344163D01*
X95199918Y-94339439D01*
X95215228Y-94336835D01*
X95234922Y-94335433D01*
X95248991Y-94335111D01*
X95284683Y-94338185D01*
X95316579Y-94347387D01*
X95346160Y-94363083D01*
X95349463Y-94365856D01*
X95358736Y-94374475D01*
X95373604Y-94388722D01*
X95394009Y-94408539D01*
X95419891Y-94433866D01*
X95451189Y-94464643D01*
X95487843Y-94500810D01*
X95529793Y-94542308D01*
X95576980Y-94589077D01*
X95629344Y-94641057D01*
X95686823Y-94698188D01*
X95749360Y-94760412D01*
X95816892Y-94827669D01*
X95889362Y-94899897D01*
X95966707Y-94977039D01*
X96048870Y-95059035D01*
X96135788Y-95145824D01*
X96227404Y-95237347D01*
X96323656Y-95333545D01*
X96424484Y-95434357D01*
X96529829Y-95539724D01*
X96639631Y-95649587D01*
X96741436Y-95751468D01*
X96837739Y-95847849D01*
X96928636Y-95938828D01*
X97014285Y-96024566D01*
X97094842Y-96105220D01*
X97170466Y-96180950D01*
X97241313Y-96251914D01*
X97307541Y-96318271D01*
X97369305Y-96380181D01*
X97426764Y-96437802D01*
X97480075Y-96491293D01*
X97529394Y-96540812D01*
X97574879Y-96586520D01*
X97616686Y-96628574D01*
X97654974Y-96667133D01*
X97689898Y-96702357D01*
X97697341Y-96709877D01*
X97721616Y-96734405D01*
X97750286Y-96763434D01*
X97776063Y-96789605D01*
X97799106Y-96813075D01*
X97819571Y-96834004D01*
X97837616Y-96852551D01*
X97853397Y-96868874D01*
X97867072Y-96883133D01*
X97878797Y-96895486D01*
X97888731Y-96906092D01*
X97897029Y-96915110D01*
X97903849Y-96922699D01*
X97909348Y-96929018D01*
X97913683Y-96934226D01*
X97917012Y-96938481D01*
X97919491Y-96941943D01*
X97921277Y-96944770D01*
X97922528Y-96947122D01*
X97928707Y-96961663D01*
X97938273Y-96998193D01*
X97940432Y-97035885D01*
X97935183Y-97073271D01*
X97922526Y-97108879D01*
X97922405Y-97109130D01*
X97921043Y-97111648D01*
X97919119Y-97114659D01*
X97916469Y-97118334D01*
X97912924Y-97122839D01*
X97908320Y-97128344D01*
X97902489Y-97135017D01*
X97895265Y-97143027D01*
X97886481Y-97152542D01*
X97875972Y-97163730D01*
X97863570Y-97176761D01*
X97849110Y-97191802D01*
X97832424Y-97209022D01*
X97813346Y-97228590D01*
X97791711Y-97250674D01*
X97767351Y-97275443D01*
X97742549Y-97300582D01*
X97740100Y-97303064D01*
X97709792Y-97333708D01*
G37*
G36*
X98740671Y-97071086D02*
G01*
X98737512Y-97101612D01*
X98732518Y-97126707D01*
X98728991Y-97139012D01*
X98714405Y-97180535D01*
X98696298Y-97218441D01*
X98673948Y-97253647D01*
X98646628Y-97287068D01*
X98613616Y-97319621D01*
X98574186Y-97352221D01*
X98527615Y-97385784D01*
X98515230Y-97394242D01*
X98327539Y-97525896D01*
X98138940Y-97664611D01*
X97950367Y-97809637D01*
X97762758Y-97960223D01*
X97577046Y-98115621D01*
X97394168Y-98275080D01*
X97215060Y-98437849D01*
X97200800Y-98451157D01*
X97167715Y-98482464D01*
X97130358Y-98518293D01*
X97089621Y-98557761D01*
X97046397Y-98599982D01*
X97001577Y-98644071D01*
X96956054Y-98689144D01*
X96910720Y-98734315D01*
X96866468Y-98778699D01*
X96824190Y-98821412D01*
X96784778Y-98861569D01*
X96749125Y-98898285D01*
X96718122Y-98930675D01*
X96622737Y-99032467D01*
X96440911Y-99233510D01*
X96264769Y-99437856D01*
X96093578Y-99646410D01*
X95926601Y-99860080D01*
X95763104Y-100079772D01*
X95602353Y-100306392D01*
X95594429Y-100317741D01*
X95567597Y-100354587D01*
X95543052Y-100385401D01*
X95519853Y-100411177D01*
X95497060Y-100432906D01*
X95473731Y-100451581D01*
X95448924Y-100468194D01*
X95429371Y-100478997D01*
X95398815Y-100492836D01*
X95365490Y-100505272D01*
X95332405Y-100515207D01*
X95302571Y-100521546D01*
X95295985Y-100522467D01*
X95254069Y-100524871D01*
X95208983Y-100522310D01*
X95163174Y-100515147D01*
X95119091Y-100503743D01*
X95079180Y-100488463D01*
X95071640Y-100484917D01*
X95048212Y-100472879D01*
X95026760Y-100459896D01*
X95006521Y-100445217D01*
X94986736Y-100428086D01*
X94966645Y-100407753D01*
X94945488Y-100383463D01*
X94922505Y-100354465D01*
X94896935Y-100320005D01*
X94868018Y-100279330D01*
X94806886Y-100192902D01*
X94626079Y-99946677D01*
X94438868Y-99705306D01*
X94245401Y-99468940D01*
X94045826Y-99237726D01*
X93840293Y-99011813D01*
X93628951Y-98791351D01*
X93411948Y-98576486D01*
X93189432Y-98367369D01*
X92961553Y-98164147D01*
X92728460Y-97966969D01*
X92490300Y-97775985D01*
X92247223Y-97591341D01*
X91999378Y-97413188D01*
X91985746Y-97403627D01*
X91949235Y-97377572D01*
X91918580Y-97354844D01*
X91893004Y-97334760D01*
X91871734Y-97316638D01*
X91853993Y-97299794D01*
X91839006Y-97283548D01*
X91825999Y-97267215D01*
X91814196Y-97250113D01*
X91806146Y-97237244D01*
X91781580Y-97190242D01*
X91764439Y-97142377D01*
X91754278Y-97092162D01*
X91750653Y-97038110D01*
X91750879Y-97028000D01*
X92421700Y-97028000D01*
X92422519Y-97053802D01*
X92429035Y-97101135D01*
X92442364Y-97144934D01*
X92462873Y-97186255D01*
X92490931Y-97226154D01*
X92491329Y-97226628D01*
X92497011Y-97232759D01*
X92508124Y-97244297D01*
X92524446Y-97261022D01*
X92545754Y-97282710D01*
X92571825Y-97309138D01*
X92602437Y-97340084D01*
X92637366Y-97375325D01*
X92676390Y-97414638D01*
X92719285Y-97457801D01*
X92765829Y-97504591D01*
X92815798Y-97554785D01*
X92868971Y-97608161D01*
X92925124Y-97664496D01*
X92984033Y-97723567D01*
X93045478Y-97785152D01*
X93109233Y-97849027D01*
X93175077Y-97914971D01*
X93242787Y-97982761D01*
X93312139Y-98052173D01*
X93382912Y-98122986D01*
X93454881Y-98194977D01*
X93527824Y-98267922D01*
X93601519Y-98341599D01*
X93675741Y-98415786D01*
X93750269Y-98490260D01*
X93824880Y-98564798D01*
X93899350Y-98639178D01*
X93973457Y-98713176D01*
X94046978Y-98786570D01*
X94119690Y-98859138D01*
X94191370Y-98930657D01*
X94261795Y-99000904D01*
X94330742Y-99069657D01*
X94397989Y-99136692D01*
X94463312Y-99201787D01*
X94526489Y-99264720D01*
X94587297Y-99325267D01*
X94645512Y-99383207D01*
X94700913Y-99438316D01*
X94753275Y-99490371D01*
X94802377Y-99539151D01*
X94847995Y-99584432D01*
X94889906Y-99625992D01*
X94927888Y-99663608D01*
X94961718Y-99697057D01*
X94991172Y-99726116D01*
X95016028Y-99750564D01*
X95036063Y-99770177D01*
X95051054Y-99784733D01*
X95060778Y-99794009D01*
X95065013Y-99797782D01*
X95066182Y-99798558D01*
X95089232Y-99812149D01*
X95115974Y-99825422D01*
X95143050Y-99836828D01*
X95167099Y-99844819D01*
X95185710Y-99848548D01*
X95210562Y-99851384D01*
X95237879Y-99852923D01*
X95265062Y-99853089D01*
X95289514Y-99851806D01*
X95308637Y-99848996D01*
X95310342Y-99848597D01*
X95345974Y-99838096D01*
X95381626Y-99823916D01*
X95413251Y-99807655D01*
X95415507Y-99806055D01*
X95420265Y-99802102D01*
X95427239Y-99795891D01*
X95436563Y-99787288D01*
X95448372Y-99776160D01*
X95462801Y-99762374D01*
X95479984Y-99745796D01*
X95500055Y-99726294D01*
X95523150Y-99703733D01*
X95549401Y-99677980D01*
X95578945Y-99648902D01*
X95611915Y-99616366D01*
X95648446Y-99580238D01*
X95688672Y-99540385D01*
X95732728Y-99496674D01*
X95780749Y-99448970D01*
X95832868Y-99397142D01*
X95889220Y-99341055D01*
X95949941Y-99280576D01*
X96015163Y-99215572D01*
X96085022Y-99145909D01*
X96159653Y-99071454D01*
X96239189Y-98992074D01*
X96323765Y-98907636D01*
X96413516Y-98818005D01*
X96508576Y-98723049D01*
X96609079Y-98622634D01*
X96715161Y-98516627D01*
X96758536Y-98473276D01*
X96843220Y-98388619D01*
X96926432Y-98305409D01*
X97007986Y-98223833D01*
X97087697Y-98144075D01*
X97165380Y-98066321D01*
X97240851Y-97990756D01*
X97313925Y-97917567D01*
X97384417Y-97846939D01*
X97452143Y-97779056D01*
X97516917Y-97714105D01*
X97578554Y-97652272D01*
X97636870Y-97593741D01*
X97691681Y-97538698D01*
X97742800Y-97487329D01*
X97790045Y-97439819D01*
X97833228Y-97396353D01*
X97872167Y-97357119D01*
X97906675Y-97322299D01*
X97936569Y-97292081D01*
X97961663Y-97266650D01*
X97981772Y-97246191D01*
X97996713Y-97230890D01*
X98006299Y-97220932D01*
X98010347Y-97216503D01*
X98023258Y-97198067D01*
X98045902Y-97155890D01*
X98061614Y-97110988D01*
X98070396Y-97064345D01*
X98072248Y-97016947D01*
X98067169Y-96969779D01*
X98055159Y-96923824D01*
X98036218Y-96880069D01*
X98010347Y-96839497D01*
X98009000Y-96837956D01*
X98002124Y-96830703D01*
X97989802Y-96818015D01*
X97972220Y-96800077D01*
X97949563Y-96777075D01*
X97922015Y-96749195D01*
X97889761Y-96716622D01*
X97852987Y-96679542D01*
X97811875Y-96638139D01*
X97766613Y-96592600D01*
X97717384Y-96543111D01*
X97664372Y-96489856D01*
X97607764Y-96433021D01*
X97547744Y-96372792D01*
X97484496Y-96309354D01*
X97418205Y-96242892D01*
X97349057Y-96173593D01*
X97277235Y-96101642D01*
X97202925Y-96027223D01*
X97126312Y-95950524D01*
X97047580Y-95871729D01*
X96966914Y-95791023D01*
X96884499Y-95708593D01*
X96800520Y-95624624D01*
X96715161Y-95539301D01*
X96628178Y-95452363D01*
X96530032Y-95354258D01*
X96437316Y-95261576D01*
X96349868Y-95174159D01*
X96267525Y-95091852D01*
X96190126Y-95014499D01*
X96117508Y-94941943D01*
X96049510Y-94874029D01*
X95985969Y-94810599D01*
X95926724Y-94751499D01*
X95871612Y-94696571D01*
X95820471Y-94645660D01*
X95773139Y-94598609D01*
X95729455Y-94555263D01*
X95689256Y-94515464D01*
X95652380Y-94479058D01*
X95618666Y-94445887D01*
X95587950Y-94415796D01*
X95560071Y-94388628D01*
X95534868Y-94364227D01*
X95512177Y-94342437D01*
X95491837Y-94323102D01*
X95473687Y-94306066D01*
X95457563Y-94291172D01*
X95443304Y-94278265D01*
X95430747Y-94267188D01*
X95419732Y-94257784D01*
X95410095Y-94249899D01*
X95401675Y-94243375D01*
X95394309Y-94238057D01*
X95387836Y-94233788D01*
X95382094Y-94230412D01*
X95376920Y-94227773D01*
X95372153Y-94225714D01*
X95367630Y-94224081D01*
X95363189Y-94222716D01*
X95358669Y-94221463D01*
X95353907Y-94220166D01*
X95348742Y-94218669D01*
X95343010Y-94216815D01*
X95330244Y-94212531D01*
X95316359Y-94208437D01*
X95303727Y-94205822D01*
X95290013Y-94204351D01*
X95272882Y-94203690D01*
X95250000Y-94203506D01*
X95229740Y-94203667D01*
X95205262Y-94204749D01*
X95185681Y-94206983D01*
X95169121Y-94210532D01*
X95147038Y-94217702D01*
X95118036Y-94229633D01*
X95089487Y-94243692D01*
X95065013Y-94258219D01*
X95064704Y-94258452D01*
X95059552Y-94263144D01*
X95048947Y-94273302D01*
X95033112Y-94288704D01*
X95012270Y-94309127D01*
X94986643Y-94334347D01*
X94956455Y-94364143D01*
X94921928Y-94398292D01*
X94883285Y-94436571D01*
X94840750Y-94478757D01*
X94794544Y-94524628D01*
X94744892Y-94573962D01*
X94692015Y-94626534D01*
X94636137Y-94682123D01*
X94577480Y-94740506D01*
X94516268Y-94801461D01*
X94452723Y-94864764D01*
X94387069Y-94930193D01*
X94319527Y-94997526D01*
X94250322Y-95066539D01*
X94179675Y-95137010D01*
X94107811Y-95208717D01*
X94034951Y-95281436D01*
X93961318Y-95354945D01*
X93887136Y-95429021D01*
X93812628Y-95503442D01*
X93738015Y-95577985D01*
X93663522Y-95652427D01*
X93589371Y-95726545D01*
X93515784Y-95800118D01*
X93442986Y-95872921D01*
X93371198Y-95944733D01*
X93300644Y-96015332D01*
X93231546Y-96084493D01*
X93164127Y-96151994D01*
X93098611Y-96217614D01*
X93035220Y-96281129D01*
X92974177Y-96342316D01*
X92915704Y-96400953D01*
X92860026Y-96456817D01*
X92807364Y-96509685D01*
X92757942Y-96559336D01*
X92711982Y-96605545D01*
X92669708Y-96648091D01*
X92631341Y-96686750D01*
X92597106Y-96721301D01*
X92567225Y-96751520D01*
X92541921Y-96777185D01*
X92521417Y-96798073D01*
X92505935Y-96813961D01*
X92495699Y-96824626D01*
X92490931Y-96829847D01*
X92475676Y-96850053D01*
X92451508Y-96890544D01*
X92434702Y-96932995D01*
X92424889Y-96978462D01*
X92421700Y-97028000D01*
X91750879Y-97028000D01*
X91751321Y-97008288D01*
X91758100Y-96952659D01*
X91772213Y-96900235D01*
X91793771Y-96850656D01*
X91822885Y-96803562D01*
X91823275Y-96803018D01*
X91833379Y-96789729D01*
X91844593Y-96776669D01*
X91857614Y-96763243D01*
X91873142Y-96748855D01*
X91891875Y-96732910D01*
X91914511Y-96714812D01*
X91941749Y-96693966D01*
X91974287Y-96669777D01*
X92012824Y-96641648D01*
X92156449Y-96535972D01*
X92408806Y-96342729D01*
X92655267Y-96144085D01*
X92896122Y-95939793D01*
X93131659Y-95729605D01*
X93362169Y-95513273D01*
X93587939Y-95290547D01*
X93729830Y-95144946D01*
X93908553Y-94955057D01*
X94081783Y-94763339D01*
X94250402Y-94568749D01*
X94415289Y-94370245D01*
X94577325Y-94166784D01*
X94737391Y-93957323D01*
X94896365Y-93740819D01*
X94901560Y-93733650D01*
X94919901Y-93708974D01*
X94937732Y-93685891D01*
X94954035Y-93665671D01*
X94967796Y-93649582D01*
X94977997Y-93638893D01*
X94996559Y-93622542D01*
X95041303Y-93590386D01*
X95088967Y-93565202D01*
X95138825Y-93546977D01*
X95190153Y-93535697D01*
X95242224Y-93531347D01*
X95294314Y-93533912D01*
X95345696Y-93543377D01*
X95395645Y-93559729D01*
X95443435Y-93582952D01*
X95488342Y-93613032D01*
X95529639Y-93649955D01*
X95538039Y-93659277D01*
X95551079Y-93674966D01*
X95566977Y-93694962D01*
X95584781Y-93718045D01*
X95603535Y-93742992D01*
X95622286Y-93768583D01*
X95790468Y-93995844D01*
X95985396Y-94246503D01*
X96186968Y-94492729D01*
X96395017Y-94734353D01*
X96609375Y-94971208D01*
X96829873Y-95203127D01*
X97056344Y-95429941D01*
X97288620Y-95651483D01*
X97526532Y-95867585D01*
X97769914Y-96078080D01*
X98018597Y-96282799D01*
X98272413Y-96481575D01*
X98531194Y-96674241D01*
X98535810Y-96677605D01*
X98559096Y-96694986D01*
X98581690Y-96712467D01*
X98602111Y-96728864D01*
X98618875Y-96742990D01*
X98630500Y-96753659D01*
X98656659Y-96782649D01*
X98688220Y-96827901D01*
X98713542Y-96878193D01*
X98732518Y-96933338D01*
X98734948Y-96943585D01*
X98739133Y-96971378D01*
X98741481Y-97003523D01*
X98741683Y-97016947D01*
X98741994Y-97037574D01*
X98740671Y-97071086D01*
G37*
G36*
X95270014Y-95937062D02*
G01*
X95287294Y-95948539D01*
X95301432Y-95966585D01*
X95303294Y-95969957D01*
X95305088Y-95973823D01*
X95306559Y-95978411D01*
X95307738Y-95984457D01*
X95308658Y-95992698D01*
X95309352Y-96003870D01*
X95309853Y-96018711D01*
X95310193Y-96037956D01*
X95310404Y-96062343D01*
X95310519Y-96092608D01*
X95310571Y-96129487D01*
X95310592Y-96173718D01*
X95310659Y-96364794D01*
X95181253Y-96364794D01*
X95181253Y-96176005D01*
X95181255Y-96153169D01*
X95181282Y-96112889D01*
X95181365Y-96079575D01*
X95181537Y-96052478D01*
X95181826Y-96030850D01*
X95182266Y-96013940D01*
X95182886Y-96000999D01*
X95183717Y-95991279D01*
X95184790Y-95984030D01*
X95186137Y-95978502D01*
X95187787Y-95973948D01*
X95189773Y-95969616D01*
X95198159Y-95956058D01*
X95213665Y-95941651D01*
X95231765Y-95933657D01*
X95251026Y-95932114D01*
X95270014Y-95937062D01*
G37*
G36*
X95086743Y-95938443D02*
G01*
X95103219Y-95950836D01*
X95116117Y-95969616D01*
X95117148Y-95971787D01*
X95118963Y-95976136D01*
X95120459Y-95981080D01*
X95121666Y-95987369D01*
X95122615Y-95995753D01*
X95123337Y-96006979D01*
X95123863Y-96021799D01*
X95124224Y-96040960D01*
X95124451Y-96065211D01*
X95124575Y-96095304D01*
X95124627Y-96131985D01*
X95124637Y-96176005D01*
X95124637Y-96364794D01*
X94995231Y-96364794D01*
X94995298Y-96173718D01*
X94995315Y-96134582D01*
X94995362Y-96096827D01*
X94995467Y-96065778D01*
X94995665Y-96040699D01*
X94995987Y-96020854D01*
X94996465Y-96005504D01*
X94997134Y-95993915D01*
X94998024Y-95985349D01*
X94999169Y-95979069D01*
X95000601Y-95974340D01*
X95002354Y-95970424D01*
X95004458Y-95966585D01*
X95013741Y-95953507D01*
X95030187Y-95939967D01*
X95048793Y-95932969D01*
X95068123Y-95932474D01*
X95086743Y-95938443D01*
G37*
G36*
X95266175Y-96955209D02*
G01*
X95266094Y-96977770D01*
X95265787Y-97003156D01*
X95265285Y-97024786D01*
X95264622Y-97041576D01*
X95263832Y-97052445D01*
X95262951Y-97056308D01*
X95262748Y-97056289D01*
X95257134Y-97054679D01*
X95245669Y-97050854D01*
X95229904Y-97045345D01*
X95211390Y-97038681D01*
X95197840Y-97033697D01*
X95182103Y-97027609D01*
X95172061Y-97023029D01*
X95166522Y-97019271D01*
X95164293Y-97015647D01*
X95164182Y-97011470D01*
X95165569Y-97004906D01*
X95168613Y-96998583D01*
X95170023Y-96998166D01*
X95177770Y-96999160D01*
X95190287Y-97002458D01*
X95205667Y-97007596D01*
X95212767Y-97010177D01*
X95226675Y-97015166D01*
X95236570Y-97018621D01*
X95240664Y-97019912D01*
X95240765Y-97019641D01*
X95241130Y-97013884D01*
X95241445Y-97001547D01*
X95241692Y-96983826D01*
X95241854Y-96961915D01*
X95241912Y-96937012D01*
X95241912Y-96854111D01*
X95266175Y-96854111D01*
X95266175Y-96955209D01*
G37*
%TD*%
M02*
