%TF.GenerationSoftware,KiCad,Pcbnew,(6.0.7-1)-1*%
%TF.CreationDate,2023-01-16T13:52:53-08:00*%
%TF.ProjectId,updated_boost_USB_charger,75706461-7465-4645-9f62-6f6f73745f55,rev?*%
%TF.SameCoordinates,Original*%
%TF.FileFunction,Copper,L1,Top*%
%TF.FilePolarity,Positive*%
%FSLAX46Y46*%
G04 Gerber Fmt 4.6, Leading zero omitted, Abs format (unit mm)*
G04 Created by KiCad (PCBNEW (6.0.7-1)-1) date 2023-01-16 13:52:53*
%MOMM*%
%LPD*%
G01*
G04 APERTURE LIST*
G04 Aperture macros list*
%AMRoundRect*
0 Rectangle with rounded corners*
0 $1 Rounding radius*
0 $2 $3 $4 $5 $6 $7 $8 $9 X,Y pos of 4 corners*
0 Add a 4 corners polygon primitive as box body*
4,1,4,$2,$3,$4,$5,$6,$7,$8,$9,$2,$3,0*
0 Add four circle primitives for the rounded corners*
1,1,$1+$1,$2,$3*
1,1,$1+$1,$4,$5*
1,1,$1+$1,$6,$7*
1,1,$1+$1,$8,$9*
0 Add four rect primitives between the rounded corners*
20,1,$1+$1,$2,$3,$4,$5,0*
20,1,$1+$1,$4,$5,$6,$7,0*
20,1,$1+$1,$6,$7,$8,$9,0*
20,1,$1+$1,$8,$9,$2,$3,0*%
G04 Aperture macros list end*
%TA.AperFunction,SMDPad,CuDef*%
%ADD10RoundRect,0.100000X-0.675000X-0.100000X0.675000X-0.100000X0.675000X0.100000X-0.675000X0.100000X0*%
%TD*%
%TA.AperFunction,ComponentPad*%
%ADD11C,0.600000*%
%TD*%
%TA.AperFunction,SMDPad,CuDef*%
%ADD12R,3.000000X3.000000*%
%TD*%
%TA.AperFunction,SMDPad,CuDef*%
%ADD13RoundRect,0.237500X-0.237500X0.250000X-0.237500X-0.250000X0.237500X-0.250000X0.237500X0.250000X0*%
%TD*%
%TA.AperFunction,ComponentPad*%
%ADD14O,1.700000X1.700000*%
%TD*%
%TA.AperFunction,ComponentPad*%
%ADD15R,1.700000X1.700000*%
%TD*%
%TA.AperFunction,SMDPad,CuDef*%
%ADD16RoundRect,0.250000X0.475000X-0.337500X0.475000X0.337500X-0.475000X0.337500X-0.475000X-0.337500X0*%
%TD*%
%TA.AperFunction,SMDPad,CuDef*%
%ADD17R,0.800000X1.800000*%
%TD*%
%TA.AperFunction,ComponentPad*%
%ADD18O,1.600000X1.600000*%
%TD*%
%TA.AperFunction,ComponentPad*%
%ADD19R,1.600000X1.600000*%
%TD*%
%TA.AperFunction,SMDPad,CuDef*%
%ADD20RoundRect,0.237500X0.237500X-0.250000X0.237500X0.250000X-0.237500X0.250000X-0.237500X-0.250000X0*%
%TD*%
%TA.AperFunction,ComponentPad*%
%ADD21C,2.000000*%
%TD*%
%TA.AperFunction,SMDPad,CuDef*%
%ADD22RoundRect,0.237500X0.237500X-0.300000X0.237500X0.300000X-0.237500X0.300000X-0.237500X-0.300000X0*%
%TD*%
%TA.AperFunction,SMDPad,CuDef*%
%ADD23RoundRect,0.250000X0.450000X-0.325000X0.450000X0.325000X-0.450000X0.325000X-0.450000X-0.325000X0*%
%TD*%
%TA.AperFunction,SMDPad,CuDef*%
%ADD24RoundRect,0.250000X-0.475000X0.337500X-0.475000X-0.337500X0.475000X-0.337500X0.475000X0.337500X0*%
%TD*%
%TA.AperFunction,SMDPad,CuDef*%
%ADD25R,3.100000X5.000000*%
%TD*%
%TA.AperFunction,SMDPad,CuDef*%
%ADD26RoundRect,0.250000X-1.450000X0.400000X-1.450000X-0.400000X1.450000X-0.400000X1.450000X0.400000X0*%
%TD*%
%TA.AperFunction,ComponentPad*%
%ADD27R,1.500000X1.600000*%
%TD*%
%TA.AperFunction,ComponentPad*%
%ADD28C,1.600000*%
%TD*%
%TA.AperFunction,ComponentPad*%
%ADD29C,3.000000*%
%TD*%
%TA.AperFunction,ViaPad*%
%ADD30C,0.800000*%
%TD*%
%TA.AperFunction,Conductor*%
%ADD31C,0.254000*%
%TD*%
%TA.AperFunction,Conductor*%
%ADD32C,0.508000*%
%TD*%
G04 APERTURE END LIST*
D10*
%TO.P,U1,1,SW*%
%TO.N,Net-(L1-Pad2)*%
X106599000Y-107580000D03*
%TO.P,U1,2,SW*%
X106599000Y-108230000D03*
%TO.P,U1,3,PGND*%
%TO.N,GND*%
X106599000Y-108880000D03*
%TO.P,U1,4,PGND*%
X106599000Y-109530000D03*
%TO.P,U1,5,PGND*%
X106599000Y-110180000D03*
%TO.P,U1,6,VBAT*%
%TO.N,/V_BAT*%
X106599000Y-110830000D03*
%TO.P,U1,7,LBI*%
%TO.N,Net-(R2-Pad2)*%
X106599000Y-111480000D03*
%TO.P,U1,8,SYNC*%
%TO.N,GND*%
X106599000Y-112130000D03*
%TO.P,U1,9,EN*%
%TO.N,/V_BAT*%
X112349000Y-112130000D03*
%TO.P,U1,10,LBO*%
%TO.N,/LBO*%
X112349000Y-111480000D03*
%TO.P,U1,11,GND*%
%TO.N,GND*%
X112349000Y-110830000D03*
%TO.P,U1,12,FB*%
%TO.N,Net-(R4-Pad2)*%
X112349000Y-110180000D03*
%TO.P,U1,13,VOUT*%
%TO.N,+5V*%
X112349000Y-109530000D03*
%TO.P,U1,14,VOUT*%
X112349000Y-108880000D03*
%TO.P,U1,15,VOUT*%
X112349000Y-108230000D03*
%TO.P,U1,16,NC*%
%TO.N,unconnected-(U1-Pad16)*%
X112349000Y-107580000D03*
D11*
%TO.P,U1,17,PPAD*%
%TO.N,GND*%
X108274000Y-111055000D03*
X108274000Y-108655000D03*
X110674000Y-108655000D03*
X110674000Y-111055000D03*
D12*
X109474000Y-109855000D03*
%TD*%
D13*
%TO.P,R1,1*%
%TO.N,Net-(Q1-Pad1)*%
X97282000Y-107926500D03*
%TO.P,R1,2*%
%TO.N,GND*%
X97282000Y-109751500D03*
%TD*%
D14*
%TO.P,BT1,1,+*%
%TO.N,Net-(BT1-Pad1)*%
X90932000Y-108072000D03*
D15*
%TO.P,BT1,2,-*%
%TO.N,GND*%
X90932000Y-110612000D03*
%TD*%
D16*
%TO.P,C1,1*%
%TO.N,/V_BAT*%
X104902000Y-117983000D03*
%TO.P,C1,2*%
%TO.N,GND*%
X104902000Y-115908000D03*
%TD*%
D17*
%TO.P,Q1,1,G*%
%TO.N,Net-(Q1-Pad1)*%
X96332000Y-101853000D03*
%TO.P,Q1,2,S*%
%TO.N,/V_BAT*%
X98232000Y-101853000D03*
%TO.P,Q1,3,D*%
%TO.N,Net-(F1-Pad1)*%
X97282000Y-98553000D03*
%TD*%
D18*
%TO.P,C4,1*%
%TO.N,+5V*%
X118618000Y-116459000D03*
D19*
%TO.P,C4,2*%
%TO.N,GND*%
X118618000Y-118959000D03*
%TD*%
D20*
%TO.P,R7,1*%
%TO.N,+5V*%
X131318000Y-94511500D03*
%TO.P,R7,2*%
%TO.N,Net-(D1_GRN1-Pad2)*%
X131318000Y-92686500D03*
%TD*%
D13*
%TO.P,R6,1*%
%TO.N,+5V*%
X119634000Y-100306500D03*
%TO.P,R6,2*%
%TO.N,/LBO*%
X119634000Y-102131500D03*
%TD*%
D20*
%TO.P,R8,1*%
%TO.N,+5V*%
X123698000Y-94408000D03*
%TO.P,R8,2*%
%TO.N,Net-(D2_RED1-Pad2)*%
X123698000Y-92583000D03*
%TD*%
D13*
%TO.P,R3,1*%
%TO.N,Net-(R2-Pad2)*%
X99314000Y-115800500D03*
%TO.P,R3,2*%
%TO.N,GND*%
X99314000Y-117625500D03*
%TD*%
D20*
%TO.P,R2,1*%
%TO.N,/V_BAT*%
X102108000Y-117726000D03*
%TO.P,R2,2*%
%TO.N,Net-(R2-Pad2)*%
X102108000Y-115901000D03*
%TD*%
%TO.P,R5,1*%
%TO.N,Net-(R4-Pad2)*%
X117856000Y-94408000D03*
%TO.P,R5,2*%
%TO.N,GND*%
X117856000Y-92583000D03*
%TD*%
D21*
%TO.P,Test Point,1*%
%TO.N,/V_BAT*%
X102362000Y-108331000D03*
%TD*%
D22*
%TO.P,C2,1*%
%TO.N,/V_BAT*%
X107950000Y-117808000D03*
%TO.P,C2,2*%
%TO.N,GND*%
X107950000Y-116083000D03*
%TD*%
D13*
%TO.P,R4,1*%
%TO.N,+5V*%
X120396000Y-92686500D03*
%TO.P,R4,2*%
%TO.N,Net-(R4-Pad2)*%
X120396000Y-94511500D03*
%TD*%
D20*
%TO.P,R9,1*%
%TO.N,Net-(J1-Pad2)*%
X119634000Y-107719500D03*
%TO.P,R9,2*%
%TO.N,Net-(J1-Pad3)*%
X119634000Y-105894500D03*
%TD*%
D23*
%TO.P,D2,1,K*%
%TO.N,/LBO*%
X126746000Y-94624000D03*
%TO.P,D2,2,A*%
%TO.N,Net-(D2_RED1-Pad2)*%
X126746000Y-92574000D03*
%TD*%
D24*
%TO.P,C3,1*%
%TO.N,+5V*%
X110998000Y-115929500D03*
%TO.P,C3,2*%
%TO.N,GND*%
X110998000Y-118004500D03*
%TD*%
D25*
%TO.P,L1,1,1*%
%TO.N,/V_BAT*%
X102908000Y-98171000D03*
%TO.P,L1,2,2*%
%TO.N,Net-(L1-Pad2)*%
X114008000Y-98171000D03*
%TD*%
D23*
%TO.P,D1,1,K*%
%TO.N,GND*%
X133858000Y-94624000D03*
%TO.P,D1,2,A*%
%TO.N,Net-(D1_GRN1-Pad2)*%
X133858000Y-92574000D03*
%TD*%
D26*
%TO.P,F1,1*%
%TO.N,Net-(F1-Pad1)*%
X91186000Y-97912000D03*
%TO.P,F1,2*%
%TO.N,Net-(BT1-Pad1)*%
X91186000Y-102362000D03*
%TD*%
D27*
%TO.P,J1,1,VBUS*%
%TO.N,+5V*%
X125196000Y-110180000D03*
D28*
%TO.P,J1,2,D-*%
%TO.N,Net-(J1-Pad2)*%
X125196000Y-107680000D03*
%TO.P,J1,3,D+*%
%TO.N,Net-(J1-Pad3)*%
X125196000Y-105680000D03*
%TO.P,J1,4,GND*%
%TO.N,GND*%
X125196000Y-103180000D03*
D29*
%TO.P,J1,5,Shield*%
X127906000Y-100110000D03*
X127906000Y-113250000D03*
%TD*%
D30*
%TO.N,GND*%
X106299000Y-120523000D03*
X96774000Y-120523000D03*
X89281000Y-115443000D03*
X136398000Y-106807000D03*
X125222000Y-115951000D03*
X136398000Y-115951000D03*
X113284000Y-120523000D03*
X136398000Y-98171000D03*
%TO.N,/V_BAT*%
X108204000Y-113665000D03*
X104140000Y-110109000D03*
%TO.N,+5V*%
X115316000Y-111633000D03*
X129794000Y-94107000D03*
X125222000Y-94107000D03*
X115326783Y-107563286D03*
%TO.N,Net-(R4-Pad2)*%
X116326286Y-107563286D03*
X117348000Y-98933000D03*
%TD*%
D31*
%TO.N,GND*%
X110449000Y-110830000D02*
X112349000Y-110830000D01*
X106598999Y-108879996D02*
X106598999Y-109530007D01*
X108483400Y-108864400D02*
X106614595Y-108864400D01*
X106598999Y-112130002D02*
X108851395Y-112130002D01*
X106598999Y-109530007D02*
X106598999Y-110179993D01*
X109474000Y-109855000D02*
X110449000Y-110830000D01*
X109474000Y-109855000D02*
X108483400Y-108864400D01*
X109143800Y-110185200D02*
X106604206Y-110185200D01*
X108851395Y-112130002D02*
X109474000Y-111507397D01*
X109474000Y-111507397D02*
X109474000Y-109855000D01*
X109143800Y-110185200D02*
X109474000Y-109855000D01*
%TO.N,/V_BAT*%
X109474000Y-114935000D02*
X112279000Y-112130000D01*
X104140000Y-110109000D02*
X104861000Y-110830000D01*
X109474000Y-116284000D02*
X109474000Y-114935000D01*
D32*
X104595000Y-117676000D02*
X104902000Y-117983000D01*
X107775000Y-117983000D02*
X107950000Y-117808000D01*
X102108000Y-117676000D02*
X104595000Y-117676000D01*
X104902000Y-117983000D02*
X107775000Y-117983000D01*
D31*
X108204000Y-113665000D02*
X109474000Y-114935000D01*
X104861000Y-110830000D02*
X106599000Y-110830000D01*
X112279000Y-112130000D02*
X112349000Y-112130000D01*
X107950000Y-117808000D02*
X109474000Y-116284000D01*
%TO.N,+5V*%
X113077183Y-109530007D02*
X113450520Y-109156670D01*
X118310190Y-102997000D02*
X118364000Y-102997000D01*
X114824497Y-107061000D02*
X114246190Y-107061000D01*
X113077190Y-108230000D02*
X113892095Y-107415095D01*
X113450520Y-109156670D02*
X113450520Y-108603330D01*
X131318000Y-94511500D02*
X130198500Y-94511500D01*
X125222000Y-94107000D02*
X123999000Y-94107000D01*
X130198500Y-94511500D02*
X129794000Y-94107000D01*
X111527500Y-115929500D02*
X110998000Y-115929500D01*
X112349001Y-109530007D02*
X113077183Y-109530007D01*
X113892095Y-107415095D02*
X118310190Y-102997000D01*
X115326783Y-107563286D02*
X114824497Y-107061000D01*
X118364000Y-102997000D02*
X118364000Y-101576500D01*
X113450520Y-108603330D02*
X113077190Y-108230000D01*
X123999000Y-94107000D02*
X123698000Y-94408000D01*
X118364000Y-101576500D02*
X119634000Y-100306500D01*
X112349000Y-108230000D02*
X113077190Y-108230000D01*
D32*
X119176000Y-116459000D02*
X118618000Y-116459000D01*
%TO.N,Net-(D1_GRN1-Pad2)*%
X133858000Y-92574000D02*
X131430500Y-92574000D01*
X131430500Y-92574000D02*
X131318000Y-92686500D01*
%TO.N,Net-(J1-Pad2)*%
X119634000Y-107719500D02*
X119721500Y-107807000D01*
X119721500Y-107807000D02*
X125069000Y-107807000D01*
X125069000Y-107807000D02*
X125196000Y-107680000D01*
%TO.N,Net-(J1-Pad3)*%
X119634000Y-105894500D02*
X119721500Y-105807000D01*
X125069000Y-105807000D02*
X125196000Y-105680000D01*
X119721500Y-105807000D02*
X125069000Y-105807000D01*
%TO.N,/LBO*%
X126746000Y-94624000D02*
X126746000Y-95019500D01*
D31*
X118832480Y-102933020D02*
X118832480Y-103798520D01*
X117094000Y-108458000D02*
X114072000Y-111480000D01*
X119634000Y-102131500D02*
X118832480Y-102933020D01*
X117094000Y-105537000D02*
X117094000Y-108458000D01*
X118832480Y-103798520D02*
X117094000Y-105537000D01*
X114072000Y-111480000D02*
X112349000Y-111480000D01*
D32*
X126746000Y-95019500D02*
X119634000Y-102131500D01*
%TO.N,Net-(D2_RED1-Pad2)*%
X123698000Y-92583000D02*
X126737000Y-92583000D01*
X126737000Y-92583000D02*
X126746000Y-92574000D01*
D31*
%TO.N,Net-(L1-Pad2)*%
X106599000Y-107580000D02*
X106598999Y-108230010D01*
D32*
%TO.N,Net-(Q1-Pad1)*%
X96332000Y-101853000D02*
X96332000Y-106851500D01*
X96332000Y-106851500D02*
X97282000Y-107801500D01*
D31*
%TO.N,Net-(R2-Pad2)*%
X102108000Y-115242810D02*
X105870810Y-111480000D01*
D32*
X99314000Y-115800500D02*
X101957500Y-115800500D01*
X101957500Y-115800500D02*
X102108000Y-115951000D01*
D31*
X105870810Y-111480000D02*
X106599000Y-111480000D01*
X102108000Y-115951000D02*
X102108000Y-115242810D01*
%TO.N,Net-(R4-Pad2)*%
X114730626Y-110180000D02*
X112349000Y-110180000D01*
X116326286Y-107563286D02*
X116326286Y-108584340D01*
D32*
X120396000Y-94511500D02*
X117959500Y-94511500D01*
D31*
X117348000Y-94916000D02*
X117856000Y-94408000D01*
X116326286Y-108584340D02*
X114730626Y-110180000D01*
D32*
X117959500Y-94511500D02*
X117856000Y-94408000D01*
D31*
X117348000Y-98933000D02*
X117348000Y-94916000D01*
%TD*%
%TA.AperFunction,Conductor*%
%TO.N,Net-(L1-Pad2)*%
G36*
X116147121Y-90063502D02*
G01*
X116193614Y-90117158D01*
X116205000Y-90169500D01*
X116205000Y-95308947D01*
X116184998Y-95377068D01*
X116131342Y-95423561D01*
X116061068Y-95433665D01*
X115996488Y-95404171D01*
X115978173Y-95384512D01*
X115926281Y-95315272D01*
X115913724Y-95302715D01*
X115811649Y-95226214D01*
X115796054Y-95217676D01*
X115675606Y-95172522D01*
X115660351Y-95168895D01*
X115609486Y-95163369D01*
X115602672Y-95163000D01*
X114280115Y-95163000D01*
X114264876Y-95167475D01*
X114263671Y-95168865D01*
X114262000Y-95176548D01*
X114262000Y-101160884D01*
X114266475Y-101176123D01*
X114267865Y-101177328D01*
X114275548Y-101178999D01*
X115602669Y-101178999D01*
X115609490Y-101178629D01*
X115660352Y-101173105D01*
X115675604Y-101169479D01*
X115796054Y-101124324D01*
X115811649Y-101115786D01*
X115913724Y-101039285D01*
X115926281Y-101026728D01*
X115978173Y-100957488D01*
X116035033Y-100914973D01*
X116105851Y-100909947D01*
X116168145Y-100944007D01*
X116202135Y-101006338D01*
X116205000Y-101033053D01*
X116205000Y-104141000D01*
X116184998Y-104209121D01*
X116131342Y-104255614D01*
X116079000Y-104267000D01*
X111125000Y-104267000D01*
X111125000Y-107190253D01*
X111115409Y-107238470D01*
X111081162Y-107321150D01*
X111065500Y-107440115D01*
X111065501Y-107563286D01*
X111065501Y-107670941D01*
X111045499Y-107739062D01*
X110991844Y-107785555D01*
X110939055Y-107796941D01*
X107895084Y-107786159D01*
X107860750Y-107781265D01*
X107856345Y-107780000D01*
X106817115Y-107780000D01*
X106809237Y-107782313D01*
X106399000Y-107780860D01*
X106399000Y-107361885D01*
X106799000Y-107361885D01*
X106803475Y-107377124D01*
X106804865Y-107378329D01*
X106812548Y-107380000D01*
X107855965Y-107380000D01*
X107869736Y-107375956D01*
X107871765Y-107362417D01*
X107867428Y-107329467D01*
X107863190Y-107313652D01*
X107808247Y-107181007D01*
X107800059Y-107166824D01*
X107712656Y-107052920D01*
X107701080Y-107041344D01*
X107587176Y-106953941D01*
X107572993Y-106945753D01*
X107440350Y-106890810D01*
X107424532Y-106886572D01*
X107317934Y-106872538D01*
X107309725Y-106872000D01*
X106817115Y-106872000D01*
X106801876Y-106876475D01*
X106800671Y-106877865D01*
X106799000Y-106885548D01*
X106799000Y-107361885D01*
X106399000Y-107361885D01*
X106399000Y-106890116D01*
X106394525Y-106874877D01*
X106393135Y-106873672D01*
X106385452Y-106872001D01*
X105897562Y-106872001D01*
X105829441Y-106851999D01*
X105782948Y-106798343D01*
X105771562Y-106745795D01*
X105775610Y-104272865D01*
X105781431Y-100715669D01*
X111950001Y-100715669D01*
X111950371Y-100722490D01*
X111955895Y-100773352D01*
X111959521Y-100788604D01*
X112004676Y-100909054D01*
X112013214Y-100924649D01*
X112089715Y-101026724D01*
X112102276Y-101039285D01*
X112204351Y-101115786D01*
X112219946Y-101124324D01*
X112340394Y-101169478D01*
X112355649Y-101173105D01*
X112406514Y-101178631D01*
X112413328Y-101179000D01*
X113735885Y-101179000D01*
X113751124Y-101174525D01*
X113752329Y-101173135D01*
X113754000Y-101165452D01*
X113754000Y-98443115D01*
X113749525Y-98427876D01*
X113748135Y-98426671D01*
X113740452Y-98425000D01*
X111968116Y-98425000D01*
X111952877Y-98429475D01*
X111951672Y-98430865D01*
X111950001Y-98438548D01*
X111950001Y-100715669D01*
X105781431Y-100715669D01*
X105786041Y-97898885D01*
X111950000Y-97898885D01*
X111954475Y-97914124D01*
X111955865Y-97915329D01*
X111963548Y-97917000D01*
X113735885Y-97917000D01*
X113751124Y-97912525D01*
X113752329Y-97911135D01*
X113754000Y-97903452D01*
X113754000Y-95181116D01*
X113749525Y-95165877D01*
X113748135Y-95164672D01*
X113740452Y-95163001D01*
X112413331Y-95163001D01*
X112406510Y-95163371D01*
X112355648Y-95168895D01*
X112340396Y-95172521D01*
X112219946Y-95217676D01*
X112204351Y-95226214D01*
X112102276Y-95302715D01*
X112089715Y-95315276D01*
X112013214Y-95417351D01*
X112004676Y-95432946D01*
X111959522Y-95553394D01*
X111955895Y-95568649D01*
X111950369Y-95619514D01*
X111950000Y-95626328D01*
X111950000Y-97898885D01*
X105786041Y-97898885D01*
X105791000Y-94869000D01*
X105791000Y-90169500D01*
X105811002Y-90101379D01*
X105864658Y-90054886D01*
X105917000Y-90043500D01*
X116079000Y-90043500D01*
X116147121Y-90063502D01*
G37*
%TD.AperFunction*%
%TD*%
%TA.AperFunction,Conductor*%
%TO.N,Net-(BT1-Pad1)*%
G36*
X89326439Y-101112002D02*
G01*
X89372932Y-101165658D01*
X89383036Y-101235932D01*
X89353542Y-101300512D01*
X89324621Y-101325144D01*
X89268193Y-101360063D01*
X89256792Y-101369099D01*
X89142261Y-101483829D01*
X89133249Y-101495240D01*
X89048184Y-101633243D01*
X89042037Y-101646424D01*
X88990862Y-101800710D01*
X88987995Y-101814086D01*
X88978328Y-101908438D01*
X88978000Y-101914855D01*
X88978000Y-102089885D01*
X88982475Y-102105124D01*
X88983865Y-102106329D01*
X88991548Y-102108000D01*
X93375884Y-102108000D01*
X93391123Y-102103525D01*
X93392328Y-102102135D01*
X93393999Y-102094452D01*
X93393999Y-101914905D01*
X93393662Y-101908386D01*
X93383743Y-101812794D01*
X93380851Y-101799400D01*
X93329412Y-101645216D01*
X93323239Y-101632038D01*
X93237937Y-101494193D01*
X93228901Y-101482792D01*
X93114171Y-101368261D01*
X93102760Y-101359249D01*
X93047619Y-101325260D01*
X93000126Y-101272488D01*
X92988702Y-101202417D01*
X93016976Y-101137293D01*
X93075970Y-101097793D01*
X93113735Y-101092000D01*
X95297500Y-101092000D01*
X95365621Y-101112002D01*
X95412114Y-101165658D01*
X95423500Y-101218000D01*
X95423500Y-102801134D01*
X95430255Y-102863316D01*
X95481385Y-102999705D01*
X95486767Y-103006886D01*
X95488519Y-103010086D01*
X95504000Y-103070596D01*
X95504000Y-108713000D01*
X95483998Y-108781121D01*
X95430342Y-108827614D01*
X95378000Y-108839000D01*
X92270629Y-108839000D01*
X92202508Y-108818998D01*
X92156015Y-108765342D01*
X92145911Y-108695068D01*
X92157672Y-108657172D01*
X92196672Y-108578262D01*
X92200469Y-108568672D01*
X92262377Y-108364910D01*
X92264555Y-108354837D01*
X92265986Y-108343962D01*
X92263775Y-108329778D01*
X92250617Y-108326000D01*
X89615225Y-108326000D01*
X89601694Y-108329973D01*
X89600257Y-108339966D01*
X89630565Y-108474446D01*
X89633644Y-108484275D01*
X89707271Y-108665596D01*
X89714367Y-108736237D01*
X89682145Y-108799500D01*
X89620835Y-108835301D01*
X89590528Y-108839000D01*
X88264500Y-108839000D01*
X88196379Y-108818998D01*
X88149886Y-108765342D01*
X88138500Y-108713000D01*
X88138500Y-107806183D01*
X89596389Y-107806183D01*
X89597912Y-107814607D01*
X89610292Y-107818000D01*
X90659885Y-107818000D01*
X90675124Y-107813525D01*
X90676329Y-107812135D01*
X90678000Y-107804452D01*
X90678000Y-107799885D01*
X91186000Y-107799885D01*
X91190475Y-107815124D01*
X91191865Y-107816329D01*
X91199548Y-107818000D01*
X92250344Y-107818000D01*
X92263875Y-107814027D01*
X92265180Y-107804947D01*
X92223214Y-107637875D01*
X92219894Y-107628124D01*
X92134972Y-107432814D01*
X92130105Y-107423739D01*
X92014426Y-107244926D01*
X92008136Y-107236757D01*
X91864806Y-107079240D01*
X91857273Y-107072215D01*
X91690139Y-106940222D01*
X91681552Y-106934517D01*
X91495117Y-106831599D01*
X91485705Y-106827369D01*
X91284959Y-106756280D01*
X91274988Y-106753646D01*
X91203837Y-106740972D01*
X91190540Y-106742432D01*
X91186000Y-106756989D01*
X91186000Y-107799885D01*
X90678000Y-107799885D01*
X90678000Y-106755102D01*
X90674082Y-106741758D01*
X90659806Y-106739771D01*
X90621324Y-106745660D01*
X90611288Y-106748051D01*
X90408868Y-106814212D01*
X90399359Y-106818209D01*
X90210463Y-106916542D01*
X90201738Y-106922036D01*
X90031433Y-107049905D01*
X90023726Y-107056748D01*
X89876590Y-107210717D01*
X89870104Y-107218727D01*
X89750098Y-107394649D01*
X89745000Y-107403623D01*
X89655338Y-107596783D01*
X89651775Y-107606470D01*
X89596389Y-107806183D01*
X88138500Y-107806183D01*
X88138500Y-102809095D01*
X88978001Y-102809095D01*
X88978338Y-102815614D01*
X88988257Y-102911206D01*
X88991149Y-102924600D01*
X89042588Y-103078784D01*
X89048761Y-103091962D01*
X89134063Y-103229807D01*
X89143099Y-103241208D01*
X89257829Y-103355739D01*
X89269240Y-103364751D01*
X89407243Y-103449816D01*
X89420424Y-103455963D01*
X89574710Y-103507138D01*
X89588086Y-103510005D01*
X89682438Y-103519672D01*
X89688854Y-103520000D01*
X90913885Y-103520000D01*
X90929124Y-103515525D01*
X90930329Y-103514135D01*
X90932000Y-103506452D01*
X90932000Y-103501884D01*
X91440000Y-103501884D01*
X91444475Y-103517123D01*
X91445865Y-103518328D01*
X91453548Y-103519999D01*
X92683095Y-103519999D01*
X92689614Y-103519662D01*
X92785206Y-103509743D01*
X92798600Y-103506851D01*
X92952784Y-103455412D01*
X92965962Y-103449239D01*
X93103807Y-103363937D01*
X93115208Y-103354901D01*
X93229739Y-103240171D01*
X93238751Y-103228760D01*
X93323816Y-103090757D01*
X93329963Y-103077576D01*
X93381138Y-102923290D01*
X93384005Y-102909914D01*
X93393672Y-102815562D01*
X93394000Y-102809146D01*
X93394000Y-102634115D01*
X93389525Y-102618876D01*
X93388135Y-102617671D01*
X93380452Y-102616000D01*
X91458115Y-102616000D01*
X91442876Y-102620475D01*
X91441671Y-102621865D01*
X91440000Y-102629548D01*
X91440000Y-103501884D01*
X90932000Y-103501884D01*
X90932000Y-102634115D01*
X90927525Y-102618876D01*
X90926135Y-102617671D01*
X90918452Y-102616000D01*
X88996116Y-102616000D01*
X88980877Y-102620475D01*
X88979672Y-102621865D01*
X88978001Y-102629548D01*
X88978001Y-102809095D01*
X88138500Y-102809095D01*
X88138500Y-101218000D01*
X88158502Y-101149879D01*
X88212158Y-101103386D01*
X88264500Y-101092000D01*
X89258318Y-101092000D01*
X89326439Y-101112002D01*
G37*
%TD.AperFunction*%
%TD*%
%TA.AperFunction,Conductor*%
%TO.N,/V_BAT*%
G36*
X104971121Y-90063502D02*
G01*
X105017614Y-90117158D01*
X105029000Y-90169500D01*
X105029000Y-95213801D01*
X105008998Y-95281922D01*
X104955342Y-95328415D01*
X104885068Y-95338519D01*
X104820488Y-95309025D01*
X104813905Y-95302896D01*
X104813724Y-95302715D01*
X104711649Y-95226214D01*
X104696054Y-95217676D01*
X104575606Y-95172522D01*
X104560351Y-95168895D01*
X104509486Y-95163369D01*
X104502672Y-95163000D01*
X103180115Y-95163000D01*
X103164876Y-95167475D01*
X103163671Y-95168865D01*
X103162000Y-95176548D01*
X103162000Y-101160884D01*
X103166475Y-101176123D01*
X103167865Y-101177328D01*
X103175548Y-101178999D01*
X104502669Y-101178999D01*
X104509490Y-101178629D01*
X104560352Y-101173105D01*
X104575604Y-101169479D01*
X104696054Y-101124324D01*
X104711649Y-101115786D01*
X104813724Y-101039285D01*
X104813905Y-101039104D01*
X104814128Y-101038982D01*
X104820904Y-101033904D01*
X104821637Y-101034882D01*
X104876217Y-101005078D01*
X104947032Y-101010143D01*
X105003868Y-101052690D01*
X105028679Y-101119210D01*
X105029000Y-101128199D01*
X105029000Y-110872000D01*
X105008998Y-110940121D01*
X104955342Y-110986614D01*
X104903000Y-110998000D01*
X99059000Y-110998000D01*
X98990879Y-110977998D01*
X98944386Y-110924342D01*
X98933000Y-110872000D01*
X98933000Y-109563670D01*
X101494160Y-109563670D01*
X101499887Y-109571320D01*
X101671042Y-109676205D01*
X101679837Y-109680687D01*
X101889988Y-109767734D01*
X101899373Y-109770783D01*
X102120554Y-109823885D01*
X102130301Y-109825428D01*
X102357070Y-109843275D01*
X102366930Y-109843275D01*
X102593699Y-109825428D01*
X102603446Y-109823885D01*
X102824627Y-109770783D01*
X102834012Y-109767734D01*
X103044163Y-109680687D01*
X103052958Y-109676205D01*
X103220445Y-109573568D01*
X103229907Y-109563110D01*
X103226124Y-109554334D01*
X102374812Y-108703022D01*
X102360868Y-108695408D01*
X102359035Y-108695539D01*
X102352420Y-108699790D01*
X101500920Y-109551290D01*
X101494160Y-109563670D01*
X98933000Y-109563670D01*
X98933000Y-108335930D01*
X100849725Y-108335930D01*
X100867572Y-108562699D01*
X100869115Y-108572446D01*
X100922217Y-108793627D01*
X100925266Y-108803012D01*
X101012313Y-109013163D01*
X101016795Y-109021958D01*
X101119432Y-109189445D01*
X101129890Y-109198907D01*
X101138666Y-109195124D01*
X101989978Y-108343812D01*
X101996356Y-108332132D01*
X102726408Y-108332132D01*
X102726539Y-108333965D01*
X102730790Y-108340580D01*
X103582290Y-109192080D01*
X103594670Y-109198840D01*
X103602320Y-109193113D01*
X103707205Y-109021958D01*
X103711687Y-109013163D01*
X103798734Y-108803012D01*
X103801783Y-108793627D01*
X103854885Y-108572446D01*
X103856428Y-108562699D01*
X103874275Y-108335930D01*
X103874275Y-108326070D01*
X103856428Y-108099301D01*
X103854885Y-108089554D01*
X103801783Y-107868373D01*
X103798734Y-107858988D01*
X103711687Y-107648837D01*
X103707205Y-107640042D01*
X103604568Y-107472555D01*
X103594110Y-107463093D01*
X103585334Y-107466876D01*
X102734022Y-108318188D01*
X102726408Y-108332132D01*
X101996356Y-108332132D01*
X101997592Y-108329868D01*
X101997461Y-108328035D01*
X101993210Y-108321420D01*
X101141710Y-107469920D01*
X101129330Y-107463160D01*
X101121680Y-107468887D01*
X101016795Y-107640042D01*
X101012313Y-107648837D01*
X100925266Y-107858988D01*
X100922217Y-107868373D01*
X100869115Y-108089554D01*
X100867572Y-108099301D01*
X100849725Y-108326070D01*
X100849725Y-108335930D01*
X98933000Y-108335930D01*
X98933000Y-107098890D01*
X101494093Y-107098890D01*
X101497876Y-107107666D01*
X102349188Y-107958978D01*
X102363132Y-107966592D01*
X102364965Y-107966461D01*
X102371580Y-107962210D01*
X103223080Y-107110710D01*
X103229840Y-107098330D01*
X103224113Y-107090680D01*
X103052958Y-106985795D01*
X103044163Y-106981313D01*
X102834012Y-106894266D01*
X102824627Y-106891217D01*
X102603446Y-106838115D01*
X102593699Y-106836572D01*
X102366930Y-106818725D01*
X102357070Y-106818725D01*
X102130301Y-106836572D01*
X102120554Y-106838115D01*
X101899373Y-106891217D01*
X101889988Y-106894266D01*
X101679837Y-106981313D01*
X101671042Y-106985795D01*
X101503555Y-107088432D01*
X101494093Y-107098890D01*
X98933000Y-107098890D01*
X98933000Y-106807000D01*
X97418028Y-106807000D01*
X97349907Y-106786998D01*
X97328933Y-106770095D01*
X97191905Y-106633067D01*
X97157879Y-106570755D01*
X97155000Y-106543972D01*
X97155000Y-103078528D01*
X97175002Y-103010407D01*
X97180172Y-103002965D01*
X97181485Y-103001213D01*
X97238344Y-102958697D01*
X97309162Y-102953670D01*
X97371456Y-102987728D01*
X97383139Y-103001211D01*
X97463715Y-103108724D01*
X97476276Y-103121285D01*
X97578351Y-103197786D01*
X97593946Y-103206324D01*
X97714394Y-103251478D01*
X97729649Y-103255105D01*
X97780514Y-103260631D01*
X97787328Y-103261000D01*
X97959885Y-103261000D01*
X97975124Y-103256525D01*
X97976329Y-103255135D01*
X97978000Y-103247452D01*
X97978000Y-103242884D01*
X98486000Y-103242884D01*
X98490475Y-103258123D01*
X98491865Y-103259328D01*
X98499548Y-103260999D01*
X98676669Y-103260999D01*
X98683490Y-103260629D01*
X98734352Y-103255105D01*
X98749604Y-103251479D01*
X98870054Y-103206324D01*
X98885649Y-103197786D01*
X98987724Y-103121285D01*
X99000285Y-103108724D01*
X99076786Y-103006649D01*
X99085324Y-102991054D01*
X99130478Y-102870606D01*
X99134105Y-102855351D01*
X99139631Y-102804486D01*
X99140000Y-102797672D01*
X99140000Y-102125115D01*
X99135525Y-102109876D01*
X99134135Y-102108671D01*
X99126452Y-102107000D01*
X98504115Y-102107000D01*
X98488876Y-102111475D01*
X98487671Y-102112865D01*
X98486000Y-102120548D01*
X98486000Y-103242884D01*
X97978000Y-103242884D01*
X97978000Y-101725000D01*
X97998002Y-101656879D01*
X98051658Y-101610386D01*
X98104000Y-101599000D01*
X99121884Y-101599000D01*
X99137123Y-101594525D01*
X99138328Y-101593135D01*
X99139999Y-101585452D01*
X99139999Y-101218000D01*
X99160001Y-101149879D01*
X99213657Y-101103386D01*
X99265999Y-101092000D01*
X100330000Y-101092000D01*
X100330000Y-100715669D01*
X100850001Y-100715669D01*
X100850371Y-100722490D01*
X100855895Y-100773352D01*
X100859521Y-100788604D01*
X100904676Y-100909054D01*
X100913214Y-100924649D01*
X100989715Y-101026724D01*
X101002276Y-101039285D01*
X101104351Y-101115786D01*
X101119946Y-101124324D01*
X101240394Y-101169478D01*
X101255649Y-101173105D01*
X101306514Y-101178631D01*
X101313328Y-101179000D01*
X102635885Y-101179000D01*
X102651124Y-101174525D01*
X102652329Y-101173135D01*
X102654000Y-101165452D01*
X102654000Y-98443115D01*
X102649525Y-98427876D01*
X102648135Y-98426671D01*
X102640452Y-98425000D01*
X100868116Y-98425000D01*
X100852877Y-98429475D01*
X100851672Y-98430865D01*
X100850001Y-98438548D01*
X100850001Y-100715669D01*
X100330000Y-100715669D01*
X100330000Y-97898885D01*
X100850000Y-97898885D01*
X100854475Y-97914124D01*
X100855865Y-97915329D01*
X100863548Y-97917000D01*
X102635885Y-97917000D01*
X102651124Y-97912525D01*
X102652329Y-97911135D01*
X102654000Y-97903452D01*
X102654000Y-95181116D01*
X102649525Y-95165877D01*
X102648135Y-95164672D01*
X102640452Y-95163001D01*
X101313331Y-95163001D01*
X101306510Y-95163371D01*
X101255648Y-95168895D01*
X101240396Y-95172521D01*
X101119946Y-95217676D01*
X101104351Y-95226214D01*
X101002276Y-95302715D01*
X100989715Y-95315276D01*
X100913214Y-95417351D01*
X100904676Y-95432946D01*
X100859522Y-95553394D01*
X100855895Y-95568649D01*
X100850369Y-95619514D01*
X100850000Y-95626328D01*
X100850000Y-97898885D01*
X100330000Y-97898885D01*
X100330000Y-90169500D01*
X100350002Y-90101379D01*
X100403658Y-90054886D01*
X100456000Y-90043500D01*
X104903000Y-90043500D01*
X104971121Y-90063502D01*
G37*
%TD.AperFunction*%
%TD*%
%TA.AperFunction,Conductor*%
%TO.N,Net-(F1-Pad1)*%
G36*
X99383121Y-90063502D02*
G01*
X99429614Y-90117158D01*
X99441000Y-90169500D01*
X99441000Y-100204000D01*
X99420998Y-100272121D01*
X99367342Y-100318614D01*
X99315000Y-100330000D01*
X88264500Y-100330000D01*
X88196379Y-100309998D01*
X88149886Y-100256342D01*
X88138500Y-100204000D01*
X88138500Y-99497669D01*
X96374001Y-99497669D01*
X96374371Y-99504490D01*
X96379895Y-99555352D01*
X96383521Y-99570604D01*
X96428676Y-99691054D01*
X96437214Y-99706649D01*
X96513715Y-99808724D01*
X96526276Y-99821285D01*
X96628351Y-99897786D01*
X96643946Y-99906324D01*
X96764394Y-99951478D01*
X96779649Y-99955105D01*
X96830514Y-99960631D01*
X96837328Y-99961000D01*
X97009885Y-99961000D01*
X97025124Y-99956525D01*
X97026329Y-99955135D01*
X97028000Y-99947452D01*
X97028000Y-99942884D01*
X97536000Y-99942884D01*
X97540475Y-99958123D01*
X97541865Y-99959328D01*
X97549548Y-99960999D01*
X97726669Y-99960999D01*
X97733490Y-99960629D01*
X97784352Y-99955105D01*
X97799604Y-99951479D01*
X97920054Y-99906324D01*
X97935649Y-99897786D01*
X98037724Y-99821285D01*
X98050285Y-99808724D01*
X98126786Y-99706649D01*
X98135324Y-99691054D01*
X98180478Y-99570606D01*
X98184105Y-99555351D01*
X98189631Y-99504486D01*
X98190000Y-99497672D01*
X98190000Y-98825115D01*
X98185525Y-98809876D01*
X98184135Y-98808671D01*
X98176452Y-98807000D01*
X97554115Y-98807000D01*
X97538876Y-98811475D01*
X97537671Y-98812865D01*
X97536000Y-98820548D01*
X97536000Y-99942884D01*
X97028000Y-99942884D01*
X97028000Y-98825115D01*
X97023525Y-98809876D01*
X97022135Y-98808671D01*
X97014452Y-98807000D01*
X96392116Y-98807000D01*
X96376877Y-98811475D01*
X96375672Y-98812865D01*
X96374001Y-98820548D01*
X96374001Y-99497669D01*
X88138500Y-99497669D01*
X88138500Y-98359095D01*
X88978001Y-98359095D01*
X88978338Y-98365614D01*
X88988257Y-98461206D01*
X88991149Y-98474600D01*
X89042588Y-98628784D01*
X89048761Y-98641962D01*
X89134063Y-98779807D01*
X89143099Y-98791208D01*
X89257829Y-98905739D01*
X89269240Y-98914751D01*
X89407243Y-98999816D01*
X89420424Y-99005963D01*
X89574710Y-99057138D01*
X89588086Y-99060005D01*
X89682438Y-99069672D01*
X89688854Y-99070000D01*
X90913885Y-99070000D01*
X90929124Y-99065525D01*
X90930329Y-99064135D01*
X90932000Y-99056452D01*
X90932000Y-99051884D01*
X91440000Y-99051884D01*
X91444475Y-99067123D01*
X91445865Y-99068328D01*
X91453548Y-99069999D01*
X92683095Y-99069999D01*
X92689614Y-99069662D01*
X92785206Y-99059743D01*
X92798600Y-99056851D01*
X92952784Y-99005412D01*
X92965962Y-98999239D01*
X93103807Y-98913937D01*
X93115208Y-98904901D01*
X93229739Y-98790171D01*
X93238751Y-98778760D01*
X93323816Y-98640757D01*
X93329963Y-98627576D01*
X93381138Y-98473290D01*
X93384005Y-98459914D01*
X93393672Y-98365562D01*
X93394000Y-98359146D01*
X93394000Y-98280885D01*
X96374000Y-98280885D01*
X96378475Y-98296124D01*
X96379865Y-98297329D01*
X96387548Y-98299000D01*
X97009885Y-98299000D01*
X97025124Y-98294525D01*
X97026329Y-98293135D01*
X97028000Y-98285452D01*
X97028000Y-98280885D01*
X97536000Y-98280885D01*
X97540475Y-98296124D01*
X97541865Y-98297329D01*
X97549548Y-98299000D01*
X98171884Y-98299000D01*
X98187123Y-98294525D01*
X98188328Y-98293135D01*
X98189999Y-98285452D01*
X98189999Y-97608331D01*
X98189629Y-97601510D01*
X98184105Y-97550648D01*
X98180479Y-97535396D01*
X98135324Y-97414946D01*
X98126786Y-97399351D01*
X98050285Y-97297276D01*
X98037724Y-97284715D01*
X97935649Y-97208214D01*
X97920054Y-97199676D01*
X97799606Y-97154522D01*
X97784351Y-97150895D01*
X97733486Y-97145369D01*
X97726672Y-97145000D01*
X97554115Y-97145000D01*
X97538876Y-97149475D01*
X97537671Y-97150865D01*
X97536000Y-97158548D01*
X97536000Y-98280885D01*
X97028000Y-98280885D01*
X97028000Y-97163116D01*
X97023525Y-97147877D01*
X97022135Y-97146672D01*
X97014452Y-97145001D01*
X96837331Y-97145001D01*
X96830510Y-97145371D01*
X96779648Y-97150895D01*
X96764396Y-97154521D01*
X96643946Y-97199676D01*
X96628351Y-97208214D01*
X96526276Y-97284715D01*
X96513715Y-97297276D01*
X96437214Y-97399351D01*
X96428676Y-97414946D01*
X96383522Y-97535394D01*
X96379895Y-97550649D01*
X96374369Y-97601514D01*
X96374000Y-97608328D01*
X96374000Y-98280885D01*
X93394000Y-98280885D01*
X93394000Y-98184115D01*
X93389525Y-98168876D01*
X93388135Y-98167671D01*
X93380452Y-98166000D01*
X91458115Y-98166000D01*
X91442876Y-98170475D01*
X91441671Y-98171865D01*
X91440000Y-98179548D01*
X91440000Y-99051884D01*
X90932000Y-99051884D01*
X90932000Y-98184115D01*
X90927525Y-98168876D01*
X90926135Y-98167671D01*
X90918452Y-98166000D01*
X88996116Y-98166000D01*
X88980877Y-98170475D01*
X88979672Y-98171865D01*
X88978001Y-98179548D01*
X88978001Y-98359095D01*
X88138500Y-98359095D01*
X88138500Y-97639885D01*
X88978000Y-97639885D01*
X88982475Y-97655124D01*
X88983865Y-97656329D01*
X88991548Y-97658000D01*
X90913885Y-97658000D01*
X90929124Y-97653525D01*
X90930329Y-97652135D01*
X90932000Y-97644452D01*
X90932000Y-97639885D01*
X91440000Y-97639885D01*
X91444475Y-97655124D01*
X91445865Y-97656329D01*
X91453548Y-97658000D01*
X93375884Y-97658000D01*
X93391123Y-97653525D01*
X93392328Y-97652135D01*
X93393999Y-97644452D01*
X93393999Y-97464905D01*
X93393662Y-97458386D01*
X93383743Y-97362794D01*
X93380851Y-97349400D01*
X93329412Y-97195216D01*
X93323239Y-97182038D01*
X93237937Y-97044193D01*
X93228901Y-97032792D01*
X93114171Y-96918261D01*
X93102760Y-96909249D01*
X92964757Y-96824184D01*
X92951576Y-96818037D01*
X92797290Y-96766862D01*
X92783914Y-96763995D01*
X92689562Y-96754328D01*
X92683145Y-96754000D01*
X91458115Y-96754000D01*
X91442876Y-96758475D01*
X91441671Y-96759865D01*
X91440000Y-96767548D01*
X91440000Y-97639885D01*
X90932000Y-97639885D01*
X90932000Y-96772116D01*
X90927525Y-96756877D01*
X90926135Y-96755672D01*
X90918452Y-96754001D01*
X89688905Y-96754001D01*
X89682386Y-96754338D01*
X89586794Y-96764257D01*
X89573400Y-96767149D01*
X89419216Y-96818588D01*
X89406038Y-96824761D01*
X89268193Y-96910063D01*
X89256792Y-96919099D01*
X89142261Y-97033829D01*
X89133249Y-97045240D01*
X89048184Y-97183243D01*
X89042037Y-97196424D01*
X88990862Y-97350710D01*
X88987995Y-97364086D01*
X88978328Y-97458438D01*
X88978000Y-97464855D01*
X88978000Y-97639885D01*
X88138500Y-97639885D01*
X88138500Y-90169500D01*
X88158502Y-90101379D01*
X88212158Y-90054886D01*
X88264500Y-90043500D01*
X99315000Y-90043500D01*
X99383121Y-90063502D01*
G37*
%TD.AperFunction*%
%TD*%
%TA.AperFunction,Conductor*%
%TO.N,+5V*%
G36*
X122766255Y-100181749D02*
G01*
X122823091Y-100224296D01*
X122847902Y-100290816D01*
X122848220Y-100300739D01*
X122813997Y-104919434D01*
X122793490Y-104987404D01*
X122739492Y-105033498D01*
X122688000Y-105044500D01*
X120355568Y-105044500D01*
X120289452Y-105025760D01*
X120195150Y-104967631D01*
X120195148Y-104967630D01*
X120188920Y-104963791D01*
X120023809Y-104909026D01*
X120016973Y-104908326D01*
X120016970Y-104908325D01*
X119965474Y-104903049D01*
X119921072Y-104898500D01*
X119346928Y-104898500D01*
X119343682Y-104898837D01*
X119343678Y-104898837D01*
X119249765Y-104908581D01*
X119249761Y-104908582D01*
X119242907Y-104909293D01*
X119236371Y-104911474D01*
X119236369Y-104911474D01*
X119103605Y-104955768D01*
X119077893Y-104964346D01*
X118929969Y-105055884D01*
X118924796Y-105061066D01*
X118812242Y-105173816D01*
X118812238Y-105173821D01*
X118807071Y-105178997D01*
X118803231Y-105185227D01*
X118803230Y-105185228D01*
X118731746Y-105301197D01*
X118715791Y-105327080D01*
X118661026Y-105492191D01*
X118660326Y-105499027D01*
X118660325Y-105499030D01*
X118657688Y-105524771D01*
X118650500Y-105594928D01*
X118650500Y-106194072D01*
X118661293Y-106298093D01*
X118663474Y-106304629D01*
X118663474Y-106304631D01*
X118707768Y-106437395D01*
X118716346Y-106463107D01*
X118807884Y-106611031D01*
X118813066Y-106616204D01*
X118914786Y-106717747D01*
X118948865Y-106780030D01*
X118943862Y-106850850D01*
X118914941Y-106895937D01*
X118812246Y-106998812D01*
X118812242Y-106998817D01*
X118807071Y-107003997D01*
X118803231Y-107010227D01*
X118803230Y-107010228D01*
X118782105Y-107044500D01*
X118715791Y-107152080D01*
X118661026Y-107317191D01*
X118660326Y-107324027D01*
X118660325Y-107324030D01*
X118656158Y-107364701D01*
X118650500Y-107419928D01*
X118650500Y-108019072D01*
X118650837Y-108022318D01*
X118650837Y-108022322D01*
X118660532Y-108115754D01*
X118661293Y-108123093D01*
X118716346Y-108288107D01*
X118807884Y-108436031D01*
X118813066Y-108441204D01*
X118925816Y-108553758D01*
X118925821Y-108553762D01*
X118930997Y-108558929D01*
X118937227Y-108562769D01*
X118937228Y-108562770D01*
X119044475Y-108628878D01*
X119079080Y-108650209D01*
X119244191Y-108704974D01*
X119251027Y-108705674D01*
X119251030Y-108705675D01*
X119302526Y-108710951D01*
X119346928Y-108715500D01*
X119921072Y-108715500D01*
X119924318Y-108715163D01*
X119924322Y-108715163D01*
X120018235Y-108705419D01*
X120018239Y-108705418D01*
X120025093Y-108704707D01*
X120031629Y-108702526D01*
X120031631Y-108702526D01*
X120099149Y-108680000D01*
X120190107Y-108649654D01*
X120199265Y-108643987D01*
X120289166Y-108588355D01*
X120355469Y-108569500D01*
X122660014Y-108569500D01*
X122728135Y-108589502D01*
X122774628Y-108643158D01*
X122786011Y-108696434D01*
X122785606Y-108751083D01*
X123394974Y-108742862D01*
X124081459Y-108733601D01*
X124149844Y-108752683D01*
X124197056Y-108805706D01*
X124208107Y-108875838D01*
X124179488Y-108940810D01*
X124158724Y-108960416D01*
X124090276Y-109011715D01*
X124077715Y-109024276D01*
X124001214Y-109126351D01*
X123992676Y-109141946D01*
X123947522Y-109262394D01*
X123943895Y-109277649D01*
X123938369Y-109328514D01*
X123938000Y-109335328D01*
X123938000Y-109907885D01*
X123942475Y-109923124D01*
X123943865Y-109924329D01*
X123951548Y-109926000D01*
X125324000Y-109926000D01*
X125392121Y-109946002D01*
X125438614Y-109999658D01*
X125450000Y-110052000D01*
X125450000Y-110308000D01*
X125429998Y-110376121D01*
X125376342Y-110422614D01*
X125324000Y-110434000D01*
X123956116Y-110434000D01*
X123940877Y-110438475D01*
X123939672Y-110439865D01*
X123938001Y-110447548D01*
X123938001Y-111024669D01*
X123938371Y-111031490D01*
X123943895Y-111082354D01*
X123946693Y-111094123D01*
X123942990Y-111165023D01*
X123901542Y-111222665D01*
X123835511Y-111248749D01*
X123824419Y-111249266D01*
X122681344Y-111252000D01*
X122681345Y-111265474D01*
X122681345Y-111265476D01*
X122681986Y-117221986D01*
X122661991Y-117290109D01*
X122608341Y-117336608D01*
X122555986Y-117348000D01*
X119834332Y-117348000D01*
X119766211Y-117327998D01*
X119719718Y-117274342D01*
X119709614Y-117204068D01*
X119731119Y-117149729D01*
X119751931Y-117120006D01*
X119757414Y-117110511D01*
X119849490Y-116913053D01*
X119853236Y-116902761D01*
X119899394Y-116730497D01*
X119899058Y-116716401D01*
X119891116Y-116713000D01*
X117350033Y-116713000D01*
X117336502Y-116716973D01*
X117335273Y-116725522D01*
X117382764Y-116902761D01*
X117386510Y-116913053D01*
X117478586Y-117110511D01*
X117484069Y-117120006D01*
X117504881Y-117149729D01*
X117527569Y-117217003D01*
X117510284Y-117285863D01*
X117458515Y-117334448D01*
X117401668Y-117348000D01*
X114680000Y-117348000D01*
X114611879Y-117327998D01*
X114565386Y-117274342D01*
X114554000Y-117222000D01*
X114554000Y-116713000D01*
X112298246Y-116713000D01*
X112230125Y-116692998D01*
X112183632Y-116639342D01*
X112173528Y-116569068D01*
X112178653Y-116547332D01*
X112218138Y-116428290D01*
X112221005Y-116414914D01*
X112230672Y-116320562D01*
X112231000Y-116314146D01*
X112231000Y-116201615D01*
X112226856Y-116187503D01*
X117336606Y-116187503D01*
X117336942Y-116201599D01*
X117344884Y-116205000D01*
X118345885Y-116205000D01*
X118361124Y-116200525D01*
X118362329Y-116199135D01*
X118364000Y-116191452D01*
X118364000Y-116186885D01*
X118872000Y-116186885D01*
X118876475Y-116202124D01*
X118877865Y-116203329D01*
X118885548Y-116205000D01*
X119885967Y-116205000D01*
X119899498Y-116201027D01*
X119900727Y-116192478D01*
X119853236Y-116015239D01*
X119849490Y-116004947D01*
X119757414Y-115807489D01*
X119751931Y-115797993D01*
X119626972Y-115619533D01*
X119619916Y-115611125D01*
X119465875Y-115457084D01*
X119457467Y-115450028D01*
X119279007Y-115325069D01*
X119269511Y-115319586D01*
X119072053Y-115227510D01*
X119061761Y-115223764D01*
X118889497Y-115177606D01*
X118875401Y-115177942D01*
X118872000Y-115185884D01*
X118872000Y-116186885D01*
X118364000Y-116186885D01*
X118364000Y-115191033D01*
X118360027Y-115177502D01*
X118351478Y-115176273D01*
X118174239Y-115223764D01*
X118163947Y-115227510D01*
X117966489Y-115319586D01*
X117956993Y-115325069D01*
X117778533Y-115450028D01*
X117770125Y-115457084D01*
X117616084Y-115611125D01*
X117609028Y-115619533D01*
X117484069Y-115797993D01*
X117478586Y-115807489D01*
X117386510Y-116004947D01*
X117382764Y-116015239D01*
X117336606Y-116187503D01*
X112226856Y-116187503D01*
X112226525Y-116186376D01*
X112225135Y-116185171D01*
X112217452Y-116183500D01*
X110870000Y-116183500D01*
X110801879Y-116163498D01*
X110755386Y-116109842D01*
X110744000Y-116057500D01*
X110744000Y-115801500D01*
X110764002Y-115733379D01*
X110817658Y-115686886D01*
X110870000Y-115675500D01*
X112212884Y-115675500D01*
X112228123Y-115671025D01*
X112229328Y-115669635D01*
X112230999Y-115661952D01*
X112230999Y-115544905D01*
X112230662Y-115538386D01*
X112220743Y-115442794D01*
X112217851Y-115429400D01*
X112166412Y-115275216D01*
X112160239Y-115262038D01*
X112074937Y-115124193D01*
X112065901Y-115112792D01*
X111951171Y-114998261D01*
X111939760Y-114989249D01*
X111801757Y-114904184D01*
X111788576Y-114898037D01*
X111634290Y-114846862D01*
X111620913Y-114843994D01*
X111619161Y-114843815D01*
X111618150Y-114843402D01*
X111614189Y-114842553D01*
X111614340Y-114841847D01*
X111553433Y-114816976D01*
X111512649Y-114758862D01*
X111506000Y-114718471D01*
X111506000Y-113853922D01*
X111526002Y-113785801D01*
X111542905Y-113764827D01*
X112432328Y-112875404D01*
X112494640Y-112841378D01*
X112521423Y-112838499D01*
X113063884Y-112838499D01*
X113067969Y-112837961D01*
X113067973Y-112837961D01*
X113174663Y-112823916D01*
X113174665Y-112823916D01*
X113182850Y-112822838D01*
X113315942Y-112767710D01*
X113323248Y-112764684D01*
X113323250Y-112764683D01*
X113330876Y-112761524D01*
X113387765Y-112717871D01*
X113451436Y-112669014D01*
X113451437Y-112669013D01*
X113457987Y-112663987D01*
X113463013Y-112657437D01*
X113463016Y-112657434D01*
X113506755Y-112600431D01*
X113555524Y-112536875D01*
X113616838Y-112388850D01*
X113632500Y-112269885D01*
X113632500Y-112241500D01*
X113652502Y-112173379D01*
X113706158Y-112126886D01*
X113758500Y-112115500D01*
X113992980Y-112115500D01*
X114004214Y-112116030D01*
X114011719Y-112117708D01*
X114080012Y-112115562D01*
X114083969Y-112115500D01*
X114111983Y-112115500D01*
X114115908Y-112115004D01*
X114115909Y-112115004D01*
X114116004Y-112114992D01*
X114127849Y-112114059D01*
X114157670Y-112113122D01*
X114164282Y-112112914D01*
X114164283Y-112112914D01*
X114172205Y-112112665D01*
X114191749Y-112106987D01*
X114211112Y-112102977D01*
X114223440Y-112101420D01*
X114223442Y-112101420D01*
X114231299Y-112100427D01*
X114238663Y-112097511D01*
X114238668Y-112097510D01*
X114272556Y-112084093D01*
X114283785Y-112080248D01*
X114300465Y-112075402D01*
X114326393Y-112067869D01*
X114333220Y-112063831D01*
X114333223Y-112063830D01*
X114343906Y-112057512D01*
X114361664Y-112048812D01*
X114373215Y-112044239D01*
X114373221Y-112044235D01*
X114380588Y-112041319D01*
X114416491Y-112015234D01*
X114426410Y-112008719D01*
X114457768Y-111990174D01*
X114457772Y-111990171D01*
X114464598Y-111986134D01*
X114478982Y-111971750D01*
X114494016Y-111958909D01*
X114504073Y-111951602D01*
X114510487Y-111946942D01*
X114538778Y-111912744D01*
X114546767Y-111903965D01*
X117487477Y-108963255D01*
X117495803Y-108955678D01*
X117502303Y-108951553D01*
X117549101Y-108901718D01*
X117551855Y-108898877D01*
X117571638Y-108879094D01*
X117574129Y-108875883D01*
X117581838Y-108866856D01*
X117606789Y-108840286D01*
X117612217Y-108834506D01*
X117618349Y-108823352D01*
X117622022Y-108816671D01*
X117632876Y-108800147D01*
X117640491Y-108790330D01*
X117640492Y-108790329D01*
X117645349Y-108784067D01*
X117662969Y-108743350D01*
X117668192Y-108732689D01*
X117685749Y-108700753D01*
X117685751Y-108700748D01*
X117689569Y-108693803D01*
X117691539Y-108686129D01*
X117691542Y-108686122D01*
X117694632Y-108674087D01*
X117701036Y-108655382D01*
X117705967Y-108643987D01*
X117709117Y-108636708D01*
X117716060Y-108592873D01*
X117718467Y-108581251D01*
X117729500Y-108538282D01*
X117729500Y-108517935D01*
X117731051Y-108498224D01*
X117732995Y-108485950D01*
X117734235Y-108478121D01*
X117730059Y-108433944D01*
X117729500Y-108422086D01*
X117729500Y-105852422D01*
X117749502Y-105784301D01*
X117766405Y-105763327D01*
X118844828Y-104684905D01*
X118907140Y-104650879D01*
X118933923Y-104648000D01*
X119126000Y-104648000D01*
X119126000Y-104455923D01*
X119146002Y-104387802D01*
X119162905Y-104366828D01*
X119225963Y-104303770D01*
X119234289Y-104296194D01*
X119240783Y-104292073D01*
X119287566Y-104242254D01*
X119290320Y-104239413D01*
X119310119Y-104219614D01*
X119312543Y-104216489D01*
X119312551Y-104216480D01*
X119312617Y-104216394D01*
X119320325Y-104207369D01*
X119345270Y-104180805D01*
X119350697Y-104175026D01*
X119360503Y-104157189D01*
X119371353Y-104140673D01*
X119383830Y-104124587D01*
X119401456Y-104083854D01*
X119406673Y-104073206D01*
X119424229Y-104041271D01*
X119428049Y-104034323D01*
X119430020Y-104026648D01*
X119430022Y-104026642D01*
X119433111Y-104014609D01*
X119439514Y-103995907D01*
X119447597Y-103977228D01*
X119454540Y-103933393D01*
X119456947Y-103921771D01*
X119467980Y-103878802D01*
X119467980Y-103858455D01*
X119469531Y-103838744D01*
X119471475Y-103826470D01*
X119472715Y-103818641D01*
X119468539Y-103774464D01*
X119467980Y-103762606D01*
X119467980Y-103253500D01*
X119487982Y-103185379D01*
X119541638Y-103138886D01*
X119593980Y-103127500D01*
X119921072Y-103127500D01*
X119924318Y-103127163D01*
X119924322Y-103127163D01*
X120018235Y-103117419D01*
X120018239Y-103117418D01*
X120025093Y-103116707D01*
X120031629Y-103114526D01*
X120031631Y-103114526D01*
X120183159Y-103063972D01*
X120190107Y-103061654D01*
X120338031Y-102970116D01*
X120356202Y-102951913D01*
X120455758Y-102852184D01*
X120455762Y-102852179D01*
X120460929Y-102847003D01*
X120518065Y-102754312D01*
X120548369Y-102705150D01*
X120548370Y-102705148D01*
X120552209Y-102698920D01*
X120606974Y-102533809D01*
X120608406Y-102519839D01*
X120617172Y-102434271D01*
X120617500Y-102431072D01*
X120617500Y-102278528D01*
X120637502Y-102210407D01*
X120654405Y-102189433D01*
X122633128Y-100210710D01*
X122695440Y-100176684D01*
X122766255Y-100181749D01*
G37*
%TD.AperFunction*%
%TA.AperFunction,Conductor*%
G36*
X116848198Y-104668002D02*
G01*
X116894691Y-104721658D01*
X116904795Y-104791932D01*
X116875301Y-104856512D01*
X116869172Y-104863095D01*
X116700517Y-105031750D01*
X116692191Y-105039326D01*
X116685697Y-105043447D01*
X116680274Y-105049222D01*
X116638915Y-105093265D01*
X116636160Y-105096107D01*
X116616361Y-105115906D01*
X116613937Y-105119031D01*
X116613929Y-105119040D01*
X116613863Y-105119126D01*
X116606155Y-105128151D01*
X116575783Y-105160494D01*
X116571965Y-105167438D01*
X116571964Y-105167440D01*
X116565978Y-105178329D01*
X116555127Y-105194847D01*
X116542650Y-105210933D01*
X116525024Y-105251666D01*
X116519807Y-105262314D01*
X116498431Y-105301197D01*
X116496460Y-105308872D01*
X116496458Y-105308878D01*
X116493369Y-105320911D01*
X116486966Y-105339613D01*
X116478883Y-105358292D01*
X116477644Y-105366117D01*
X116471940Y-105402127D01*
X116469535Y-105413740D01*
X116458500Y-105456718D01*
X116458500Y-105477065D01*
X116456949Y-105496776D01*
X116453765Y-105516879D01*
X116454511Y-105524771D01*
X116457941Y-105561056D01*
X116458500Y-105572914D01*
X116458500Y-106528786D01*
X116438498Y-106596907D01*
X116384842Y-106643400D01*
X116332500Y-106654786D01*
X116230799Y-106654786D01*
X116224347Y-106656158D01*
X116224342Y-106656158D01*
X116137398Y-106674639D01*
X116043998Y-106694492D01*
X116037968Y-106697177D01*
X116037967Y-106697177D01*
X115875564Y-106769483D01*
X115875562Y-106769484D01*
X115869534Y-106772168D01*
X115864193Y-106776048D01*
X115864192Y-106776049D01*
X115821666Y-106806946D01*
X115715033Y-106884420D01*
X115710612Y-106889330D01*
X115710611Y-106889331D01*
X115600468Y-107011658D01*
X115587246Y-107026342D01*
X115575889Y-107046013D01*
X115510640Y-107159028D01*
X115491759Y-107191730D01*
X115432744Y-107373358D01*
X115432054Y-107379919D01*
X115432054Y-107379921D01*
X115425294Y-107444239D01*
X115412782Y-107563286D01*
X115413472Y-107569851D01*
X115429671Y-107723972D01*
X115432744Y-107753214D01*
X115491759Y-107934842D01*
X115587246Y-108100230D01*
X115591664Y-108105137D01*
X115591665Y-108105138D01*
X115658422Y-108179279D01*
X115689140Y-108243286D01*
X115690786Y-108263589D01*
X115690786Y-108268918D01*
X115670784Y-108337039D01*
X115653881Y-108358013D01*
X114504298Y-109507595D01*
X114441986Y-109541621D01*
X114415203Y-109544500D01*
X113757999Y-109544500D01*
X113689878Y-109524498D01*
X113643385Y-109470842D01*
X113631999Y-109418500D01*
X113631999Y-109394276D01*
X113631461Y-109386065D01*
X113617428Y-109279467D01*
X113613191Y-109263655D01*
X113608869Y-109253221D01*
X113601278Y-109182631D01*
X113608869Y-109156779D01*
X113613190Y-109146348D01*
X113617428Y-109130531D01*
X113621716Y-109097960D01*
X113619505Y-109083778D01*
X113606348Y-109080000D01*
X112567115Y-109080000D01*
X112551876Y-109084475D01*
X112550671Y-109085865D01*
X112549000Y-109093548D01*
X112549000Y-109345500D01*
X112528998Y-109413621D01*
X112475342Y-109460114D01*
X112423001Y-109471500D01*
X112349001Y-109471500D01*
X112274999Y-109471501D01*
X112206880Y-109451499D01*
X112160387Y-109397844D01*
X112149000Y-109345501D01*
X112149000Y-108414500D01*
X112169002Y-108346379D01*
X112222658Y-108299886D01*
X112275000Y-108288500D01*
X112426372Y-108288500D01*
X112494493Y-108308502D01*
X112540986Y-108362158D01*
X112551090Y-108432432D01*
X112549492Y-108441285D01*
X112549000Y-108443547D01*
X112549000Y-108661885D01*
X112553475Y-108677124D01*
X112554865Y-108678329D01*
X112562548Y-108680000D01*
X113605965Y-108680000D01*
X113619736Y-108675956D01*
X113621765Y-108662417D01*
X113617428Y-108629467D01*
X113613191Y-108613655D01*
X113608869Y-108603221D01*
X113601278Y-108532631D01*
X113608869Y-108506779D01*
X113613190Y-108496348D01*
X113617428Y-108480531D01*
X113621716Y-108447960D01*
X113619505Y-108433778D01*
X113606348Y-108430000D01*
X113417337Y-108430000D01*
X113349216Y-108409998D01*
X113302723Y-108356342D01*
X113292619Y-108286068D01*
X113322113Y-108221488D01*
X113340632Y-108204038D01*
X113451436Y-108119014D01*
X113451437Y-108119013D01*
X113457987Y-108113987D01*
X113484608Y-108079295D01*
X113541946Y-108037428D01*
X113584569Y-108030000D01*
X113605965Y-108030000D01*
X113619736Y-108025956D01*
X113621765Y-108012417D01*
X113617428Y-107979467D01*
X113613190Y-107963652D01*
X113609140Y-107953874D01*
X113601550Y-107883285D01*
X113609140Y-107857434D01*
X113613678Y-107846479D01*
X113616838Y-107838850D01*
X113632500Y-107719885D01*
X113632499Y-107440116D01*
X113629842Y-107419928D01*
X113617916Y-107329337D01*
X113617916Y-107329335D01*
X113616838Y-107321150D01*
X113563231Y-107191730D01*
X113558684Y-107180752D01*
X113558683Y-107180750D01*
X113555524Y-107173124D01*
X113457987Y-107046013D01*
X113451437Y-107040987D01*
X113451434Y-107040984D01*
X113394431Y-106997244D01*
X113330875Y-106948476D01*
X113182850Y-106887162D01*
X113174662Y-106886084D01*
X113067972Y-106872038D01*
X113067971Y-106872038D01*
X113063885Y-106871500D01*
X113018732Y-106871500D01*
X111764500Y-106871501D01*
X111696379Y-106851499D01*
X111649886Y-106797843D01*
X111638500Y-106745501D01*
X111638500Y-104906500D01*
X111658502Y-104838379D01*
X111712158Y-104791886D01*
X111764500Y-104780500D01*
X116079000Y-104780500D01*
X116082346Y-104780140D01*
X116082351Y-104780140D01*
X116184785Y-104769128D01*
X116184792Y-104769127D01*
X116188149Y-104768766D01*
X116191450Y-104768048D01*
X116237210Y-104758094D01*
X116237215Y-104758093D01*
X116240491Y-104757380D01*
X116344657Y-104722710D01*
X116429784Y-104668002D01*
X116497905Y-104648000D01*
X116780077Y-104648000D01*
X116848198Y-104668002D01*
G37*
%TD.AperFunction*%
%TA.AperFunction,Conductor*%
G36*
X125998006Y-91333002D02*
G01*
X126044499Y-91386658D01*
X126054603Y-91456932D01*
X126025109Y-91521512D01*
X125983337Y-91553100D01*
X125978993Y-91555135D01*
X125972054Y-91557450D01*
X125821652Y-91650522D01*
X125816479Y-91655704D01*
X125776777Y-91695475D01*
X125696695Y-91775697D01*
X125696344Y-91775347D01*
X125642307Y-91813656D01*
X125601345Y-91820500D01*
X124530193Y-91820500D01*
X124462072Y-91800498D01*
X124441175Y-91783673D01*
X124432835Y-91775347D01*
X124401003Y-91743571D01*
X124372297Y-91725876D01*
X124259150Y-91656131D01*
X124259148Y-91656130D01*
X124252920Y-91652291D01*
X124087809Y-91597526D01*
X124080973Y-91596826D01*
X124080970Y-91596825D01*
X124029474Y-91591549D01*
X123985072Y-91587000D01*
X123410928Y-91587000D01*
X123407682Y-91587337D01*
X123407678Y-91587337D01*
X123313765Y-91597081D01*
X123313761Y-91597082D01*
X123306907Y-91597793D01*
X123300371Y-91599974D01*
X123300369Y-91599974D01*
X123167605Y-91644268D01*
X123141893Y-91652846D01*
X122993969Y-91744384D01*
X122988796Y-91749566D01*
X122876242Y-91862316D01*
X122876238Y-91862321D01*
X122871071Y-91867497D01*
X122867231Y-91873727D01*
X122867230Y-91873728D01*
X122803432Y-91977228D01*
X122779791Y-92015580D01*
X122725026Y-92180691D01*
X122714500Y-92283428D01*
X122714500Y-92882572D01*
X122714837Y-92885818D01*
X122714837Y-92885822D01*
X122721766Y-92952598D01*
X122725293Y-92986593D01*
X122780346Y-93151607D01*
X122871884Y-93299531D01*
X122979141Y-93406601D01*
X123013220Y-93468882D01*
X123008217Y-93539702D01*
X122979296Y-93584791D01*
X122876637Y-93687629D01*
X122867625Y-93699040D01*
X122784088Y-93834563D01*
X122777944Y-93847741D01*
X122727685Y-93999266D01*
X122724819Y-94012632D01*
X122715328Y-94105270D01*
X122715000Y-94111685D01*
X122715000Y-94135885D01*
X122719475Y-94151124D01*
X122720865Y-94152329D01*
X122728548Y-94154000D01*
X124662885Y-94154000D01*
X124678124Y-94149525D01*
X124679329Y-94148135D01*
X124681000Y-94140452D01*
X124681000Y-94111734D01*
X124680663Y-94105218D01*
X124670925Y-94011368D01*
X124668032Y-93997972D01*
X124617512Y-93846547D01*
X124611347Y-93833385D01*
X124527574Y-93698008D01*
X124518540Y-93686610D01*
X124416860Y-93585107D01*
X124382781Y-93522824D01*
X124387784Y-93452004D01*
X124416706Y-93406915D01*
X124417022Y-93406599D01*
X124441097Y-93382481D01*
X124503381Y-93348403D01*
X124530270Y-93345500D01*
X125617499Y-93345500D01*
X125685620Y-93365502D01*
X125706515Y-93382326D01*
X125822697Y-93498305D01*
X125826916Y-93500906D01*
X125867417Y-93558030D01*
X125870649Y-93628953D01*
X125835024Y-93690365D01*
X125827470Y-93696922D01*
X125821652Y-93700522D01*
X125696695Y-93825697D01*
X125603885Y-93976262D01*
X125601581Y-93983209D01*
X125550941Y-94135885D01*
X125548203Y-94144139D01*
X125547503Y-94150975D01*
X125547502Y-94150978D01*
X125543091Y-94194031D01*
X125537500Y-94248600D01*
X125537500Y-94999400D01*
X125537837Y-95002644D01*
X125537837Y-95002652D01*
X125545433Y-95075863D01*
X125532568Y-95145684D01*
X125509201Y-95177961D01*
X125229852Y-95457310D01*
X125167540Y-95491336D01*
X125140579Y-95494215D01*
X124445429Y-95493235D01*
X124377337Y-95473137D01*
X124330920Y-95419416D01*
X124320915Y-95349128D01*
X124350499Y-95284588D01*
X124379306Y-95260089D01*
X124395495Y-95250071D01*
X124406890Y-95241040D01*
X124519363Y-95128371D01*
X124528375Y-95116960D01*
X124611912Y-94981437D01*
X124618056Y-94968259D01*
X124668315Y-94816734D01*
X124671181Y-94803368D01*
X124680672Y-94710730D01*
X124681000Y-94704315D01*
X124681000Y-94680115D01*
X124676525Y-94664876D01*
X124675135Y-94663671D01*
X124667452Y-94662000D01*
X122733115Y-94662000D01*
X122717876Y-94666475D01*
X122716671Y-94667865D01*
X122715000Y-94675548D01*
X122715000Y-94704266D01*
X122715337Y-94710782D01*
X122725075Y-94804632D01*
X122727968Y-94818028D01*
X122778488Y-94969453D01*
X122784653Y-94982615D01*
X122868426Y-95117992D01*
X122877460Y-95129390D01*
X122990129Y-95241863D01*
X123001540Y-95250875D01*
X123012874Y-95257861D01*
X123060368Y-95310632D01*
X123071793Y-95380703D01*
X123043520Y-95445828D01*
X122984527Y-95485329D01*
X122946583Y-95491122D01*
X122901974Y-95491059D01*
X122901972Y-95491060D01*
X122883858Y-95491034D01*
X122883759Y-95504386D01*
X122866980Y-97768923D01*
X122846473Y-97836893D01*
X122830078Y-97857084D01*
X120794844Y-99892318D01*
X120732532Y-99926344D01*
X120661717Y-99921279D01*
X120604881Y-99878732D01*
X120586225Y-99843099D01*
X120553512Y-99745047D01*
X120547347Y-99731885D01*
X120463574Y-99596508D01*
X120454540Y-99585110D01*
X120341871Y-99472637D01*
X120330460Y-99463625D01*
X120194937Y-99380088D01*
X120181759Y-99373944D01*
X120030234Y-99323685D01*
X120016868Y-99320819D01*
X119924230Y-99311328D01*
X119917815Y-99311000D01*
X119906115Y-99311000D01*
X119890876Y-99315475D01*
X119889671Y-99316865D01*
X119888000Y-99324548D01*
X119888000Y-100434500D01*
X119867998Y-100502621D01*
X119814342Y-100549114D01*
X119762000Y-100560500D01*
X119506000Y-100560500D01*
X119437879Y-100540498D01*
X119391386Y-100486842D01*
X119380000Y-100434500D01*
X119380000Y-99329115D01*
X119375525Y-99313876D01*
X119374135Y-99312671D01*
X119366452Y-99311000D01*
X119350234Y-99311000D01*
X119343720Y-99311337D01*
X119265005Y-99319505D01*
X119195183Y-99306641D01*
X119143401Y-99258070D01*
X119126000Y-99194178D01*
X119126000Y-95400000D01*
X119146002Y-95331879D01*
X119199658Y-95285386D01*
X119252000Y-95274000D01*
X119563807Y-95274000D01*
X119631928Y-95294002D01*
X119652823Y-95310825D01*
X119692997Y-95350929D01*
X119699227Y-95354769D01*
X119699228Y-95354770D01*
X119808787Y-95422303D01*
X119841080Y-95442209D01*
X120006191Y-95496974D01*
X120013027Y-95497674D01*
X120013030Y-95497675D01*
X120064526Y-95502951D01*
X120108928Y-95507500D01*
X120683072Y-95507500D01*
X120686318Y-95507163D01*
X120686322Y-95507163D01*
X120780235Y-95497419D01*
X120780239Y-95497418D01*
X120787093Y-95496707D01*
X120793629Y-95494526D01*
X120793631Y-95494526D01*
X120939596Y-95445828D01*
X120952107Y-95441654D01*
X121100031Y-95350116D01*
X121118236Y-95331879D01*
X121217758Y-95232184D01*
X121217762Y-95232179D01*
X121222929Y-95227003D01*
X121314209Y-95078920D01*
X121368974Y-94913809D01*
X121379500Y-94811072D01*
X121379500Y-94211928D01*
X121373043Y-94149692D01*
X121369419Y-94114765D01*
X121369418Y-94114761D01*
X121368707Y-94107907D01*
X121359356Y-94079877D01*
X121315972Y-93949841D01*
X121313654Y-93942893D01*
X121222116Y-93794969D01*
X121114859Y-93687899D01*
X121080780Y-93625618D01*
X121085783Y-93554798D01*
X121114704Y-93509709D01*
X121217363Y-93406871D01*
X121226375Y-93395460D01*
X121309912Y-93259937D01*
X121316056Y-93246759D01*
X121366315Y-93095234D01*
X121369181Y-93081868D01*
X121378672Y-92989230D01*
X121379000Y-92982815D01*
X121379000Y-92958615D01*
X121374525Y-92943376D01*
X121373135Y-92942171D01*
X121365452Y-92940500D01*
X119431115Y-92940500D01*
X119415876Y-92944975D01*
X119414671Y-92946365D01*
X119413000Y-92954048D01*
X119413000Y-92982766D01*
X119413337Y-92989282D01*
X119423075Y-93083132D01*
X119425968Y-93096528D01*
X119476488Y-93247953D01*
X119482653Y-93261115D01*
X119566426Y-93396492D01*
X119575460Y-93407890D01*
X119677140Y-93509393D01*
X119711219Y-93571676D01*
X119706216Y-93642496D01*
X119677295Y-93687584D01*
X119672390Y-93692497D01*
X119652902Y-93712019D01*
X119590619Y-93746097D01*
X119563730Y-93749000D01*
X119252000Y-93749000D01*
X119183879Y-93728998D01*
X119137386Y-93675342D01*
X119126000Y-93623000D01*
X119126000Y-92414385D01*
X119413000Y-92414385D01*
X119417475Y-92429624D01*
X119418865Y-92430829D01*
X119426548Y-92432500D01*
X120123885Y-92432500D01*
X120139124Y-92428025D01*
X120140329Y-92426635D01*
X120142000Y-92418952D01*
X120142000Y-92414385D01*
X120650000Y-92414385D01*
X120654475Y-92429624D01*
X120655865Y-92430829D01*
X120663548Y-92432500D01*
X121360885Y-92432500D01*
X121376124Y-92428025D01*
X121377329Y-92426635D01*
X121379000Y-92418952D01*
X121379000Y-92390234D01*
X121378663Y-92383718D01*
X121368925Y-92289868D01*
X121366032Y-92276472D01*
X121315512Y-92125047D01*
X121309347Y-92111885D01*
X121225574Y-91976508D01*
X121216540Y-91965110D01*
X121103871Y-91852637D01*
X121092460Y-91843625D01*
X120956937Y-91760088D01*
X120943759Y-91753944D01*
X120792234Y-91703685D01*
X120778868Y-91700819D01*
X120686230Y-91691328D01*
X120679815Y-91691000D01*
X120668115Y-91691000D01*
X120652876Y-91695475D01*
X120651671Y-91696865D01*
X120650000Y-91704548D01*
X120650000Y-92414385D01*
X120142000Y-92414385D01*
X120142000Y-91709115D01*
X120137525Y-91693876D01*
X120136135Y-91692671D01*
X120128452Y-91691000D01*
X120112234Y-91691000D01*
X120105718Y-91691337D01*
X120011868Y-91701075D01*
X119998472Y-91703968D01*
X119847047Y-91754488D01*
X119833885Y-91760653D01*
X119698508Y-91844426D01*
X119687110Y-91853460D01*
X119574637Y-91966129D01*
X119565625Y-91977540D01*
X119482088Y-92113063D01*
X119475944Y-92126241D01*
X119425685Y-92277766D01*
X119422819Y-92291132D01*
X119413328Y-92383770D01*
X119413000Y-92390185D01*
X119413000Y-92414385D01*
X119126000Y-92414385D01*
X119126000Y-91439000D01*
X119146002Y-91370879D01*
X119199658Y-91324386D01*
X119252000Y-91313000D01*
X125929885Y-91313000D01*
X125998006Y-91333002D01*
G37*
%TD.AperFunction*%
%TA.AperFunction,Conductor*%
G36*
X132022121Y-91333002D02*
G01*
X132068614Y-91386658D01*
X132080000Y-91439000D01*
X132080000Y-91657755D01*
X132059998Y-91725876D01*
X132006342Y-91772369D01*
X131936068Y-91782473D01*
X131887884Y-91765015D01*
X131879150Y-91759631D01*
X131879148Y-91759630D01*
X131872920Y-91755791D01*
X131707809Y-91701026D01*
X131700973Y-91700326D01*
X131700970Y-91700325D01*
X131649474Y-91695049D01*
X131605072Y-91690500D01*
X131030928Y-91690500D01*
X131027682Y-91690837D01*
X131027678Y-91690837D01*
X130933765Y-91700581D01*
X130933761Y-91700582D01*
X130926907Y-91701293D01*
X130920371Y-91703474D01*
X130920369Y-91703474D01*
X130811697Y-91739730D01*
X130761893Y-91756346D01*
X130613969Y-91847884D01*
X130608796Y-91853066D01*
X130496242Y-91965816D01*
X130496238Y-91965821D01*
X130491071Y-91970997D01*
X130487231Y-91977227D01*
X130487230Y-91977228D01*
X130463590Y-92015580D01*
X130399791Y-92119080D01*
X130345026Y-92284191D01*
X130334500Y-92386928D01*
X130334500Y-92986072D01*
X130334837Y-92989318D01*
X130334837Y-92989322D01*
X130344571Y-93083132D01*
X130345293Y-93090093D01*
X130347474Y-93096629D01*
X130347474Y-93096631D01*
X130389213Y-93221738D01*
X130400346Y-93255107D01*
X130491884Y-93403031D01*
X130599141Y-93510101D01*
X130633220Y-93572382D01*
X130628217Y-93643202D01*
X130599296Y-93688291D01*
X130496637Y-93791129D01*
X130487625Y-93802540D01*
X130404088Y-93938063D01*
X130397944Y-93951241D01*
X130347685Y-94102766D01*
X130344819Y-94116132D01*
X130335328Y-94208770D01*
X130335000Y-94215185D01*
X130335000Y-94239385D01*
X130339475Y-94254624D01*
X130340865Y-94255829D01*
X130348548Y-94257500D01*
X131446000Y-94257500D01*
X131514121Y-94277502D01*
X131560614Y-94331158D01*
X131572000Y-94383500D01*
X131572000Y-94639500D01*
X131551998Y-94707621D01*
X131498342Y-94754114D01*
X131446000Y-94765500D01*
X130353115Y-94765500D01*
X130337876Y-94769975D01*
X130336671Y-94771365D01*
X130335000Y-94779048D01*
X130335000Y-94807766D01*
X130335337Y-94814282D01*
X130345075Y-94908132D01*
X130347968Y-94921528D01*
X130398488Y-95072953D01*
X130404653Y-95086115D01*
X130488426Y-95221492D01*
X130497464Y-95232894D01*
X130551208Y-95286545D01*
X130585288Y-95348827D01*
X130580285Y-95419647D01*
X130537788Y-95476520D01*
X130471290Y-95501389D01*
X130462013Y-95501718D01*
X127974019Y-95498210D01*
X127905927Y-95478112D01*
X127859510Y-95424391D01*
X127849505Y-95354103D01*
X127866938Y-95306093D01*
X127884274Y-95277970D01*
X127884275Y-95277967D01*
X127888115Y-95271738D01*
X127935027Y-95130302D01*
X127941632Y-95110389D01*
X127941632Y-95110387D01*
X127943797Y-95103861D01*
X127946353Y-95078920D01*
X127948909Y-95053969D01*
X127954500Y-94999400D01*
X127954500Y-94248600D01*
X127950695Y-94211928D01*
X127944238Y-94149692D01*
X127944237Y-94149688D01*
X127943526Y-94142834D01*
X127934618Y-94116132D01*
X127889868Y-93982002D01*
X127887550Y-93975054D01*
X127794478Y-93824652D01*
X127669303Y-93699695D01*
X127665084Y-93697094D01*
X127624583Y-93639970D01*
X127621351Y-93569047D01*
X127656976Y-93507635D01*
X127664530Y-93501078D01*
X127670348Y-93497478D01*
X127795305Y-93372303D01*
X127811827Y-93345500D01*
X127884275Y-93227968D01*
X127884276Y-93227966D01*
X127888115Y-93221738D01*
X127930074Y-93095234D01*
X127941632Y-93060389D01*
X127941632Y-93060387D01*
X127943797Y-93053861D01*
X127954500Y-92949400D01*
X127954500Y-92198600D01*
X127954163Y-92195350D01*
X127944238Y-92099692D01*
X127944237Y-92099688D01*
X127943526Y-92092834D01*
X127915674Y-92009350D01*
X127889868Y-91932002D01*
X127887550Y-91925054D01*
X127794478Y-91774652D01*
X127669303Y-91649695D01*
X127583948Y-91597081D01*
X127524968Y-91560725D01*
X127524966Y-91560724D01*
X127518738Y-91556885D01*
X127511791Y-91554581D01*
X127508819Y-91553195D01*
X127455534Y-91506279D01*
X127436072Y-91438002D01*
X127456613Y-91370042D01*
X127510635Y-91323975D01*
X127562068Y-91313000D01*
X131954000Y-91313000D01*
X132022121Y-91333002D01*
G37*
%TD.AperFunction*%
%TD*%
%TA.AperFunction,Conductor*%
%TO.N,GND*%
G36*
X132050018Y-90045000D02*
G01*
X132064852Y-90047310D01*
X132064855Y-90047310D01*
X132073724Y-90048691D01*
X132082626Y-90047527D01*
X132082627Y-90047527D01*
X132095104Y-90045896D01*
X132116385Y-90044930D01*
X132533369Y-90061313D01*
X132543232Y-90062089D01*
X132988901Y-90114838D01*
X132998672Y-90116386D01*
X133222935Y-90160994D01*
X133438828Y-90203938D01*
X133448434Y-90206244D01*
X133880362Y-90328060D01*
X133889752Y-90331111D01*
X134310802Y-90486445D01*
X134319942Y-90490231D01*
X134727496Y-90678115D01*
X134736311Y-90682607D01*
X135127850Y-90901880D01*
X135136286Y-90907049D01*
X135509438Y-91156381D01*
X135517426Y-91162184D01*
X135669573Y-91282128D01*
X135869861Y-91440023D01*
X135877384Y-91446448D01*
X135994362Y-91554581D01*
X136206940Y-91751086D01*
X136213914Y-91758060D01*
X136362523Y-91918824D01*
X136518552Y-92087616D01*
X136524977Y-92095139D01*
X136673002Y-92282907D01*
X136755007Y-92386928D01*
X136802810Y-92447566D01*
X136808625Y-92455570D01*
X137057951Y-92828714D01*
X137063120Y-92837150D01*
X137282393Y-93228689D01*
X137286884Y-93237502D01*
X137449641Y-93590550D01*
X137474769Y-93645058D01*
X137478554Y-93654196D01*
X137608229Y-94005691D01*
X137633886Y-94075238D01*
X137636940Y-94084638D01*
X137748036Y-94478556D01*
X137758754Y-94516559D01*
X137761062Y-94526172D01*
X137791700Y-94680197D01*
X137848614Y-94966328D01*
X137850162Y-94976099D01*
X137902911Y-95421768D01*
X137903687Y-95431631D01*
X137919776Y-95841134D01*
X137918373Y-95865463D01*
X137917691Y-95869847D01*
X137916309Y-95878724D01*
X137917473Y-95887626D01*
X137917473Y-95887628D01*
X137920436Y-95910283D01*
X137921500Y-95926621D01*
X137921500Y-121920500D01*
X137901498Y-121988621D01*
X137847842Y-122035114D01*
X137795500Y-122046500D01*
X94029367Y-122046500D01*
X94009982Y-122045000D01*
X93995148Y-122042690D01*
X93995145Y-122042690D01*
X93986276Y-122041309D01*
X93977374Y-122042473D01*
X93977373Y-122042473D01*
X93964896Y-122044104D01*
X93943615Y-122045070D01*
X93526631Y-122028687D01*
X93516768Y-122027911D01*
X93071099Y-121975162D01*
X93061328Y-121973614D01*
X92794303Y-121920500D01*
X92621172Y-121886062D01*
X92611566Y-121883756D01*
X92179638Y-121761940D01*
X92170248Y-121758889D01*
X91749196Y-121603554D01*
X91740058Y-121599769D01*
X91332504Y-121411885D01*
X91323689Y-121407393D01*
X90932150Y-121188120D01*
X90923714Y-121182951D01*
X90736388Y-121057784D01*
X90550562Y-120933619D01*
X90542574Y-120927816D01*
X90390427Y-120807872D01*
X90190139Y-120649977D01*
X90182616Y-120643552D01*
X90034191Y-120506350D01*
X89853060Y-120338914D01*
X89846086Y-120331940D01*
X89656905Y-120127285D01*
X89541448Y-120002384D01*
X89535023Y-119994861D01*
X89384298Y-119803669D01*
X117310001Y-119803669D01*
X117310371Y-119810490D01*
X117315895Y-119861352D01*
X117319521Y-119876604D01*
X117364676Y-119997054D01*
X117373214Y-120012649D01*
X117449715Y-120114724D01*
X117462276Y-120127285D01*
X117564351Y-120203786D01*
X117579946Y-120212324D01*
X117700394Y-120257478D01*
X117715649Y-120261105D01*
X117766514Y-120266631D01*
X117773328Y-120267000D01*
X118345885Y-120267000D01*
X118361124Y-120262525D01*
X118362329Y-120261135D01*
X118364000Y-120253452D01*
X118364000Y-120248884D01*
X118872000Y-120248884D01*
X118876475Y-120264123D01*
X118877865Y-120265328D01*
X118885548Y-120266999D01*
X119462669Y-120266999D01*
X119469490Y-120266629D01*
X119520352Y-120261105D01*
X119535604Y-120257479D01*
X119656054Y-120212324D01*
X119671649Y-120203786D01*
X119773724Y-120127285D01*
X119786285Y-120114724D01*
X119862786Y-120012649D01*
X119871324Y-119997054D01*
X119916478Y-119876606D01*
X119920105Y-119861351D01*
X119925631Y-119810486D01*
X119926000Y-119803672D01*
X119926000Y-119231115D01*
X119921525Y-119215876D01*
X119920135Y-119214671D01*
X119912452Y-119213000D01*
X118890115Y-119213000D01*
X118874876Y-119217475D01*
X118873671Y-119218865D01*
X118872000Y-119226548D01*
X118872000Y-120248884D01*
X118364000Y-120248884D01*
X118364000Y-119231115D01*
X118359525Y-119215876D01*
X118358135Y-119214671D01*
X118350452Y-119213000D01*
X117328116Y-119213000D01*
X117312877Y-119217475D01*
X117311672Y-119218865D01*
X117310001Y-119226548D01*
X117310001Y-119803669D01*
X89384298Y-119803669D01*
X89257190Y-119642434D01*
X89251375Y-119634430D01*
X89002049Y-119261286D01*
X88996880Y-119252850D01*
X88819289Y-118935739D01*
X88777606Y-118861309D01*
X88773115Y-118852496D01*
X88741939Y-118784869D01*
X88585230Y-118444939D01*
X88581445Y-118435802D01*
X88564214Y-118389095D01*
X88426111Y-118014752D01*
X88423057Y-118005352D01*
X88422395Y-118003002D01*
X88399484Y-117921766D01*
X98331000Y-117921766D01*
X98331337Y-117928282D01*
X98341075Y-118022132D01*
X98343968Y-118035528D01*
X98394488Y-118186953D01*
X98400653Y-118200115D01*
X98484426Y-118335492D01*
X98493460Y-118346890D01*
X98606129Y-118459363D01*
X98617540Y-118468375D01*
X98753063Y-118551912D01*
X98766241Y-118558056D01*
X98917766Y-118608315D01*
X98931132Y-118611181D01*
X99023770Y-118620672D01*
X99030185Y-118621000D01*
X99041885Y-118621000D01*
X99057124Y-118616525D01*
X99058329Y-118615135D01*
X99060000Y-118607452D01*
X99060000Y-118602885D01*
X99568000Y-118602885D01*
X99572475Y-118618124D01*
X99573865Y-118619329D01*
X99581548Y-118621000D01*
X99597766Y-118621000D01*
X99604282Y-118620663D01*
X99698132Y-118610925D01*
X99711528Y-118608032D01*
X99862953Y-118557512D01*
X99876115Y-118551347D01*
X100011492Y-118467574D01*
X100022890Y-118458540D01*
X100135363Y-118345871D01*
X100144375Y-118334460D01*
X100227912Y-118198937D01*
X100234056Y-118185759D01*
X100284315Y-118034234D01*
X100287181Y-118020868D01*
X100296672Y-117928230D01*
X100297000Y-117921815D01*
X100297000Y-117897615D01*
X100292525Y-117882376D01*
X100291135Y-117881171D01*
X100283452Y-117879500D01*
X99586115Y-117879500D01*
X99570876Y-117883975D01*
X99569671Y-117885365D01*
X99568000Y-117893048D01*
X99568000Y-118602885D01*
X99060000Y-118602885D01*
X99060000Y-117897615D01*
X99055525Y-117882376D01*
X99054135Y-117881171D01*
X99046452Y-117879500D01*
X98349115Y-117879500D01*
X98333876Y-117883975D01*
X98332671Y-117885365D01*
X98331000Y-117893048D01*
X98331000Y-117921766D01*
X88399484Y-117921766D01*
X88301244Y-117573434D01*
X88298936Y-117563821D01*
X88286324Y-117500412D01*
X88232562Y-117230132D01*
X88211386Y-117123672D01*
X88209838Y-117113901D01*
X88157089Y-116668232D01*
X88156313Y-116658369D01*
X88140372Y-116252645D01*
X88142021Y-116226794D01*
X88142769Y-116222347D01*
X88143576Y-116217552D01*
X88143729Y-116205000D01*
X88139773Y-116177376D01*
X88138500Y-116159514D01*
X88138500Y-111506669D01*
X89574001Y-111506669D01*
X89574371Y-111513490D01*
X89579895Y-111564352D01*
X89583521Y-111579604D01*
X89628676Y-111700054D01*
X89637214Y-111715649D01*
X89713715Y-111817724D01*
X89726276Y-111830285D01*
X89828351Y-111906786D01*
X89843946Y-111915324D01*
X89964394Y-111960478D01*
X89979649Y-111964105D01*
X90030514Y-111969631D01*
X90037328Y-111970000D01*
X90659885Y-111970000D01*
X90675124Y-111965525D01*
X90676329Y-111964135D01*
X90678000Y-111956452D01*
X90678000Y-111951884D01*
X91186000Y-111951884D01*
X91190475Y-111967123D01*
X91191865Y-111968328D01*
X91199548Y-111969999D01*
X91826669Y-111969999D01*
X91833490Y-111969629D01*
X91884352Y-111964105D01*
X91899604Y-111960479D01*
X92020054Y-111915324D01*
X92035649Y-111906786D01*
X92137724Y-111830285D01*
X92150285Y-111817724D01*
X92226786Y-111715649D01*
X92235324Y-111700054D01*
X92280478Y-111579606D01*
X92284105Y-111564351D01*
X92289631Y-111513486D01*
X92290000Y-111506672D01*
X92290000Y-110884115D01*
X92285525Y-110868876D01*
X92284135Y-110867671D01*
X92276452Y-110866000D01*
X91204115Y-110866000D01*
X91188876Y-110870475D01*
X91187671Y-110871865D01*
X91186000Y-110879548D01*
X91186000Y-111951884D01*
X90678000Y-111951884D01*
X90678000Y-110884115D01*
X90673525Y-110868876D01*
X90672135Y-110867671D01*
X90664452Y-110866000D01*
X89592116Y-110866000D01*
X89576877Y-110870475D01*
X89575672Y-110871865D01*
X89574001Y-110879548D01*
X89574001Y-111506669D01*
X88138500Y-111506669D01*
X88138500Y-109603500D01*
X88158502Y-109535379D01*
X88212158Y-109488886D01*
X88264302Y-109477500D01*
X89116296Y-109476168D01*
X89464796Y-109475623D01*
X89532948Y-109495519D01*
X89579525Y-109549102D01*
X89589738Y-109619360D01*
X89585311Y-109636700D01*
X89585349Y-109636709D01*
X89579895Y-109659649D01*
X89574369Y-109710514D01*
X89574000Y-109717328D01*
X89574000Y-110339885D01*
X89578475Y-110355124D01*
X89579865Y-110356329D01*
X89587548Y-110358000D01*
X92271884Y-110358000D01*
X92287123Y-110353525D01*
X92288328Y-110352135D01*
X92289999Y-110344452D01*
X92289999Y-110047766D01*
X96299000Y-110047766D01*
X96299337Y-110054282D01*
X96309075Y-110148132D01*
X96311968Y-110161528D01*
X96362488Y-110312953D01*
X96368653Y-110326115D01*
X96452426Y-110461492D01*
X96461460Y-110472890D01*
X96574129Y-110585363D01*
X96585540Y-110594375D01*
X96721063Y-110677912D01*
X96734241Y-110684056D01*
X96885766Y-110734315D01*
X96899132Y-110737181D01*
X96991770Y-110746672D01*
X96998185Y-110747000D01*
X97009885Y-110747000D01*
X97025124Y-110742525D01*
X97026329Y-110741135D01*
X97028000Y-110733452D01*
X97028000Y-110023615D01*
X97023525Y-110008376D01*
X97022135Y-110007171D01*
X97014452Y-110005500D01*
X96317115Y-110005500D01*
X96301876Y-110009975D01*
X96300671Y-110011365D01*
X96299000Y-110019048D01*
X96299000Y-110047766D01*
X92289999Y-110047766D01*
X92289999Y-109717331D01*
X92289629Y-109710510D01*
X92284105Y-109659648D01*
X92280478Y-109644394D01*
X92279306Y-109641266D01*
X92279115Y-109638660D01*
X92278651Y-109636707D01*
X92278967Y-109636632D01*
X92274123Y-109570459D01*
X92308044Y-109508090D01*
X92370300Y-109473961D01*
X92397084Y-109471038D01*
X96222161Y-109465056D01*
X96290311Y-109484952D01*
X96304864Y-109495829D01*
X96312548Y-109497500D01*
X97410000Y-109497500D01*
X97478121Y-109517502D01*
X97524614Y-109571158D01*
X97536000Y-109623500D01*
X97536000Y-110728885D01*
X97540475Y-110744124D01*
X97541865Y-110745329D01*
X97549548Y-110747000D01*
X97565766Y-110747000D01*
X97572282Y-110746663D01*
X97666132Y-110736925D01*
X97679528Y-110734032D01*
X97830953Y-110683512D01*
X97844111Y-110677349D01*
X97980180Y-110593147D01*
X98048632Y-110574310D01*
X98116402Y-110595471D01*
X98161973Y-110649912D01*
X98172483Y-110700470D01*
X98172241Y-110871865D01*
X98170984Y-111759768D01*
X100597842Y-111759826D01*
X104387975Y-111759916D01*
X104456095Y-111779920D01*
X104502587Y-111833576D01*
X104512689Y-111903851D01*
X104483194Y-111968431D01*
X104477069Y-111975009D01*
X102983283Y-113468794D01*
X101714517Y-114737560D01*
X101706191Y-114745136D01*
X101699697Y-114749257D01*
X101694274Y-114755032D01*
X101652915Y-114799075D01*
X101650160Y-114801917D01*
X101630361Y-114821716D01*
X101627937Y-114824841D01*
X101627929Y-114824850D01*
X101627863Y-114824936D01*
X101620155Y-114833961D01*
X101589783Y-114866304D01*
X101580461Y-114883261D01*
X101579978Y-114884139D01*
X101569127Y-114900657D01*
X101556650Y-114916743D01*
X101542121Y-114950318D01*
X101492790Y-115007419D01*
X101473845Y-115019143D01*
X101407540Y-115038000D01*
X100146193Y-115038000D01*
X100078072Y-115017998D01*
X100057175Y-115001173D01*
X100032721Y-114976761D01*
X100017003Y-114961071D01*
X99934928Y-114910479D01*
X99875150Y-114873631D01*
X99875148Y-114873630D01*
X99868920Y-114869791D01*
X99703809Y-114815026D01*
X99696973Y-114814326D01*
X99696970Y-114814325D01*
X99645474Y-114809049D01*
X99601072Y-114804500D01*
X99026928Y-114804500D01*
X99023682Y-114804837D01*
X99023678Y-114804837D01*
X98929765Y-114814581D01*
X98929761Y-114814582D01*
X98922907Y-114815293D01*
X98916371Y-114817474D01*
X98916369Y-114817474D01*
X98819995Y-114849627D01*
X98757893Y-114870346D01*
X98609969Y-114961884D01*
X98604796Y-114967066D01*
X98492242Y-115079816D01*
X98492238Y-115079821D01*
X98487071Y-115084997D01*
X98483231Y-115091227D01*
X98483230Y-115091228D01*
X98400947Y-115224716D01*
X98395791Y-115233080D01*
X98341026Y-115398191D01*
X98340326Y-115405027D01*
X98340325Y-115405030D01*
X98337169Y-115435834D01*
X98330500Y-115500928D01*
X98330500Y-116100072D01*
X98330837Y-116103318D01*
X98330837Y-116103322D01*
X98337599Y-116168487D01*
X98341293Y-116204093D01*
X98343474Y-116210629D01*
X98343474Y-116210631D01*
X98370837Y-116292646D01*
X98396346Y-116369107D01*
X98487884Y-116517031D01*
X98595141Y-116624101D01*
X98629220Y-116686382D01*
X98624217Y-116757202D01*
X98595296Y-116802291D01*
X98492637Y-116905129D01*
X98483625Y-116916540D01*
X98400088Y-117052063D01*
X98393944Y-117065241D01*
X98343685Y-117216766D01*
X98340819Y-117230132D01*
X98331328Y-117322770D01*
X98331000Y-117329185D01*
X98331000Y-117353385D01*
X98335475Y-117368624D01*
X98336865Y-117369829D01*
X98344548Y-117371500D01*
X100278885Y-117371500D01*
X100294124Y-117367025D01*
X100295329Y-117365635D01*
X100297000Y-117357952D01*
X100297000Y-117329234D01*
X100296663Y-117322718D01*
X100286925Y-117228868D01*
X100284032Y-117215472D01*
X100233512Y-117064047D01*
X100227347Y-117050885D01*
X100143574Y-116915508D01*
X100134540Y-116904110D01*
X100032860Y-116802607D01*
X99998781Y-116740324D01*
X100003784Y-116669504D01*
X100032706Y-116624415D01*
X100033022Y-116624099D01*
X100057097Y-116599981D01*
X100119381Y-116565903D01*
X100146270Y-116563000D01*
X101178834Y-116563000D01*
X101246955Y-116583002D01*
X101277579Y-116610735D01*
X101278033Y-116611307D01*
X101281884Y-116617531D01*
X101287064Y-116622702D01*
X101388786Y-116724247D01*
X101422865Y-116786530D01*
X101417862Y-116857350D01*
X101388941Y-116902437D01*
X101286246Y-117005312D01*
X101286242Y-117005317D01*
X101281071Y-117010497D01*
X101277231Y-117016727D01*
X101277230Y-117016728D01*
X101211309Y-117123672D01*
X101189791Y-117158580D01*
X101135026Y-117323691D01*
X101134326Y-117330527D01*
X101134325Y-117330530D01*
X101130586Y-117367025D01*
X101124500Y-117426428D01*
X101124500Y-118025572D01*
X101124837Y-118028818D01*
X101124837Y-118028822D01*
X101133355Y-118110912D01*
X101135293Y-118129593D01*
X101137474Y-118136129D01*
X101137474Y-118136131D01*
X101145695Y-118160771D01*
X101190346Y-118294607D01*
X101281884Y-118442531D01*
X101287066Y-118447704D01*
X101399816Y-118560258D01*
X101399821Y-118560262D01*
X101404997Y-118565429D01*
X101411227Y-118569269D01*
X101411228Y-118569270D01*
X101543293Y-118650676D01*
X101553080Y-118656709D01*
X101718191Y-118711474D01*
X101725027Y-118712174D01*
X101725030Y-118712175D01*
X101776526Y-118717451D01*
X101820928Y-118722000D01*
X102395072Y-118722000D01*
X102398318Y-118721663D01*
X102398322Y-118721663D01*
X102492235Y-118711919D01*
X102492239Y-118711918D01*
X102499093Y-118711207D01*
X102505629Y-118709026D01*
X102505631Y-118709026D01*
X102638395Y-118664732D01*
X102664107Y-118656154D01*
X102812031Y-118564616D01*
X102817204Y-118559434D01*
X102817209Y-118559430D01*
X102901009Y-118475483D01*
X102963291Y-118441403D01*
X102990182Y-118438500D01*
X103575950Y-118438500D01*
X103644071Y-118458502D01*
X103690564Y-118512158D01*
X103695474Y-118524624D01*
X103709088Y-118565429D01*
X103735450Y-118644446D01*
X103828522Y-118794848D01*
X103953697Y-118919805D01*
X103959927Y-118923645D01*
X103959928Y-118923646D01*
X104097090Y-119008194D01*
X104104262Y-119012615D01*
X104184005Y-119039064D01*
X104265611Y-119066132D01*
X104265613Y-119066132D01*
X104272139Y-119068297D01*
X104278975Y-119068997D01*
X104278978Y-119068998D01*
X104322031Y-119073409D01*
X104376600Y-119079000D01*
X105427400Y-119079000D01*
X105430646Y-119078663D01*
X105430650Y-119078663D01*
X105526308Y-119068738D01*
X105526312Y-119068737D01*
X105533166Y-119068026D01*
X105539702Y-119065845D01*
X105539704Y-119065845D01*
X105671806Y-119021772D01*
X105700946Y-119012050D01*
X105851348Y-118918978D01*
X105976305Y-118793803D01*
X105977334Y-118792134D01*
X106033456Y-118752345D01*
X106074419Y-118745500D01*
X107289268Y-118745500D01*
X107355384Y-118764240D01*
X107395080Y-118788709D01*
X107560191Y-118843474D01*
X107567027Y-118844174D01*
X107567030Y-118844175D01*
X107618526Y-118849451D01*
X107662928Y-118854000D01*
X108237072Y-118854000D01*
X108240318Y-118853663D01*
X108240322Y-118853663D01*
X108334235Y-118843919D01*
X108334239Y-118843918D01*
X108341093Y-118843207D01*
X108347629Y-118841026D01*
X108347631Y-118841026D01*
X108490362Y-118793407D01*
X108506107Y-118788154D01*
X108654031Y-118696616D01*
X108679845Y-118670757D01*
X108771758Y-118578684D01*
X108771762Y-118578679D01*
X108776929Y-118573503D01*
X108782407Y-118564616D01*
X108864369Y-118431650D01*
X108864370Y-118431648D01*
X108868209Y-118425420D01*
X108880257Y-118389095D01*
X109765001Y-118389095D01*
X109765338Y-118395614D01*
X109775257Y-118491206D01*
X109778149Y-118504600D01*
X109829588Y-118658784D01*
X109835761Y-118671962D01*
X109921063Y-118809807D01*
X109930099Y-118821208D01*
X110044829Y-118935739D01*
X110056240Y-118944751D01*
X110194243Y-119029816D01*
X110207424Y-119035963D01*
X110361710Y-119087138D01*
X110375086Y-119090005D01*
X110469438Y-119099672D01*
X110475854Y-119100000D01*
X110725885Y-119100000D01*
X110741124Y-119095525D01*
X110742329Y-119094135D01*
X110744000Y-119086452D01*
X110744000Y-119081884D01*
X111252000Y-119081884D01*
X111256475Y-119097123D01*
X111257865Y-119098328D01*
X111265548Y-119099999D01*
X111520095Y-119099999D01*
X111526614Y-119099662D01*
X111622206Y-119089743D01*
X111635600Y-119086851D01*
X111789784Y-119035412D01*
X111802962Y-119029239D01*
X111940807Y-118943937D01*
X111952208Y-118934901D01*
X112066739Y-118820171D01*
X112075751Y-118808760D01*
X112160816Y-118670757D01*
X112166963Y-118657576D01*
X112218138Y-118503290D01*
X112221005Y-118489914D01*
X112230672Y-118395562D01*
X112231000Y-118389146D01*
X112231000Y-118276615D01*
X112226525Y-118261376D01*
X112225135Y-118260171D01*
X112217452Y-118258500D01*
X111270115Y-118258500D01*
X111254876Y-118262975D01*
X111253671Y-118264365D01*
X111252000Y-118272048D01*
X111252000Y-119081884D01*
X110744000Y-119081884D01*
X110744000Y-118276615D01*
X110739525Y-118261376D01*
X110738135Y-118260171D01*
X110730452Y-118258500D01*
X109783116Y-118258500D01*
X109767877Y-118262975D01*
X109766672Y-118264365D01*
X109765001Y-118272048D01*
X109765001Y-118389095D01*
X108880257Y-118389095D01*
X108922974Y-118260309D01*
X108933500Y-118157572D01*
X108933500Y-117775422D01*
X108953502Y-117707301D01*
X108970405Y-117686327D01*
X109306123Y-117350609D01*
X109368435Y-117316583D01*
X109439250Y-117321648D01*
X109474000Y-117342266D01*
X109474000Y-117348000D01*
X109655797Y-117348000D01*
X109723918Y-117368002D01*
X109770411Y-117421658D01*
X109780515Y-117491932D01*
X109778998Y-117500412D01*
X109774995Y-117519086D01*
X109765328Y-117613438D01*
X109765000Y-117619855D01*
X109765000Y-117732385D01*
X109769475Y-117747624D01*
X109770865Y-117748829D01*
X109778548Y-117750500D01*
X112212884Y-117750500D01*
X112228123Y-117746025D01*
X112229328Y-117744635D01*
X112230999Y-117736952D01*
X112230999Y-117619905D01*
X112230662Y-117613386D01*
X112220744Y-117517798D01*
X112217029Y-117500594D01*
X112222203Y-117429786D01*
X112264837Y-117373016D01*
X112331395Y-117348307D01*
X112340191Y-117348000D01*
X113412000Y-117348000D01*
X113480121Y-117368002D01*
X113526614Y-117421658D01*
X113538000Y-117474000D01*
X113538000Y-117983000D01*
X117184103Y-117983000D01*
X117252224Y-118003002D01*
X117298717Y-118056658D01*
X117308997Y-118110911D01*
X117310000Y-118110911D01*
X117310000Y-118686885D01*
X117314475Y-118702124D01*
X117315865Y-118703329D01*
X117323548Y-118705000D01*
X119907884Y-118705000D01*
X119923123Y-118700525D01*
X119924328Y-118699135D01*
X119925999Y-118691452D01*
X119925999Y-118110912D01*
X119927242Y-118110912D01*
X119942354Y-118046737D01*
X119993405Y-117997398D01*
X120051895Y-117983000D01*
X123698000Y-117983000D01*
X123698000Y-114839654D01*
X126681618Y-114839654D01*
X126688673Y-114849627D01*
X126719679Y-114875551D01*
X126726598Y-114880579D01*
X126951272Y-115021515D01*
X126958807Y-115025556D01*
X127200520Y-115134694D01*
X127208551Y-115137680D01*
X127462832Y-115213002D01*
X127471184Y-115214869D01*
X127733340Y-115254984D01*
X127741874Y-115255700D01*
X128007045Y-115259867D01*
X128015596Y-115259418D01*
X128278883Y-115227557D01*
X128287284Y-115225955D01*
X128543824Y-115158653D01*
X128551926Y-115155926D01*
X128796949Y-115054434D01*
X128804617Y-115050628D01*
X129033598Y-114916822D01*
X129040679Y-114912009D01*
X129120655Y-114849301D01*
X129129125Y-114837442D01*
X129122608Y-114825818D01*
X127918812Y-113622022D01*
X127904868Y-113614408D01*
X127903035Y-113614539D01*
X127896420Y-113618790D01*
X126688910Y-114826300D01*
X126681618Y-114839654D01*
X123698000Y-114839654D01*
X123698000Y-112140000D01*
X123718002Y-112071879D01*
X123771658Y-112025386D01*
X123824000Y-112014000D01*
X126079013Y-112014000D01*
X126147134Y-112034002D01*
X126193627Y-112087658D01*
X126203731Y-112157932D01*
X126190367Y-112198959D01*
X126069325Y-112427567D01*
X126065839Y-112435395D01*
X125974700Y-112684446D01*
X125972311Y-112692670D01*
X125915812Y-112951795D01*
X125914563Y-112960250D01*
X125893754Y-113224653D01*
X125893665Y-113233204D01*
X125908932Y-113497969D01*
X125910005Y-113506470D01*
X125961065Y-113766722D01*
X125963276Y-113774974D01*
X126049184Y-114025894D01*
X126052499Y-114033779D01*
X126171664Y-114270713D01*
X126176020Y-114278079D01*
X126305347Y-114466250D01*
X126315601Y-114474594D01*
X126329342Y-114467448D01*
X127545658Y-113251132D01*
X128270408Y-113251132D01*
X128270539Y-113252965D01*
X128274790Y-113259580D01*
X129481730Y-114466520D01*
X129493939Y-114473187D01*
X129505439Y-114464497D01*
X129602831Y-114331913D01*
X129607418Y-114324685D01*
X129733962Y-114091621D01*
X129737530Y-114083827D01*
X129831271Y-113835750D01*
X129833748Y-113827544D01*
X129892954Y-113569038D01*
X129894294Y-113560577D01*
X129918031Y-113294616D01*
X129918277Y-113289677D01*
X129918666Y-113252485D01*
X129918523Y-113247519D01*
X129900362Y-112981123D01*
X129899201Y-112972649D01*
X129845419Y-112712944D01*
X129843120Y-112704709D01*
X129754588Y-112454705D01*
X129751191Y-112446854D01*
X129629550Y-112211178D01*
X129625122Y-112203866D01*
X129506031Y-112034417D01*
X129495509Y-112026037D01*
X129482121Y-112033089D01*
X128278022Y-113237188D01*
X128270408Y-113251132D01*
X127545658Y-113251132D01*
X129122604Y-111674186D01*
X129129795Y-111661017D01*
X129122473Y-111650780D01*
X129075233Y-111612115D01*
X129068261Y-111607160D01*
X128842122Y-111468582D01*
X128834552Y-111464624D01*
X128591704Y-111358022D01*
X128583644Y-111355120D01*
X128328592Y-111282467D01*
X128320214Y-111280685D01*
X128057656Y-111243318D01*
X128049111Y-111242691D01*
X127783908Y-111241302D01*
X127775374Y-111241839D01*
X127512433Y-111276456D01*
X127504035Y-111278149D01*
X127248238Y-111348127D01*
X127240136Y-111350948D01*
X127048437Y-111432715D01*
X126977930Y-111441044D01*
X126914114Y-111409931D01*
X126877249Y-111349255D01*
X126873002Y-111316818D01*
X126873006Y-107714115D01*
X126873006Y-107696000D01*
X126626356Y-107696000D01*
X126558235Y-107675998D01*
X126511742Y-107622342D01*
X126500835Y-107580982D01*
X126490022Y-107457393D01*
X126489543Y-107451913D01*
X126430284Y-107230757D01*
X126427961Y-107225775D01*
X126335849Y-107028238D01*
X126335846Y-107028233D01*
X126333523Y-107023251D01*
X126238232Y-106887162D01*
X126205357Y-106840211D01*
X126205355Y-106840208D01*
X126202198Y-106835700D01*
X126135593Y-106769095D01*
X126101567Y-106706783D01*
X126106632Y-106635968D01*
X126135593Y-106590905D01*
X126202198Y-106524300D01*
X126333523Y-106336749D01*
X126335846Y-106331767D01*
X126335849Y-106331762D01*
X126427961Y-106134225D01*
X126427961Y-106134224D01*
X126430284Y-106129243D01*
X126489543Y-105908087D01*
X126509498Y-105680000D01*
X126489543Y-105451913D01*
X126430284Y-105230757D01*
X126339048Y-105035099D01*
X126335849Y-105028238D01*
X126335846Y-105028233D01*
X126333523Y-105023251D01*
X126202198Y-104835700D01*
X126040300Y-104673802D01*
X126035792Y-104670645D01*
X126035789Y-104670643D01*
X125857253Y-104545631D01*
X125852749Y-104542477D01*
X125847765Y-104540153D01*
X125845472Y-104538829D01*
X125796479Y-104487447D01*
X125783043Y-104417733D01*
X125809429Y-104351822D01*
X125845472Y-104320591D01*
X125857002Y-104313934D01*
X125909048Y-104277491D01*
X125917424Y-104267012D01*
X125910356Y-104253566D01*
X125208812Y-103552022D01*
X125194868Y-103544408D01*
X125193035Y-103544539D01*
X125186420Y-103548790D01*
X124480923Y-104254287D01*
X124474493Y-104266062D01*
X124483789Y-104278077D01*
X124534998Y-104313934D01*
X124546528Y-104320591D01*
X124595521Y-104371973D01*
X124608958Y-104441687D01*
X124582571Y-104507598D01*
X124546528Y-104538829D01*
X124544235Y-104540153D01*
X124539251Y-104542477D01*
X124534747Y-104545631D01*
X124356211Y-104670643D01*
X124356208Y-104670645D01*
X124351700Y-104673802D01*
X124189802Y-104835700D01*
X124100112Y-104963791D01*
X124081220Y-104990771D01*
X124025763Y-105035099D01*
X123978007Y-105044500D01*
X123570007Y-105044500D01*
X123501886Y-105024498D01*
X123455393Y-104970842D01*
X123444007Y-104918500D01*
X123444008Y-103185475D01*
X123883483Y-103185475D01*
X123902472Y-103402519D01*
X123904375Y-103413312D01*
X123960764Y-103623761D01*
X123964510Y-103634053D01*
X124056586Y-103831511D01*
X124062069Y-103841006D01*
X124098509Y-103893048D01*
X124108988Y-103901424D01*
X124122434Y-103894356D01*
X124823978Y-103192812D01*
X124830356Y-103181132D01*
X125560408Y-103181132D01*
X125560539Y-103182965D01*
X125564790Y-103189580D01*
X126270287Y-103895077D01*
X126282062Y-103901507D01*
X126294077Y-103892211D01*
X126329931Y-103841006D01*
X126335414Y-103831511D01*
X126427490Y-103634053D01*
X126431236Y-103623761D01*
X126487625Y-103413312D01*
X126489528Y-103402519D01*
X126508517Y-103185475D01*
X126508517Y-103174525D01*
X126489528Y-102957481D01*
X126487625Y-102946688D01*
X126431236Y-102736239D01*
X126427490Y-102725947D01*
X126335414Y-102528489D01*
X126329931Y-102518994D01*
X126293491Y-102466952D01*
X126283012Y-102458576D01*
X126269566Y-102465644D01*
X125568022Y-103167188D01*
X125560408Y-103181132D01*
X124830356Y-103181132D01*
X124831592Y-103178868D01*
X124831461Y-103177035D01*
X124827210Y-103170420D01*
X124121713Y-102464923D01*
X124109938Y-102458493D01*
X124097923Y-102467789D01*
X124062069Y-102518994D01*
X124056586Y-102528489D01*
X123964510Y-102725947D01*
X123960764Y-102736239D01*
X123904375Y-102946688D01*
X123902472Y-102957481D01*
X123883483Y-103174525D01*
X123883483Y-103185475D01*
X123444008Y-103185475D01*
X123444008Y-102092988D01*
X124474576Y-102092988D01*
X124481644Y-102106434D01*
X125183188Y-102807978D01*
X125197132Y-102815592D01*
X125198965Y-102815461D01*
X125205580Y-102811210D01*
X125911077Y-102105713D01*
X125917507Y-102093938D01*
X125908211Y-102081923D01*
X125857006Y-102046069D01*
X125847511Y-102040586D01*
X125650053Y-101948510D01*
X125639761Y-101944764D01*
X125429312Y-101888375D01*
X125418519Y-101886472D01*
X125201475Y-101867483D01*
X125190525Y-101867483D01*
X124973481Y-101886472D01*
X124962688Y-101888375D01*
X124752239Y-101944764D01*
X124741947Y-101948510D01*
X124544489Y-102040586D01*
X124534994Y-102046069D01*
X124482952Y-102082509D01*
X124474576Y-102092988D01*
X123444008Y-102092988D01*
X123444008Y-101699654D01*
X126681618Y-101699654D01*
X126688673Y-101709627D01*
X126719679Y-101735551D01*
X126726598Y-101740579D01*
X126951272Y-101881515D01*
X126958807Y-101885556D01*
X127200520Y-101994694D01*
X127208551Y-101997680D01*
X127462832Y-102073002D01*
X127471184Y-102074869D01*
X127733340Y-102114984D01*
X127741874Y-102115700D01*
X128007045Y-102119867D01*
X128015596Y-102119418D01*
X128278883Y-102087557D01*
X128287284Y-102085955D01*
X128543824Y-102018653D01*
X128551926Y-102015926D01*
X128796949Y-101914434D01*
X128804617Y-101910628D01*
X129033598Y-101776822D01*
X129040679Y-101772009D01*
X129120655Y-101709301D01*
X129129125Y-101697442D01*
X129122608Y-101685818D01*
X127918812Y-100482022D01*
X127904868Y-100474408D01*
X127903035Y-100474539D01*
X127896420Y-100478790D01*
X126688910Y-101686300D01*
X126681618Y-101699654D01*
X123444008Y-101699654D01*
X123444009Y-100093204D01*
X125893665Y-100093204D01*
X125908932Y-100357969D01*
X125910005Y-100366470D01*
X125961065Y-100626722D01*
X125963276Y-100634974D01*
X126049184Y-100885894D01*
X126052499Y-100893779D01*
X126171664Y-101130713D01*
X126176020Y-101138079D01*
X126305347Y-101326250D01*
X126315601Y-101334594D01*
X126329342Y-101327448D01*
X127533978Y-100122812D01*
X127540356Y-100111132D01*
X128270408Y-100111132D01*
X128270539Y-100112965D01*
X128274790Y-100119580D01*
X129481730Y-101326520D01*
X129493939Y-101333187D01*
X129505439Y-101324497D01*
X129602831Y-101191913D01*
X129607418Y-101184685D01*
X129733962Y-100951621D01*
X129737530Y-100943827D01*
X129831271Y-100695750D01*
X129833748Y-100687544D01*
X129892954Y-100429038D01*
X129894294Y-100420577D01*
X129918031Y-100154616D01*
X129918277Y-100149677D01*
X129918666Y-100112485D01*
X129918523Y-100107519D01*
X129900362Y-99841123D01*
X129899201Y-99832649D01*
X129845419Y-99572944D01*
X129843120Y-99564709D01*
X129754588Y-99314705D01*
X129751191Y-99306854D01*
X129629550Y-99071178D01*
X129625122Y-99063866D01*
X129506031Y-98894417D01*
X129495509Y-98886037D01*
X129482121Y-98893089D01*
X128278022Y-100097188D01*
X128270408Y-100111132D01*
X127540356Y-100111132D01*
X127541592Y-100108868D01*
X127541461Y-100107035D01*
X127537210Y-100100420D01*
X126329814Y-98893024D01*
X126317804Y-98886466D01*
X126306064Y-98895434D01*
X126197935Y-99045911D01*
X126193418Y-99053196D01*
X126069325Y-99287567D01*
X126065839Y-99295395D01*
X125974700Y-99544446D01*
X125972311Y-99552670D01*
X125915812Y-99811795D01*
X125914563Y-99820250D01*
X125893754Y-100084653D01*
X125893665Y-100093204D01*
X123444009Y-100093204D01*
X123444009Y-99452019D01*
X123464011Y-99383898D01*
X123480914Y-99362924D01*
X124321338Y-98522500D01*
X126682584Y-98522500D01*
X126688980Y-98533770D01*
X127893188Y-99737978D01*
X127907132Y-99745592D01*
X127908965Y-99745461D01*
X127915580Y-99741210D01*
X129122604Y-98534186D01*
X129129795Y-98521017D01*
X129122473Y-98510780D01*
X129075233Y-98472115D01*
X129068261Y-98467160D01*
X128842122Y-98328582D01*
X128834552Y-98324624D01*
X128591704Y-98218022D01*
X128583644Y-98215120D01*
X128328592Y-98142467D01*
X128320214Y-98140685D01*
X128057656Y-98103318D01*
X128049111Y-98102691D01*
X127783908Y-98101302D01*
X127775374Y-98101839D01*
X127512433Y-98136456D01*
X127504035Y-98138149D01*
X127248238Y-98208127D01*
X127240143Y-98210946D01*
X126996199Y-98314997D01*
X126988577Y-98318881D01*
X126761013Y-98455075D01*
X126753981Y-98459962D01*
X126691053Y-98510377D01*
X126682584Y-98522500D01*
X124321338Y-98522500D01*
X126667935Y-96175903D01*
X126730247Y-96141877D01*
X126757030Y-96138998D01*
X132423343Y-96138993D01*
X132588000Y-96138993D01*
X132588000Y-95503503D01*
X132608002Y-95435382D01*
X132661658Y-95388889D01*
X132731932Y-95378785D01*
X132796512Y-95408279D01*
X132812748Y-95425242D01*
X132815097Y-95428206D01*
X132929829Y-95542739D01*
X132941240Y-95551751D01*
X133079243Y-95636816D01*
X133092424Y-95642963D01*
X133246710Y-95694138D01*
X133260086Y-95697005D01*
X133354438Y-95706672D01*
X133360854Y-95707000D01*
X133585885Y-95707000D01*
X133601124Y-95702525D01*
X133602329Y-95701135D01*
X133604000Y-95693452D01*
X133604000Y-95688884D01*
X134112000Y-95688884D01*
X134116475Y-95704123D01*
X134117865Y-95705328D01*
X134125548Y-95706999D01*
X134355095Y-95706999D01*
X134361614Y-95706662D01*
X134457206Y-95696743D01*
X134470600Y-95693851D01*
X134624784Y-95642412D01*
X134637962Y-95636239D01*
X134775807Y-95550937D01*
X134787208Y-95541901D01*
X134901739Y-95427171D01*
X134910751Y-95415760D01*
X134995816Y-95277757D01*
X135001963Y-95264576D01*
X135053138Y-95110290D01*
X135056005Y-95096914D01*
X135065672Y-95002562D01*
X135066000Y-94996146D01*
X135066000Y-94896115D01*
X135061525Y-94880876D01*
X135060135Y-94879671D01*
X135052452Y-94878000D01*
X134130115Y-94878000D01*
X134114876Y-94882475D01*
X134113671Y-94883865D01*
X134112000Y-94891548D01*
X134112000Y-95688884D01*
X133604000Y-95688884D01*
X133604000Y-94496000D01*
X133624002Y-94427879D01*
X133677658Y-94381386D01*
X133730000Y-94370000D01*
X135047884Y-94370000D01*
X135063123Y-94365525D01*
X135064328Y-94364135D01*
X135065999Y-94356452D01*
X135065999Y-94251905D01*
X135065662Y-94245386D01*
X135055743Y-94149794D01*
X135052851Y-94136400D01*
X135001412Y-93982216D01*
X134995239Y-93969038D01*
X134909937Y-93831193D01*
X134900901Y-93819792D01*
X134786172Y-93705262D01*
X134777238Y-93698206D01*
X134736177Y-93640288D01*
X134732947Y-93569365D01*
X134768574Y-93507954D01*
X134776407Y-93501154D01*
X134782348Y-93497478D01*
X134907305Y-93372303D01*
X134924156Y-93344966D01*
X134996275Y-93227968D01*
X134996276Y-93227966D01*
X135000115Y-93221738D01*
X135026564Y-93141995D01*
X135053632Y-93060389D01*
X135053632Y-93060387D01*
X135055797Y-93053861D01*
X135066500Y-92949400D01*
X135066500Y-92198600D01*
X135064015Y-92174651D01*
X135056238Y-92099692D01*
X135056237Y-92099688D01*
X135055526Y-92092834D01*
X134999550Y-91925054D01*
X134906478Y-91774652D01*
X134781303Y-91649695D01*
X134775072Y-91645854D01*
X134636968Y-91560725D01*
X134636966Y-91560724D01*
X134630738Y-91556885D01*
X134470254Y-91503655D01*
X134469389Y-91503368D01*
X134469387Y-91503368D01*
X134462861Y-91501203D01*
X134456025Y-91500503D01*
X134456022Y-91500502D01*
X134412969Y-91496091D01*
X134358400Y-91490500D01*
X133357600Y-91490500D01*
X133354354Y-91490837D01*
X133354350Y-91490837D01*
X133258692Y-91500762D01*
X133258688Y-91500763D01*
X133251834Y-91501474D01*
X133245298Y-91503655D01*
X133245296Y-91503655D01*
X133113194Y-91547728D01*
X133084054Y-91557450D01*
X132933652Y-91650522D01*
X132928479Y-91655704D01*
X132809872Y-91774518D01*
X132747590Y-91808597D01*
X132720699Y-91811500D01*
X132714000Y-91811500D01*
X132645879Y-91791498D01*
X132599386Y-91737842D01*
X132588000Y-91685500D01*
X132588000Y-90805000D01*
X118618000Y-90805000D01*
X118618000Y-91554843D01*
X118597998Y-91622964D01*
X118544342Y-91669457D01*
X118474068Y-91679561D01*
X118425885Y-91662104D01*
X118416935Y-91656587D01*
X118403759Y-91650444D01*
X118252234Y-91600185D01*
X118238868Y-91597319D01*
X118146230Y-91587828D01*
X118139815Y-91587500D01*
X118128115Y-91587500D01*
X118112876Y-91591975D01*
X118111671Y-91593365D01*
X118110000Y-91601048D01*
X118110000Y-92711000D01*
X118089998Y-92779121D01*
X118036342Y-92825614D01*
X117984000Y-92837000D01*
X117728000Y-92837000D01*
X117659879Y-92816998D01*
X117613386Y-92763342D01*
X117602000Y-92711000D01*
X117602000Y-91605615D01*
X117597525Y-91590376D01*
X117596135Y-91589171D01*
X117588452Y-91587500D01*
X117572234Y-91587500D01*
X117565718Y-91587837D01*
X117471868Y-91597575D01*
X117458472Y-91600468D01*
X117307047Y-91650988D01*
X117293885Y-91657153D01*
X117158508Y-91740926D01*
X117147110Y-91749960D01*
X117055173Y-91842057D01*
X116992890Y-91876136D01*
X116922070Y-91871133D01*
X116865197Y-91828636D01*
X116840329Y-91762137D01*
X116840000Y-91753039D01*
X116840000Y-90169500D01*
X116860002Y-90101379D01*
X116913658Y-90054886D01*
X116966000Y-90043500D01*
X132030633Y-90043500D01*
X132050018Y-90045000D01*
G37*
%TD.AperFunction*%
%TA.AperFunction,Conductor*%
G36*
X106744493Y-112208502D02*
G01*
X106790986Y-112262158D01*
X106801090Y-112332432D01*
X106799492Y-112341285D01*
X106799000Y-112343547D01*
X106799000Y-112819884D01*
X106803475Y-112835123D01*
X106804865Y-112836328D01*
X106812548Y-112837999D01*
X107309723Y-112837999D01*
X107317935Y-112837461D01*
X107424528Y-112823428D01*
X107428448Y-112822378D01*
X107431886Y-112822460D01*
X107432720Y-112822350D01*
X107432737Y-112822480D01*
X107499424Y-112824068D01*
X107558220Y-112863862D01*
X107586168Y-112929126D01*
X107574395Y-112999140D01*
X107554695Y-113028395D01*
X107464960Y-113128056D01*
X107369473Y-113293444D01*
X107310458Y-113475072D01*
X107290496Y-113665000D01*
X107291186Y-113671565D01*
X107302055Y-113774974D01*
X107310458Y-113854928D01*
X107369473Y-114036556D01*
X107464960Y-114201944D01*
X107592747Y-114343866D01*
X107747248Y-114456118D01*
X107753276Y-114458802D01*
X107753278Y-114458803D01*
X107915681Y-114531109D01*
X107921712Y-114533794D01*
X108015113Y-114553647D01*
X108102056Y-114572128D01*
X108102061Y-114572128D01*
X108108513Y-114573500D01*
X108161578Y-114573500D01*
X108229699Y-114593502D01*
X108250673Y-114610405D01*
X108485124Y-114844856D01*
X108519150Y-114907168D01*
X108514085Y-114977983D01*
X108471538Y-115034819D01*
X108405018Y-115059630D01*
X108356363Y-115053545D01*
X108346229Y-115050184D01*
X108332868Y-115047319D01*
X108240230Y-115037828D01*
X108233815Y-115037500D01*
X108222115Y-115037500D01*
X108206876Y-115041975D01*
X108205671Y-115043365D01*
X108204000Y-115051048D01*
X108204000Y-116211000D01*
X108183998Y-116279121D01*
X108130342Y-116325614D01*
X108078000Y-116337000D01*
X106985115Y-116337000D01*
X106969876Y-116341475D01*
X106968671Y-116342865D01*
X106967000Y-116350548D01*
X106967000Y-116429266D01*
X106967337Y-116435782D01*
X106977075Y-116529632D01*
X106979968Y-116543028D01*
X107030488Y-116694453D01*
X107036653Y-116707615D01*
X107120426Y-116842992D01*
X107129464Y-116854394D01*
X107131139Y-116856067D01*
X107131919Y-116857493D01*
X107134007Y-116860127D01*
X107133556Y-116860484D01*
X107165219Y-116918349D01*
X107160216Y-116989169D01*
X107131299Y-117034254D01*
X107128476Y-117037083D01*
X107123071Y-117042497D01*
X107119231Y-117048727D01*
X107119230Y-117048728D01*
X107050261Y-117160616D01*
X106997488Y-117208109D01*
X106943001Y-117220500D01*
X106074420Y-117220500D01*
X106006299Y-117200498D01*
X105977498Y-117174415D01*
X105975478Y-117171152D01*
X105850303Y-117046195D01*
X105845765Y-117043398D01*
X105805176Y-116986147D01*
X105801946Y-116915224D01*
X105837572Y-116853813D01*
X105846068Y-116846438D01*
X105856207Y-116838402D01*
X105970739Y-116723671D01*
X105979751Y-116712260D01*
X106064816Y-116574257D01*
X106070963Y-116561076D01*
X106122138Y-116406790D01*
X106125005Y-116393414D01*
X106134672Y-116299062D01*
X106135000Y-116292646D01*
X106135000Y-116180115D01*
X106130525Y-116164876D01*
X106129135Y-116163671D01*
X106121452Y-116162000D01*
X103687116Y-116162000D01*
X103671877Y-116166475D01*
X103670672Y-116167865D01*
X103669001Y-116175548D01*
X103669001Y-116292595D01*
X103669338Y-116299114D01*
X103679257Y-116394706D01*
X103682149Y-116408100D01*
X103733588Y-116562284D01*
X103739761Y-116575462D01*
X103828917Y-116719535D01*
X103826590Y-116720975D01*
X103848474Y-116775059D01*
X103835296Y-116844821D01*
X103786494Y-116896385D01*
X103723090Y-116913500D01*
X102942266Y-116913500D01*
X102874145Y-116893498D01*
X102827652Y-116839842D01*
X102817548Y-116769568D01*
X102847042Y-116704988D01*
X102853093Y-116698482D01*
X102882021Y-116669504D01*
X102934929Y-116616503D01*
X102951427Y-116589738D01*
X103022369Y-116474650D01*
X103022370Y-116474648D01*
X103026209Y-116468420D01*
X103080974Y-116303309D01*
X103082067Y-116292646D01*
X103090258Y-116212690D01*
X103091500Y-116200572D01*
X103091500Y-115810885D01*
X106967000Y-115810885D01*
X106971475Y-115826124D01*
X106972865Y-115827329D01*
X106980548Y-115829000D01*
X107677885Y-115829000D01*
X107693124Y-115824525D01*
X107694329Y-115823135D01*
X107696000Y-115815452D01*
X107696000Y-115055615D01*
X107691525Y-115040376D01*
X107690135Y-115039171D01*
X107682452Y-115037500D01*
X107666234Y-115037500D01*
X107659718Y-115037837D01*
X107565868Y-115047575D01*
X107552472Y-115050468D01*
X107401047Y-115100988D01*
X107387885Y-115107153D01*
X107252508Y-115190926D01*
X107241110Y-115199960D01*
X107128637Y-115312629D01*
X107119625Y-115324040D01*
X107036088Y-115459563D01*
X107029944Y-115472741D01*
X106979685Y-115624266D01*
X106976819Y-115637632D01*
X106967328Y-115730270D01*
X106967000Y-115736685D01*
X106967000Y-115810885D01*
X103091500Y-115810885D01*
X103091500Y-115635885D01*
X103669000Y-115635885D01*
X103673475Y-115651124D01*
X103674865Y-115652329D01*
X103682548Y-115654000D01*
X104629885Y-115654000D01*
X104645124Y-115649525D01*
X104646329Y-115648135D01*
X104648000Y-115640452D01*
X104648000Y-115635885D01*
X105156000Y-115635885D01*
X105160475Y-115651124D01*
X105161865Y-115652329D01*
X105169548Y-115654000D01*
X106116884Y-115654000D01*
X106132123Y-115649525D01*
X106133328Y-115648135D01*
X106134999Y-115640452D01*
X106134999Y-115523405D01*
X106134662Y-115516886D01*
X106124743Y-115421294D01*
X106121851Y-115407900D01*
X106070412Y-115253716D01*
X106064239Y-115240538D01*
X105978937Y-115102693D01*
X105969901Y-115091292D01*
X105855171Y-114976761D01*
X105843760Y-114967749D01*
X105705757Y-114882684D01*
X105692576Y-114876537D01*
X105538290Y-114825362D01*
X105524914Y-114822495D01*
X105430562Y-114812828D01*
X105424145Y-114812500D01*
X105174115Y-114812500D01*
X105158876Y-114816975D01*
X105157671Y-114818365D01*
X105156000Y-114826048D01*
X105156000Y-115635885D01*
X104648000Y-115635885D01*
X104648000Y-114830616D01*
X104643525Y-114815377D01*
X104642135Y-114814172D01*
X104634452Y-114812501D01*
X104379905Y-114812501D01*
X104373386Y-114812838D01*
X104277794Y-114822757D01*
X104264400Y-114825649D01*
X104110216Y-114877088D01*
X104097038Y-114883261D01*
X103959193Y-114968563D01*
X103947792Y-114977599D01*
X103833261Y-115092329D01*
X103824249Y-115103740D01*
X103739184Y-115241743D01*
X103733037Y-115254924D01*
X103681862Y-115409210D01*
X103678995Y-115422586D01*
X103669328Y-115516938D01*
X103669000Y-115523355D01*
X103669000Y-115635885D01*
X103091500Y-115635885D01*
X103091500Y-115601428D01*
X103091163Y-115598178D01*
X103081419Y-115504265D01*
X103081418Y-115504261D01*
X103080707Y-115497407D01*
X103025654Y-115332393D01*
X103026795Y-115332012D01*
X103017115Y-115269003D01*
X103045985Y-115204141D01*
X103052905Y-115196637D01*
X104482820Y-113766722D01*
X105468069Y-112781474D01*
X105530379Y-112747449D01*
X105601194Y-112752514D01*
X105620159Y-112761449D01*
X105625005Y-112764246D01*
X105757650Y-112819190D01*
X105773468Y-112823428D01*
X105880066Y-112837462D01*
X105888275Y-112838000D01*
X106380885Y-112838000D01*
X106396124Y-112833525D01*
X106397329Y-112832135D01*
X106399000Y-112824452D01*
X106399000Y-112314500D01*
X106419002Y-112246379D01*
X106472658Y-112199886D01*
X106525000Y-112188500D01*
X106676372Y-112188500D01*
X106744493Y-112208502D01*
G37*
%TD.AperFunction*%
%TA.AperFunction,Conductor*%
G36*
X109670121Y-109621002D02*
G01*
X109716614Y-109674658D01*
X109728000Y-109727000D01*
X109728000Y-111844884D01*
X109732475Y-111860123D01*
X109733865Y-111861328D01*
X109741548Y-111862999D01*
X110611610Y-111862999D01*
X110628275Y-111864106D01*
X110649990Y-111867004D01*
X110663986Y-111867297D01*
X110705503Y-111863518D01*
X110716923Y-111862999D01*
X110872000Y-111862999D01*
X110940121Y-111883001D01*
X110986614Y-111936657D01*
X110998000Y-111988999D01*
X110998000Y-112460078D01*
X110977998Y-112528199D01*
X110961095Y-112549173D01*
X110259135Y-113251132D01*
X109563095Y-113947172D01*
X109500783Y-113981198D01*
X109429967Y-113976133D01*
X109384905Y-113947172D01*
X109150790Y-113713057D01*
X109116764Y-113650745D01*
X109114575Y-113637132D01*
X109098232Y-113481635D01*
X109098232Y-113481633D01*
X109097542Y-113475072D01*
X109038527Y-113293444D01*
X108943040Y-113128056D01*
X108815253Y-112986134D01*
X108660752Y-112873882D01*
X108654724Y-112871198D01*
X108654722Y-112871197D01*
X108492319Y-112798891D01*
X108492318Y-112798891D01*
X108486288Y-112796206D01*
X108392888Y-112776353D01*
X108305944Y-112757872D01*
X108305939Y-112757872D01*
X108299487Y-112756500D01*
X108108513Y-112756500D01*
X108102061Y-112757872D01*
X108102056Y-112757872D01*
X108015112Y-112776353D01*
X107921712Y-112796206D01*
X107915682Y-112798891D01*
X107915681Y-112798891D01*
X107895256Y-112807985D01*
X107824889Y-112817419D01*
X107760592Y-112787313D01*
X107722778Y-112727224D01*
X107723454Y-112656231D01*
X107744045Y-112616174D01*
X107800058Y-112543176D01*
X107808247Y-112528993D01*
X107863189Y-112396351D01*
X107867428Y-112380531D01*
X107871716Y-112347960D01*
X107869505Y-112333778D01*
X107856348Y-112330000D01*
X107667337Y-112330000D01*
X107599216Y-112309998D01*
X107552723Y-112256342D01*
X107542619Y-112186068D01*
X107572113Y-112121488D01*
X107590632Y-112104038D01*
X107701436Y-112019014D01*
X107701437Y-112019013D01*
X107707987Y-112013987D01*
X107734608Y-111979295D01*
X107791946Y-111937428D01*
X107834569Y-111930000D01*
X107855965Y-111930000D01*
X107871205Y-111925525D01*
X107887701Y-111906488D01*
X107947427Y-111868104D01*
X107982925Y-111863000D01*
X108211618Y-111863000D01*
X108228283Y-111864107D01*
X108249991Y-111867004D01*
X108263986Y-111867297D01*
X108305494Y-111863519D01*
X108316914Y-111863000D01*
X109201885Y-111863000D01*
X109217124Y-111858525D01*
X109218329Y-111857135D01*
X109220000Y-111849452D01*
X109220000Y-109727000D01*
X109240002Y-109658879D01*
X109293658Y-109612386D01*
X109346000Y-109601000D01*
X109602000Y-109601000D01*
X109670121Y-109621002D01*
G37*
%TD.AperFunction*%
%TA.AperFunction,Conductor*%
G36*
X106744493Y-108958502D02*
G01*
X106790986Y-109012158D01*
X106801090Y-109082432D01*
X106799492Y-109091285D01*
X106799000Y-109093547D01*
X106799000Y-109995500D01*
X106778998Y-110063621D01*
X106725342Y-110110114D01*
X106673001Y-110121500D01*
X106599001Y-110121500D01*
X106524999Y-110121501D01*
X106456880Y-110101499D01*
X106410387Y-110047844D01*
X106399000Y-109995501D01*
X106399000Y-109064500D01*
X106419002Y-108996379D01*
X106472658Y-108949886D01*
X106525000Y-108938500D01*
X106676372Y-108938500D01*
X106744493Y-108958502D01*
G37*
%TD.AperFunction*%
%TD*%
M02*
