%TF.GenerationSoftware,KiCad,Pcbnew,(6.0.7-1)-1*%
%TF.CreationDate,2023-01-16T13:52:54-08:00*%
%TF.ProjectId,updated_boost_USB_charger,75706461-7465-4645-9f62-6f6f73745f55,rev?*%
%TF.SameCoordinates,Original*%
%TF.FileFunction,Paste,Top*%
%TF.FilePolarity,Positive*%
%FSLAX46Y46*%
G04 Gerber Fmt 4.6, Leading zero omitted, Abs format (unit mm)*
G04 Created by KiCad (PCBNEW (6.0.7-1)-1) date 2023-01-16 13:52:54*
%MOMM*%
%LPD*%
G01*
G04 APERTURE LIST*
G04 Aperture macros list*
%AMRoundRect*
0 Rectangle with rounded corners*
0 $1 Rounding radius*
0 $2 $3 $4 $5 $6 $7 $8 $9 X,Y pos of 4 corners*
0 Add a 4 corners polygon primitive as box body*
4,1,4,$2,$3,$4,$5,$6,$7,$8,$9,$2,$3,0*
0 Add four circle primitives for the rounded corners*
1,1,$1+$1,$2,$3*
1,1,$1+$1,$4,$5*
1,1,$1+$1,$6,$7*
1,1,$1+$1,$8,$9*
0 Add four rect primitives between the rounded corners*
20,1,$1+$1,$2,$3,$4,$5,0*
20,1,$1+$1,$4,$5,$6,$7,0*
20,1,$1+$1,$6,$7,$8,$9,0*
20,1,$1+$1,$8,$9,$2,$3,0*%
G04 Aperture macros list end*
%ADD10RoundRect,0.250001X-0.354999X-0.354999X0.354999X-0.354999X0.354999X0.354999X-0.354999X0.354999X0*%
%ADD11RoundRect,0.100000X-0.675000X-0.100000X0.675000X-0.100000X0.675000X0.100000X-0.675000X0.100000X0*%
%ADD12RoundRect,0.237500X-0.237500X0.250000X-0.237500X-0.250000X0.237500X-0.250000X0.237500X0.250000X0*%
%ADD13RoundRect,0.250000X0.475000X-0.337500X0.475000X0.337500X-0.475000X0.337500X-0.475000X-0.337500X0*%
%ADD14R,0.800000X1.800000*%
%ADD15RoundRect,0.237500X0.237500X-0.250000X0.237500X0.250000X-0.237500X0.250000X-0.237500X-0.250000X0*%
%ADD16RoundRect,0.237500X0.237500X-0.300000X0.237500X0.300000X-0.237500X0.300000X-0.237500X-0.300000X0*%
%ADD17RoundRect,0.250000X0.450000X-0.325000X0.450000X0.325000X-0.450000X0.325000X-0.450000X-0.325000X0*%
%ADD18RoundRect,0.250000X-0.475000X0.337500X-0.475000X-0.337500X0.475000X-0.337500X0.475000X0.337500X0*%
%ADD19R,3.100000X5.000000*%
%ADD20RoundRect,0.250000X-1.450000X0.400000X-1.450000X-0.400000X1.450000X-0.400000X1.450000X0.400000X0*%
G04 APERTURE END LIST*
D10*
%TO.C,U1*%
X108724000Y-110605000D03*
X110224000Y-110605000D03*
X108724000Y-109105000D03*
X110224000Y-109105000D03*
D11*
X106599000Y-107580000D03*
X106599000Y-108230000D03*
X106599000Y-108880000D03*
X106599000Y-109530000D03*
X106599000Y-110180000D03*
X106599000Y-110830000D03*
X106599000Y-111480000D03*
X106599000Y-112130000D03*
X112349000Y-112130000D03*
X112349000Y-111480000D03*
X112349000Y-110830000D03*
X112349000Y-110180000D03*
X112349000Y-109530000D03*
X112349000Y-108880000D03*
X112349000Y-108230000D03*
X112349000Y-107580000D03*
%TD*%
D12*
%TO.C,R1*%
X97282000Y-107926500D03*
X97282000Y-109751500D03*
%TD*%
D13*
%TO.C,C1*%
X104902000Y-117983000D03*
X104902000Y-115908000D03*
%TD*%
D14*
%TO.C,Q1*%
X96332000Y-101853000D03*
X98232000Y-101853000D03*
X97282000Y-98553000D03*
%TD*%
D15*
%TO.C,R7*%
X131318000Y-94511500D03*
X131318000Y-92686500D03*
%TD*%
D12*
%TO.C,R6*%
X119634000Y-100306500D03*
X119634000Y-102131500D03*
%TD*%
D15*
%TO.C,R8*%
X123698000Y-94408000D03*
X123698000Y-92583000D03*
%TD*%
D12*
%TO.C,R3*%
X99314000Y-115800500D03*
X99314000Y-117625500D03*
%TD*%
D15*
%TO.C,R2*%
X102108000Y-117726000D03*
X102108000Y-115901000D03*
%TD*%
%TO.C,R5*%
X117856000Y-94408000D03*
X117856000Y-92583000D03*
%TD*%
D16*
%TO.C,C2*%
X107950000Y-117808000D03*
X107950000Y-116083000D03*
%TD*%
D12*
%TO.C,R4*%
X120396000Y-92686500D03*
X120396000Y-94511500D03*
%TD*%
D15*
%TO.C,R9*%
X119634000Y-107719500D03*
X119634000Y-105894500D03*
%TD*%
D17*
%TO.C,D2*%
X126746000Y-94624000D03*
X126746000Y-92574000D03*
%TD*%
D18*
%TO.C,C3*%
X110998000Y-115929500D03*
X110998000Y-118004500D03*
%TD*%
D19*
%TO.C,L1*%
X102908000Y-98171000D03*
X114008000Y-98171000D03*
%TD*%
D17*
%TO.C,D1*%
X133858000Y-94624000D03*
X133858000Y-92574000D03*
%TD*%
D20*
%TO.C,F1*%
X91186000Y-97912000D03*
X91186000Y-102362000D03*
%TD*%
M02*
